<svg width="20" height="20" viewBox="0 0 20 20" fill="none" xmlns="http://www.w3.org/2000/svg">
<path d="M3.77078 0C7.93668 0 12.1026 0 16.2685 0C16.1185 0.389563 15.9686 0.786475 15.8103 1.20544C16.3851 1.20544 16.9267 1.19074 17.46 1.20544C18.7597 1.24954 19.8512 2.14627 19.9845 3.26351C20.1261 4.45424 19.2846 5.54208 17.9848 5.82139C17.7182 5.88019 17.435 5.89489 17.1433 5.93164C18.3181 7.5928 18.8097 9.40096 18.6264 11.3561C18.4431 13.3039 17.6016 15.0092 16.0685 16.4939C16.5185 16.4939 16.91 16.4939 17.3183 16.4939C17.3183 17.6773 17.3183 18.8387 17.3183 20C12.4275 20 7.55342 20 2.67932 20C2.67932 18.8313 2.67932 17.67 2.67932 16.4866C3.08758 16.4866 3.48751 16.4866 3.86244 16.4866C0.829667 13.1496 0.546386 9.63616 2.82097 5.91694C2.63767 5.90224 2.43771 5.89489 2.22942 5.86549C1.03797 5.71114 0.079801 4.7703 0.00481474 3.70452C-0.0701715 2.60198 0.738004 1.5656 1.92112 1.29364C2.28772 1.21279 2.67934 1.21279 3.0626 1.19809C3.4292 1.18339 3.79578 1.19809 4.18737 1.19809C4.15404 1.09518 4.12073 1.02168 4.09573 0.948179C3.98742 0.632119 3.8791 0.31606 3.77078 0ZM9.98633 16.4866C11.2694 16.4866 12.5525 16.4866 13.8356 16.4792C13.9606 16.4792 14.1189 16.4351 14.2105 16.3616C16.3268 14.8695 17.2933 12.8997 17.3266 10.5402C17.3266 10.43 17.2683 10.3785 17.1683 10.3344C16.6018 10.0772 16.0352 9.82727 15.477 9.56266C15.3603 9.50386 15.2687 9.51121 15.152 9.56266C14.3855 9.90812 13.6107 10.2389 12.8441 10.5917C12.7025 10.6578 12.5942 10.6505 12.4609 10.5843C11.7193 10.2389 10.9611 9.90812 10.2196 9.57001C10.0946 9.51121 9.98632 9.50386 9.85301 9.56266C9.05316 9.90812 8.24496 10.2462 7.44511 10.599C7.3118 10.6578 7.22015 10.6431 7.1035 10.5917C6.34531 10.2462 5.57878 9.90077 4.81226 9.57001C4.72894 9.53326 4.59564 9.53326 4.51232 9.57001C3.93743 9.81257 3.37919 10.0698 2.81263 10.3197C2.69598 10.3712 2.64599 10.43 2.65432 10.5476C2.68765 10.9078 2.68766 11.2679 2.73765 11.6207C3.03759 13.5538 4.01242 15.1635 5.77044 16.3763C5.87875 16.4498 6.03704 16.4939 6.17035 16.4939C7.44511 16.4939 8.71989 16.4866 9.98633 16.4866ZM2.8793 8.97464C2.97095 8.93789 3.03759 8.90849 3.10425 8.88644C3.57083 8.68063 4.0374 8.47483 4.50398 8.26167C4.62896 8.20287 4.72895 8.21022 4.85393 8.26167C5.61213 8.60713 6.37864 8.94524 7.13684 9.2907C7.26181 9.34951 7.36181 9.34216 7.48678 9.2907C8.27831 8.94524 9.07815 8.61448 9.86967 8.26167C10.0113 8.20287 10.1196 8.21022 10.2613 8.26902C11.0028 8.60713 11.7443 8.93054 12.4859 9.276C12.6275 9.34215 12.7275 9.34215 12.8691 9.276C13.6273 8.93054 14.4022 8.59978 15.1604 8.26167C15.2937 8.20287 15.3937 8.20287 15.527 8.26167C16.0435 8.50423 16.5684 8.73943 17.135 8.99669C17.01 8.43072 16.8101 7.93091 16.5518 7.43844C15.8353 6.0713 14.7438 5.01286 13.2607 4.26314C13.6523 3.22675 14.0272 2.21242 14.4188 1.18339C11.4777 1.18339 8.56157 1.18339 5.62044 1.18339C5.64544 1.25689 5.66212 1.32304 5.68711 1.38919C6.01205 2.25652 6.32865 3.1312 6.67026 3.99853C6.75358 4.20434 6.71191 4.29989 6.50361 4.41014C5.21218 5.09372 4.2457 6.04925 3.57083 7.23999C3.25422 7.7839 3.02094 8.34987 2.8793 8.97464ZM15.9852 17.6773C11.9859 17.6773 8.00335 17.6773 4.01241 17.6773C4.01241 18.0669 4.01241 18.4491 4.01241 18.8313C8.01168 18.8313 11.9943 18.8313 15.9852 18.8313C15.9852 18.4418 15.9852 18.0669 15.9852 17.6773ZM14.8521 3.74127C15.252 4.05733 15.6269 4.36604 16.0102 4.67475C16.0519 4.70415 16.1102 4.7262 16.1685 4.7262C16.5851 4.7262 16.9934 4.7409 17.41 4.71885C18.1432 4.6821 18.6764 4.16024 18.6681 3.51341C18.6514 2.88864 18.0932 2.38883 17.36 2.37413C16.7517 2.36678 16.1352 2.36678 15.5186 2.37413C15.4603 2.37413 15.3603 2.41823 15.3437 2.46968C15.1604 2.90334 15.0021 3.32966 14.8521 3.74127ZM3.53749 2.37413C3.24588 2.37413 2.96262 2.36678 2.671 2.37413C1.91281 2.38883 1.32958 2.90334 1.33791 3.55016C1.33791 4.19699 1.92946 4.7115 2.68766 4.71885C3.05426 4.7262 3.42918 4.7262 3.79578 4.71885C3.87076 4.71885 3.96241 4.6821 4.02907 4.638C4.379 4.37339 4.72061 4.10878 5.05389 3.83682C5.10388 3.80007 5.13721 3.69717 5.11222 3.64572C4.97891 3.26351 4.82893 2.88129 4.68729 2.49908C4.65396 2.40353 4.60398 2.36678 4.48733 2.36678C4.17072 2.38148 3.8541 2.37413 3.53749 2.37413Z" fill="#F0F0F0"/>
</svg>
