<svg width="24" height="24" viewBox="0 0 24 24" fill="none" xmlns="http://www.w3.org/2000/svg">
<path d="M23.99 11.7113C23.94 11.9382 23.9 12.165 23.85 12.3918C23.3799 14.2474 21.7294 15.6083 19.879 15.6289C17.8885 15.6495 15.898 15.6392 13.9075 15.6392C13.8575 15.6392 13.8175 15.6289 13.7175 15.6289C13.8275 15.5155 13.9175 15.4227 13.9975 15.3402C14.3276 15 14.6477 14.6598 14.9778 14.3402C15.0678 14.2577 15.1978 14.1959 15.3179 14.1959C16.7982 14.1856 18.2686 14.1856 19.749 14.1856C21.2493 14.1856 22.4596 13.0309 22.5897 11.5052C22.7097 10 21.6594 8.62887 20.1891 8.40207C19.889 8.36083 19.5789 8.39176 19.2488 8.39176C19.4789 8.8866 19.6889 9.34022 19.909 9.81444C14.6277 9.81444 9.39641 9.81444 4.11512 9.81444C4.33517 9.34022 4.54523 8.89691 4.77528 8.39176C4.4452 8.39176 4.13514 8.35052 3.82507 8.40207C2.35471 8.62887 1.31443 9.9897 1.42445 11.5052C1.54448 13.0206 2.77481 14.1856 4.26518 14.1856C5.73554 14.1856 7.20589 14.1856 8.66625 14.1856C8.82629 14.1856 8.9363 14.2371 9.05633 14.3505C9.45643 14.7732 9.85653 15.1753 10.3066 15.6289C10.1666 15.6392 10.0866 15.6392 9.99656 15.6392C8.05609 15.6392 6.12562 15.6392 4.18514 15.6392C2.02461 15.6392 0.19418 13.866 0.0141354 11.6083C-0.165909 9.39176 1.39445 7.32991 3.52498 6.97939C4.29517 6.84537 5.04535 6.91753 5.77553 7.2165C5.87555 7.25774 5.98559 7.26805 6.09561 7.26805C10.0366 7.26805 13.9675 7.26805 17.9085 7.26805C18.0285 7.26805 18.1586 7.24743 18.2686 7.19589C20.8092 6.2062 23.5799 7.89692 23.96 10.6598C23.97 10.7217 23.99 10.7835 24 10.8454C23.99 11.1237 23.99 11.4227 23.99 11.7113Z" fill="#FCFCF8"/>
<path d="M11.9868 0C14.0373 0 16.0778 0 18.1283 0C18.2184 0 18.3184 2.20253e-06 18.4084 0.0103115C18.9185 0.0618579 19.2186 0.608246 18.9586 1.06185C18.6285 1.65979 18.2584 2.23712 17.8983 2.82475C17.8583 2.87629 17.7582 2.91753 17.6882 2.91753C17.3081 2.92784 16.928 2.91753 16.5379 2.91753C13.1671 2.91753 9.7963 2.91753 6.41547 2.92784C6.19541 2.92784 6.08538 2.85567 5.97536 2.67011C5.69529 2.17526 5.39521 1.70103 5.09514 1.21649C4.92509 0.948454 4.86507 0.670106 5.02511 0.381446C5.18515 0.0824771 5.44523 0.0103115 5.7553 0.0103115C7.83581 2.20253e-06 9.91633 0 11.9868 0Z" fill="#FCFCF8"/>
<path d="M19.4386 17.1546C19.1285 17.5979 18.8385 18.0722 18.4984 18.4845C18.1983 18.8557 17.8482 19.1753 17.5081 19.5155C17.4381 19.5876 17.3181 19.6289 17.2181 19.6289C13.7372 19.6392 10.2464 19.6392 6.76552 19.6289C6.6755 19.6289 6.57547 19.5979 6.51546 19.5464C5.75527 18.8866 5.12511 18.1134 4.63499 17.2268C4.61499 17.1959 4.60497 17.1546 4.58496 17.1031C9.52617 17.1031 14.4574 17.1031 19.3786 17.1031C19.3986 17.1237 19.4186 17.1443 19.4386 17.1546Z" fill="#FCFCF8"/>
<path d="M11.9874 24C10.507 24 9.01661 24 7.53625 24C7.30619 24 7.08614 23.9691 6.9161 23.7835C6.68604 23.5464 6.63602 23.2165 6.80606 22.9175C7.14614 22.3402 7.48623 21.7629 7.84632 21.1959C7.88633 21.1237 8.02636 21.0825 8.12639 21.0825C9.52673 21.0722 10.9171 21.0825 12.3174 21.0825C13.5077 21.0825 14.688 21.0825 15.8783 21.0825C16.0383 21.0825 16.1283 21.134 16.2184 21.2784C16.5084 21.7835 16.8185 22.2784 17.1186 22.7732C17.2886 23.0515 17.3687 23.3299 17.1986 23.6289C17.0286 23.9381 16.7585 24 16.4384 24C14.9481 24 13.4677 24 11.9874 24Z" fill="#FCFCF8"/>
<path d="M6.71582 5.79382C6.71582 5.30928 6.71582 4.84537 6.71582 4.37114C10.2367 4.37114 13.7475 4.37114 17.2784 4.37114C17.2784 4.84537 17.2784 5.30928 17.2784 5.79382C13.7575 5.79382 10.2467 5.79382 6.71582 5.79382Z" fill="#FCFCF8"/>
<path d="M3.54492 12.7217C3.59493 12.2268 3.64495 11.7629 3.70496 11.2887C5.8955 11.2887 8.06603 11.2887 10.2966 11.2887C10.0165 11.567 9.73642 11.7938 9.52637 12.0722C9.12627 12.5979 8.64616 12.7629 7.996 12.7423C6.61566 12.6907 5.23533 12.7217 3.855 12.7217C3.76497 12.7217 3.67495 12.7217 3.54492 12.7217Z" fill="#FCFCF8"/>
<path d="M13.707 11.2887C15.9176 11.2887 18.0881 11.2887 20.2886 11.2887C20.3386 11.7526 20.3887 12.2268 20.4487 12.732C20.3386 12.732 20.2586 12.732 20.1686 12.732C18.5482 12.732 16.9378 12.732 15.3174 12.732C15.1674 12.732 15.0574 12.6907 14.9473 12.5773C14.5572 12.1546 14.1471 11.732 13.707 11.2887Z" fill="#FCFCF8"/>
<path d="M12.0075 11.6186C12.5977 12.2268 13.1878 12.835 13.768 13.433C13.1778 14.0412 12.5777 14.6495 11.9875 15.2577C11.4274 14.6701 10.8272 14.0515 10.2471 13.433C10.8072 12.8557 11.4074 12.2371 12.0075 11.6186Z" fill="#FCFCF8"/>
</svg>
