<svg width="25" height="24" viewBox="0 0 25 24" fill="none" xmlns="http://www.w3.org/2000/svg">
<path d="M4.91581 0C9.91489 0 14.914 0 19.9131 0C19.7331 0.467475 19.5531 0.94377 19.3632 1.44653C20.053 1.44653 20.7029 1.42889 21.3428 1.44653C22.9025 1.49945 24.2123 2.57552 24.3723 3.91621C24.5422 5.34509 23.5324 6.6505 21.9727 6.98567C21.6527 7.05623 21.3128 7.07387 20.9629 7.11797C22.3726 9.11136 22.9625 11.2811 22.7426 13.6273C22.5226 15.9647 21.5128 18.011 19.6731 19.7927C20.213 19.7927 20.6829 19.7927 21.1728 19.7927C21.1728 21.2128 21.1728 22.6064 21.1728 24C15.3039 24 9.45498 24 3.60605 24C3.60605 22.5976 3.60605 21.204 3.60605 19.7839C4.09596 19.7839 4.57589 19.7839 5.0258 19.7839C1.38647 15.7795 1.04653 11.5634 3.77603 7.10033C3.55607 7.08269 3.31613 7.07387 3.06617 7.03859C1.63643 6.85336 0.48663 5.72436 0.396647 4.44542C0.306663 3.12238 1.27647 1.87872 2.69621 1.55237C3.13613 1.45535 3.60607 1.45535 4.06599 1.4377C4.50591 1.42006 4.9458 1.4377 5.41572 1.4377C5.37572 1.31422 5.33575 1.22602 5.30575 1.13781C5.17577 0.758542 5.04578 0.379272 4.91581 0ZM12.3745 19.7839C13.9142 19.7839 15.4539 19.7839 16.9936 19.7751C17.1436 19.7751 17.3335 19.7222 17.4435 19.634C19.983 17.8434 21.1429 15.4796 21.1828 12.6483C21.1828 12.516 21.1129 12.4542 20.9929 12.4013C20.313 12.0926 19.6331 11.7927 18.9633 11.4752C18.8233 11.4046 18.7133 11.4135 18.5733 11.4752C17.6535 11.8897 16.7237 12.2867 15.8038 12.71C15.6339 12.7894 15.5039 12.7806 15.3439 12.7012C14.4541 12.2867 13.5442 11.8897 12.6544 11.484C12.5044 11.4135 12.3745 11.4046 12.2145 11.4752C11.2547 11.8897 10.2848 12.2955 9.325 12.7189C9.16503 12.7894 9.05505 12.7718 8.91507 12.71C8.00524 12.2955 7.08541 11.8809 6.16558 11.484C6.0656 11.4399 5.90564 11.4399 5.80566 11.484C5.11579 11.7751 4.4459 12.0838 3.76602 12.3837C3.62605 12.4454 3.56606 12.516 3.57606 12.6571C3.61605 13.0893 3.61606 13.5215 3.67604 13.9449C4.03598 16.2646 5.20578 18.1963 7.31539 19.6516C7.44537 19.7398 7.63531 19.7927 7.79528 19.7927C9.325 19.7927 10.8547 19.7839 12.3745 19.7839ZM3.84603 10.7696C3.95601 10.7255 4.03598 10.6902 4.11597 10.6637C4.67586 10.4168 5.23575 10.1698 5.79565 9.914C5.94562 9.84344 6.06562 9.85226 6.21559 9.914C7.12542 10.3286 8.04524 10.7343 8.95508 11.1488C9.10505 11.2194 9.22504 11.2106 9.37501 11.1488C10.3248 10.7343 11.2846 10.3374 12.2345 9.914C12.4044 9.84344 12.5344 9.85226 12.7044 9.92282C13.5942 10.3286 14.4841 10.7166 15.3739 11.1312C15.5439 11.2106 15.6638 11.2106 15.8338 11.1312C16.7437 10.7166 17.6735 10.3197 18.5833 9.914C18.7433 9.84344 18.8633 9.84344 19.0232 9.914C19.6431 10.2051 20.273 10.4873 20.9529 10.796C20.8029 10.1169 20.563 9.51709 20.253 8.92613C19.3932 7.28556 18.0834 6.01544 16.3037 5.11577C16.7736 3.87211 17.2236 2.6549 17.6935 1.42006C14.1641 1.42006 10.6648 1.42006 7.1354 1.42006C7.1654 1.50827 7.18541 1.58765 7.2154 1.66703C7.60533 2.70783 7.98526 3.75744 8.39518 4.79824C8.49516 5.0452 8.44516 5.15987 8.19521 5.29217C6.64549 6.11246 5.48571 7.2591 4.67586 8.68798C4.29593 9.34068 4.016 10.0198 3.84603 10.7696ZM19.5731 21.2128C14.774 21.2128 9.99488 21.2128 5.20576 21.2128C5.20576 21.6803 5.20576 22.1389 5.20576 22.5976C10.0049 22.5976 14.784 22.5976 19.5731 22.5976C19.5731 22.1301 19.5731 21.6803 19.5731 21.2128ZM18.2134 4.48953C18.6933 4.8688 19.1432 5.23925 19.6031 5.6097C19.6531 5.64498 19.7231 5.67145 19.7931 5.67145C20.293 5.67145 20.7829 5.68908 21.2828 5.66262C22.1627 5.61852 22.8025 4.99228 22.7925 4.2161C22.7725 3.46637 22.1027 2.86659 21.2228 2.84895C20.493 2.84013 19.7531 2.84013 19.0132 2.84895C18.9432 2.84895 18.8233 2.90187 18.8033 2.96361C18.5833 3.48401 18.3934 3.99559 18.2134 4.48953ZM4.63586 2.84895C4.28592 2.84895 3.94601 2.84013 3.59607 2.84895C2.68624 2.86659 1.98636 3.48401 1.99636 4.2602C1.99636 5.03638 2.70622 5.6538 3.61606 5.66262C4.05598 5.67144 4.50588 5.67144 4.9458 5.66262C5.03578 5.66262 5.14576 5.61852 5.22575 5.5656C5.64567 5.24807 6.05561 4.93054 6.45553 4.60419C6.51552 4.56009 6.55552 4.4366 6.52553 4.37486C6.36556 3.91621 6.18558 3.45755 6.01561 2.9989C5.97562 2.88423 5.91564 2.84013 5.77567 2.84013C5.39574 2.85777 5.01579 2.84895 4.63586 2.84895Z" fill="#702B21"/>
</svg>
