<svg width="25" height="24" viewBox="0 0 25 24" fill="none" xmlns="http://www.w3.org/2000/svg">
<path d="M0.390869 19.1441C0.390869 18.8629 0.390869 18.6218 0.390869 18.3406C0.470882 18.3406 0.550886 18.3406 0.630899 18.3406C1.70108 18.3406 2.76127 18.3406 3.83144 18.3507C3.99147 18.3507 4.16148 18.3908 4.3115 18.4611C4.9216 18.7524 5.5317 19.0337 6.1218 19.3651C6.96194 19.8472 7.8521 20.1285 8.79226 20.2992C9.19233 20.3695 9.59239 20.4499 9.98246 20.5604C10.6126 20.7412 11.2627 20.7713 11.9128 20.7512C12.2028 20.7412 12.3829 20.5905 12.3929 20.3494C12.3929 20.1084 12.2128 19.9276 11.9228 19.9477C10.5426 20.0582 9.27233 19.5559 7.91211 19.3149C7.97212 19.0437 8.02214 18.7926 8.08215 18.5214C8.66225 18.652 9.23231 18.7323 9.7724 18.9031C10.7626 19.2044 11.7627 19.1341 12.7729 19.1341C13.0229 19.1341 13.193 18.9633 13.193 18.7323C13.193 18.5013 13.023 18.3507 12.7629 18.3306C12.6929 18.3306 12.6129 18.3205 12.5429 18.3306C11.2827 18.421 10.0525 18.2301 8.84225 17.9087C8.5422 17.8284 8.24216 17.7681 7.91211 17.6978C7.97212 17.4366 8.02214 17.1855 8.08215 16.9143C8.55223 17.0148 8.99228 17.1052 9.43235 17.2257C10.3725 17.4768 11.3227 17.5873 12.3028 17.5371C12.6929 17.517 13.083 17.5371 13.473 17.5371C13.8031 17.5371 13.9931 17.3864 13.9931 17.1253C13.9831 16.8742 13.8031 16.7335 13.483 16.7335C12.8729 16.7335 12.2628 16.7235 11.6627 16.7335C11.0526 16.7536 10.4525 16.6833 9.86244 16.5327C9.22234 16.372 8.58222 16.2414 7.91211 16.0907C7.97212 15.8195 8.02214 15.5785 8.08215 15.3073C8.83227 15.478 9.55237 15.6186 10.2725 15.7994C11.1226 16.0104 11.9828 15.8898 12.8329 15.9099C13.043 15.92 13.203 15.709 13.193 15.5082C13.183 15.2872 13.023 15.1265 12.7829 15.1265C12.2128 15.1164 11.6527 15.1466 11.0826 15.1164C10.6826 15.0963 10.2725 15.006 9.88244 14.9256C8.99229 14.7348 8.11214 14.5339 7.22199 14.333C7.03196 14.2928 6.87193 14.2225 6.81192 14.0216C6.75191 13.8107 6.87193 13.6701 7.00195 13.5395C7.45203 13.1076 7.8921 12.6556 8.12213 12.053C8.23215 11.7617 8.30216 11.4503 8.40218 11.1088C8.03212 11.1088 7.73209 11.0988 7.42204 11.1189C7.35202 11.1189 7.282 11.1992 7.22199 11.2494C6.53188 11.9324 5.86177 12.6255 5.16165 13.2984C5.05163 13.4089 4.88161 13.5094 4.73159 13.5094C3.31135 13.5295 1.90112 13.5194 0.48088 13.5194C0.460877 13.5194 0.430855 13.5094 0.40085 13.4993C0.40085 13.2482 0.40085 13.0072 0.40085 12.7159C0.480863 12.7159 0.570878 12.7159 0.650892 12.7159C1.9011 12.7159 3.15131 12.7159 4.40151 12.7058C4.52153 12.7058 4.67158 12.6355 4.76159 12.5552C5.4517 11.8822 6.11179 11.1892 6.80191 10.5263C6.92193 10.4158 7.12196 10.3756 7.27199 10.3053C7.342 10.2752 7.44204 10.245 7.48204 10.1747C7.85211 9.55198 8.20217 8.9192 8.58223 8.26633C8.07215 7.7139 7.65206 7.0309 7.41202 6.23741C7.36202 6.08675 7.30201 5.93609 7.29201 5.77538C7.27201 5.36357 7.05195 5.07229 6.80191 4.77097C5.68172 3.44514 4.58155 2.09922 3.47137 0.76335C3.41136 0.682996 3.35134 0.612687 3.27132 0.512246C3.47136 0.341495 3.6714 0.180795 3.88144 0C4.97162 1.31578 6.0418 2.61147 7.16198 3.95739C7.16198 3.5054 7.16198 3.10364 7.16198 2.68179C7.44203 2.68179 7.68207 2.68179 7.97212 2.68179C7.97212 2.76214 7.97212 2.85254 7.97212 2.94293C7.98212 3.70629 7.9521 4.46964 8.02211 5.22295C8.10212 6.24746 8.56222 7.11125 9.29234 7.82438C9.51238 8.03531 9.5924 8.25628 9.5824 8.55761C9.5724 9.00959 9.56238 9.46159 9.63239 9.90353C9.75241 10.687 10.4225 11.3298 11.1727 11.4403C11.1727 10.1245 11.1727 8.81876 11.1727 7.49293C11.4427 7.49293 11.6927 7.49293 11.9628 7.49293C11.9628 8.36677 11.9628 9.24061 11.9628 10.1345C12.3228 10.2149 12.6529 10.2952 13.0029 10.3856C13.043 10.3053 13.083 10.245 13.103 10.1747C13.473 9.24061 13.8431 8.29646 14.2232 7.36235C14.2932 7.20165 14.2732 7.10121 14.1732 6.96059C12.5929 4.90154 11.0226 2.83244 9.45237 0.76335C9.39236 0.682996 9.33234 0.602649 9.25233 0.502207C9.46236 0.341501 9.6624 0.190835 9.88244 0.0200849C10.0825 0.271189 10.2625 0.52229 10.4525 0.76335C11.9628 2.74205 13.463 4.73079 14.9833 6.69944C15.1633 6.93046 15.1933 7.14138 15.0833 7.41258C14.6932 8.34668 14.3332 9.29084 13.9631 10.2249C13.9331 10.3053 13.9131 10.3756 13.8531 10.5162C14.3832 10.4861 14.8833 10.4961 15.3733 10.4359C16.5135 10.3053 17.5737 9.93366 18.5639 9.34105C19.384 8.84889 19.384 7.92482 18.5639 7.43266C17.6337 6.88023 16.6235 6.52869 15.5234 6.35794C15.5634 6.09679 15.5934 5.84569 15.6334 5.54436C16.0735 5.64481 16.4935 5.72516 16.9036 5.84569C17.6637 6.06666 18.3838 6.38807 19.064 6.79988C19.494 7.06103 19.7741 7.44271 19.9141 7.93487C19.9541 8.0554 20.0041 8.18598 20.0841 8.28642C22.2045 10.8979 22.5745 14.4334 20.9943 17.3663C20.2241 18.7926 19.014 19.5158 17.3937 19.5459C16.2635 19.566 15.1233 19.556 13.9931 19.5459C13.7931 19.5459 13.6031 19.5559 13.443 19.7167C13.353 19.8071 13.213 19.8472 13.113 19.9075C13.123 20.1184 13.163 20.3293 13.133 20.5302C13.053 21.1228 12.5529 21.5146 11.9528 21.5547C10.8726 21.6351 9.84241 21.3539 8.80224 21.1228C8.38217 21.0324 7.95211 20.9521 7.53204 20.8316C7.21199 20.7412 6.89193 20.6407 6.59188 20.5001C5.74174 20.0883 4.9116 19.6564 4.06146 19.2446C3.92144 19.1743 3.76143 19.1341 3.61141 19.1341C2.62124 19.124 1.63108 19.1341 0.640911 19.1341C0.590902 19.1441 0.500887 19.1441 0.390869 19.1441ZM11.9928 11.0084C11.9928 11.2796 11.9928 11.5307 11.9928 11.7918C11.9928 12.1936 11.8428 12.3442 11.4427 12.3141C10.5926 12.2539 9.89243 11.8822 9.37234 11.2093C9.32233 11.149 9.27233 11.0787 9.19232 10.9783C9.1023 12.0429 8.71224 12.9168 8.00212 13.6902C8.21215 13.7404 8.38219 13.7705 8.54222 13.8207C9.93245 14.1823 11.3327 14.4435 12.7829 14.333C12.8129 14.333 12.8529 14.333 12.8829 14.333C13.553 14.3832 14.0631 14.9859 13.9931 15.6588C13.9831 15.7693 13.9531 15.8697 13.9331 15.9702C14.4532 16.1811 14.7733 16.5427 14.7933 17.1052C14.8033 17.7078 14.4732 18.0895 13.9331 18.3105C13.9631 18.4511 13.9831 18.5917 14.0131 18.7323C14.0531 18.7323 14.0931 18.7424 14.1331 18.7424C15.2733 18.7424 16.4135 18.7524 17.5537 18.7323C17.8837 18.7223 18.2138 18.652 18.5339 18.5515C19.194 18.3406 19.7341 17.9288 20.1141 17.3362C20.6942 16.4423 21.0043 15.4479 21.1443 14.3631C20.1642 14.8955 19.174 15.3274 18.1038 15.6086C18.0338 15.3474 17.9638 15.1064 17.8938 14.8452C17.9938 14.8151 18.0738 14.785 18.1538 14.7649C19.164 14.4535 20.1241 14.0417 21.0243 13.4993C21.0943 13.4592 21.1943 13.3587 21.1843 13.2884C21.1343 12.736 21.0643 12.1835 20.9843 11.5809C20.0741 12.2639 19.124 12.7259 18.1038 13.0875C18.0138 12.8264 17.9338 12.5853 17.8538 12.3543C18.2838 12.1635 18.7039 12.0128 19.104 11.8019C19.5941 11.5307 20.0441 11.2093 20.5142 10.9079C20.5742 10.8678 20.6542 10.7472 20.6342 10.697C20.4242 10.1848 20.1742 9.6926 19.9241 9.36114C19.6741 9.56203 19.444 9.77295 19.184 9.93366C17.3637 11.0686 15.3833 11.5106 13.253 11.2294C12.8229 11.1791 12.4128 11.0887 11.9928 11.0084ZM8.76225 9.5118C8.60223 9.79304 8.4722 10.0341 8.32218 10.2852C8.53221 10.2852 8.70224 10.2852 8.88227 10.2852C8.84226 10.0341 8.80226 9.80308 8.76225 9.5118Z" fill="#EEEFEE"/>
<path d="M4.41148 20.3696C4.67153 20.3696 4.92157 20.3696 5.19161 20.3696C5.19161 20.4499 5.20161 20.5303 5.19161 20.6006C5.16161 20.9019 5.28161 21.163 5.52165 21.3137C5.95172 21.5849 6.3918 21.8661 6.87188 22.057C8.14209 22.5692 9.48233 22.8002 10.8226 22.9609C12.6429 23.1819 14.4631 23.2221 16.2834 23.1116C18.2038 22.9911 20.1141 22.7601 21.9344 22.0469C22.4045 21.8661 22.8445 21.5949 23.2546 21.3037C23.5747 21.0827 23.6147 20.8918 23.5747 20.5001C22.9346 20.9421 22.2445 21.2233 21.5143 21.4543C20.0441 21.9063 18.5338 22.1474 17.0036 22.2478C15.8434 22.3181 14.6732 22.3181 13.503 22.3482C13.403 22.3482 13.303 22.3382 13.203 22.3382C13.203 22.067 13.203 21.8259 13.203 21.5648C13.293 21.5648 13.363 21.5548 13.433 21.5548C15.1933 21.5949 16.9436 21.5246 18.6939 21.2635C19.9241 21.0726 21.1342 20.8316 22.2744 20.3093C22.6345 20.1486 22.9846 19.9276 23.2846 19.6765C23.7047 19.335 23.7047 18.9533 23.2746 18.6319C22.8745 18.3306 22.4045 18.1197 21.9644 17.8686C21.9344 17.8485 21.9044 17.8384 21.8444 17.8183C21.9344 17.5773 22.0244 17.3362 22.1244 17.0751C22.8945 17.3864 23.6547 17.6878 24.1248 18.4009C24.2748 18.6319 24.3448 18.9433 24.3748 19.2245C24.4148 19.6765 24.3648 20.1285 24.3848 20.5805C24.4148 21.1731 24.1548 21.6251 23.7247 21.9967C23.1946 22.4386 22.5845 22.7098 21.9444 22.9409C20.5042 23.4531 19.0139 23.6942 17.5037 23.8448C15.8634 24.0055 14.2131 24.0457 12.5628 23.9453C10.5225 23.8147 8.49216 23.5937 6.57184 22.8304C6.03175 22.6194 5.51166 22.3081 5.03158 21.9666C4.5215 21.5849 4.30146 21.0325 4.41148 20.3696Z" fill="#EEEFEE"/>
<path d="M4.22144 9.77292C4.70152 8.38683 5.42164 7.16144 6.3818 6.0365C6.49182 6.1269 6.59183 6.20725 6.69185 6.2876C6.79186 6.36796 6.88188 6.44831 7.0019 6.54875C6.12175 7.5833 5.44165 8.72833 4.98157 10.0341C4.72153 9.94368 4.48148 9.86332 4.22144 9.77292Z" fill="#EEEFEE"/>
<path d="M23.6147 9.55198C23.1046 8.26633 22.3545 7.17151 21.4443 6.14701C21.6544 5.96622 21.8544 5.80552 22.0544 5.63477C23.0146 6.70949 23.8147 7.87461 24.3548 9.25066C24.1148 9.3511 23.8848 9.45153 23.6147 9.55198Z" fill="#EEEFEE"/>
<path d="M22.8445 13.5395C23.0645 13.5395 23.3146 13.5395 23.5846 13.5395C23.6046 14.3832 23.4746 15.2068 23.2646 16.0405C23.0045 15.9702 22.7545 15.8999 22.5344 15.8496C22.6344 15.0562 22.7345 14.3028 22.8445 13.5395Z" fill="#EEEFEE"/>
<path d="M21.0442 8.11566C21.2242 7.97504 21.4242 7.83443 21.6843 7.63354C22.0843 8.33664 22.4744 9.01963 22.8845 9.73277C22.5944 9.8533 22.3544 9.95374 22.1444 10.0441C21.7743 9.40132 21.4143 8.77857 21.0442 8.11566Z" fill="#EEEFEE"/>
<path d="M7.09203 7.63354C7.35207 7.82438 7.54212 7.97504 7.73215 8.11566C7.36209 8.75848 7.00202 9.40132 6.63196 10.0441C6.42192 9.95374 6.18189 9.8533 5.89185 9.73277C6.30191 9.01963 6.69196 8.34668 7.09203 7.63354Z" fill="#EEEFEE"/>
<path d="M15.6335 13.66C15.6035 13.3788 15.5735 13.1377 15.5435 12.8665C15.8035 12.8264 16.0435 12.7962 16.3136 12.756C16.3636 13.0172 16.4036 13.2582 16.4636 13.5395C16.1935 13.5696 15.9335 13.6098 15.6335 13.66Z" fill="#EEEFEE"/>
<path d="M15.6335 16.0807C15.6035 15.8095 15.5835 15.5584 15.5635 15.2872C15.8135 15.2571 16.0636 15.2269 16.3336 15.1868C16.3736 15.4479 16.4136 15.699 16.4636 15.9702C16.1736 16.0104 15.9235 16.0405 15.6335 16.0807Z" fill="#EEEFEE"/>
</svg>
