<svg width="25" height="24" viewBox="0 0 25 24" fill="none" xmlns="http://www.w3.org/2000/svg">
<path d="M12.1558 0C13.8765 0 15.5972 0 17.3179 0C17.478 0.129878 17.6681 0.229786 17.8081 0.379645C19.5889 2.28786 21.3596 4.19607 23.1403 6.10428C23.9907 7.01343 24.3909 8.07243 24.3909 9.31127C24.3909 12.4283 24.3909 15.5354 24.3909 18.6525C24.3909 18.8423 24.3809 19.0421 24.3408 19.232C24.1007 20.6506 22.6101 21.4899 21.2996 20.9204C20.9995 20.7905 20.7393 20.5707 20.4492 20.3809C20.4092 20.4109 20.3492 20.4608 20.2992 20.5208C19.2087 21.5298 17.9782 22.2991 16.5876 22.8386C15.5572 23.2382 14.4867 23.488 13.3863 23.5779C13.2062 23.5879 13.0662 23.6279 12.9161 23.7777C12.786 23.9076 12.5559 23.9875 12.3759 23.9875C10.8152 24.0075 9.25457 23.9975 7.68391 23.9975C7.44381 23.9975 7.24373 23.9176 7.08366 23.7377C5.22288 21.7396 3.36211 19.7415 1.50133 17.7334C1.01113 17.2039 0.700998 16.5845 0.530927 15.8951C0.480906 15.6753 0.430886 15.4555 0.390869 15.2357C0.390869 11.7889 0.390869 8.33219 0.390869 4.88542C0.410877 4.84546 0.430887 4.8055 0.430887 4.75554C0.63097 3.87637 1.13118 3.25695 1.99154 2.9872C2.83189 2.72744 3.57219 2.94724 4.20245 3.56666C4.23247 3.59663 4.26249 3.60662 4.3025 3.63659C4.37253 3.57665 4.43255 3.5167 4.50258 3.45676C5.64306 2.39775 6.95361 1.60849 8.41421 1.07899C9.37461 0.729318 10.375 0.509524 11.3955 0.419609C11.5155 0.409618 11.6456 0.389635 11.7456 0.339682C11.8957 0.239775 12.0257 0.109897 12.1558 0ZM11.7056 22.5788C11.7056 22.4789 11.7056 22.399 11.7056 22.3291C11.6856 21.6797 11.6656 21.0303 11.6456 20.3909C11.6155 19.3119 11.2554 18.3528 10.5251 17.5635C9.01447 15.9451 7.48383 14.3366 5.9632 12.7281C5.493 12.2285 4.75269 12.4283 4.57262 13.0877C4.46257 13.4874 4.58262 13.817 4.86273 14.1168C5.96319 15.2757 7.06365 16.4446 8.16411 17.6035C8.45423 17.9132 8.44423 18.3428 8.15411 18.6126C7.86399 18.8823 7.4338 18.8723 7.14368 18.5726C6.00321 17.3737 4.86273 16.1748 3.73226 14.966C3.06198 14.2367 2.94193 13.1976 3.37211 12.2985C3.43213 12.1786 3.46216 12.0287 3.46216 11.8988C3.47216 9.72089 3.46216 7.54293 3.46216 5.36497C3.46216 5.25507 3.46215 5.14518 3.44214 5.03528C3.39212 4.67562 3.13201 4.38589 2.80188 4.30596C2.27166 4.18608 1.80146 4.61567 1.80146 5.2251C1.80146 8.41211 1.80146 11.5891 1.80146 14.7761C1.80146 15.5854 2.08158 16.2847 2.63181 16.8742C4.35252 18.7224 6.08324 20.5807 7.81396 22.419C7.89399 22.4989 8.03406 22.5589 8.15411 22.5589C9.25457 22.5688 10.355 22.5688 11.4555 22.5688C11.5355 22.5788 11.6055 22.5788 11.7056 22.5788ZM13.0862 1.41867C13.0862 1.50859 13.0862 1.57852 13.0862 1.65845C13.1062 2.30784 13.1262 2.95723 13.1462 3.59663C13.1762 4.66562 13.5263 5.62473 14.2566 6.404C15.7773 8.03247 17.3079 9.64096 18.8386 11.2594C18.9586 11.3793 19.1287 11.4792 19.2887 11.5192C19.839 11.6391 20.3992 10.9897 20.2391 10.4202C20.1791 10.2104 20.0491 10.0106 19.899 9.85077C18.8386 8.71183 17.7581 7.5729 16.6877 6.44396C16.3575 6.09429 16.3375 5.67468 16.6376 5.38495C16.9378 5.09522 17.3779 5.1252 17.6981 5.46488C18.8085 6.63378 19.929 7.81268 21.0295 8.99157C21.7198 9.73088 21.8598 10.7799 21.4296 11.689C21.3696 11.8089 21.3396 11.9588 21.3396 12.0887C21.3296 14.2666 21.3396 16.4446 21.3396 18.6225C21.3396 18.7424 21.3396 18.8623 21.3596 18.9722C21.4196 19.3718 21.7598 19.6816 22.1299 19.7015C22.4901 19.7215 22.8302 19.4618 22.9403 19.0821C22.9803 18.9522 22.9903 18.8224 22.9903 18.6925C22.9903 17.7434 22.9903 16.7843 22.9903 15.8352C22.9903 13.6672 22.9903 11.4992 22.9903 9.33125C22.9903 8.50203 22.7502 7.76272 22.1799 7.14331C20.4392 5.27506 18.6985 3.40681 16.9578 1.53856C16.8977 1.46862 16.7777 1.41867 16.6777 1.40868C15.5372 1.39869 14.3967 1.39869 13.2562 1.40868C13.2062 1.40868 13.1562 1.41867 13.0862 1.41867ZM12.3959 15.5554C14.3567 15.5554 15.9573 13.9669 15.9573 11.9988C15.9573 10.0306 14.3667 8.43209 12.4059 8.43209C10.4251 8.43209 8.82438 10.0206 8.83439 11.9988C8.83439 13.9569 10.425 15.5554 12.3959 15.5554ZM12.8561 7.03341C12.5359 6.41399 12.2258 5.78458 11.8957 5.14518C8.55427 5.26507 5.83314 8.18233 5.60305 11.0496C6.38337 11.1196 6.89358 11.6291 7.4138 12.2185C7.40379 10.67 7.904 9.3912 8.99446 8.37215C10.0849 7.35311 11.3955 6.9335 12.8561 7.03341ZM11.9457 16.9641C12.2558 17.5835 12.5759 18.2029 12.8961 18.8423C16.3475 18.6925 18.9786 15.6953 19.1787 12.9379C18.3984 12.8779 17.8982 12.3484 17.388 11.779C17.478 14.7362 14.9469 17.2239 11.9457 16.9641ZM13.0862 22.1892C13.3563 22.1592 13.5764 22.1392 13.7864 22.1093C16.1474 21.7696 18.1583 20.7406 19.809 19.0222C19.869 18.9622 19.909 18.8423 19.909 18.7624C19.919 17.7733 19.909 16.7843 19.909 15.7952C19.909 15.7353 19.899 15.6653 19.889 15.5654C18.4084 18.3528 16.1474 19.9213 13.0762 20.271C13.0862 20.9004 13.0862 21.5298 13.0862 22.1892ZM4.86273 8.37215C6.35335 5.64471 8.6143 4.06619 11.6956 3.71652C11.6956 3.07712 11.6956 2.44771 11.6956 1.78832C11.4355 1.8183 11.2054 1.83828 10.9853 1.86825C8.6343 2.20793 6.62346 3.23696 4.98278 4.95535C4.91275 5.02529 4.87273 5.14518 4.87273 5.24508C4.86273 6.05432 4.87273 6.86356 4.87273 7.6828C4.86273 7.91258 4.86273 8.14237 4.86273 8.37215Z" fill="#702B21"/>
</svg>
