<svg width="24" height="24" viewBox="0 0 24 24" fill="none" xmlns="http://www.w3.org/2000/svg">
<path d="M21.1804 0.00917408C21.2404 0.0458713 21.3103 0.0733944 21.3703 0.110092C21.6801 0.275229 21.8401 0.577982 21.7901 0.899083C21.7401 1.19266 21.5003 1.44037 21.1704 1.51376C21.0405 1.54128 20.9006 1.55046 20.7707 1.55046C18.392 1.55046 16.0234 1.55046 13.6448 1.55046C13.4549 1.55046 13.3349 1.59633 13.215 1.73394C12.7353 2.2844 12.2356 2.83486 11.7359 3.37615C11.626 3.49541 11.6059 3.6055 11.6459 3.75229C11.7958 4.25688 11.9358 4.76147 12.0857 5.26606C12.2256 5.76147 12.1257 6.01835 11.6759 6.3211C11.0963 6.7156 10.5166 7.11927 9.92694 7.49541C9.74704 7.6055 9.73705 7.70642 9.80701 7.88073C10.7165 10.211 11.6059 12.5413 12.5154 14.8624C12.6953 15.3119 12.6154 15.6697 12.2156 15.9725C12.0057 16.1376 11.8058 16.3303 11.596 16.4954C11.476 16.5872 11.476 16.6697 11.546 16.789C11.8958 17.367 12.2456 17.9541 12.5954 18.5321C12.7253 18.7523 12.7953 18.9817 12.7053 19.2294C12.5954 19.5046 12.3955 19.6789 12.0857 19.7339C11.7758 19.789 11.496 19.7064 11.2861 19.4771C11.2262 19.4128 11.1762 19.3394 11.1362 19.2661C10.6765 18.4954 10.2067 17.7248 9.74699 16.945C9.47715 16.4954 9.53712 16.1651 9.94689 15.8165C10.1867 15.6147 10.4166 15.4037 10.6565 15.211C10.7964 15.1101 10.7964 15.0183 10.7464 14.8716C9.83694 12.5413 8.9375 10.2018 8.03802 7.86238C7.79816 7.22936 7.86809 6.99083 8.44775 6.59633C9.02742 6.20183 9.60708 5.80734 10.1967 5.42202C10.3267 5.33945 10.3666 5.26605 10.3167 5.11927C10.1767 4.68807 10.0668 4.24771 9.93688 3.80734C9.9069 3.7156 9.85698 3.61468 9.79701 3.53211C9.35726 2.91743 8.9075 2.31193 8.45776 1.70642C8.39779 1.63303 8.27784 1.55046 8.18789 1.55046C6.90863 1.54128 5.63941 1.54128 4.36015 1.54128C4.33017 1.54128 4.29014 1.55046 4.25017 1.55046C4.25017 1.88991 4.25017 2.22018 4.25017 2.57798C4.34011 2.57798 4.43008 2.57798 4.52003 2.57798C5.68935 2.57798 6.84868 2.57798 8.01801 2.57798C8.50773 2.57798 8.86751 2.88991 8.8875 3.30275C8.90749 3.74312 8.57769 4.07339 8.08798 4.11009C8.00802 4.11927 7.91806 4.11927 7.82812 4.11927C6.55885 4.11927 5.28959 4.12844 4.02032 4.11009C3.78046 4.11009 3.68052 4.17431 3.59057 4.36697C3.12085 5.37615 2.64113 6.38532 2.16141 7.3945C2.13142 7.46789 2.11141 7.54128 2.07143 7.6422C2.31129 7.6055 2.52121 7.55963 2.73109 7.54128C3.7405 7.44954 4.65997 7.72477 5.53946 8.16514C5.93923 8.36697 6.32902 8.59633 6.73878 8.78899C6.96865 8.89908 7.21848 8.98165 7.46834 9.04587C7.8881 9.14679 8.1779 9.48624 8.12793 9.88073C8.07796 10.2844 7.7482 10.5688 7.30846 10.5596C6.75878 10.5596 6.299 10.3211 5.82927 10.0917C5.24961 9.80734 4.67992 9.48624 4.07028 9.24771C3.29073 8.93578 2.52119 9.00917 1.84158 9.50459C1.76163 9.56881 1.6917 9.68807 1.6817 9.78899C1.66172 10.0367 1.6717 10.2844 1.6717 10.5229C1.72167 10.5321 1.74162 10.5321 1.75161 10.5321C2.77102 10.0367 3.71048 10.2936 4.62995 10.7706C5.13966 11.0367 5.62938 11.3303 6.13909 11.5963C6.73874 11.9174 7.37842 12.0092 8.05802 11.844C8.13798 11.8257 8.22793 11.8073 8.30788 11.7982C8.76761 11.7431 9.14739 11.9817 9.23734 12.3853C9.33728 12.7798 9.1074 13.1651 8.66766 13.2844C7.76818 13.5321 6.85866 13.5872 5.99916 13.2202C5.24959 12.8991 4.55 12.4771 3.82042 12.1101C3.61054 12 3.38069 11.8991 3.15083 11.8349C2.77105 11.7248 2.21139 11.9725 2.05149 12.3028C2.0215 12.367 2.0415 12.4587 2.06149 12.5229C2.49124 14.1193 3.09088 15.6606 3.80047 17.1651C4.44011 18.5229 5.14965 19.8532 5.81927 21.2018C6.22903 22.0459 6.95864 22.422 7.91809 22.4312C10.6365 22.4404 13.3449 22.4404 16.0633 22.4312C17.0328 22.4312 17.7324 22.0367 18.1722 21.2018C19.5414 18.6239 20.8306 16.0275 21.7101 13.2661C21.7701 13.0734 21.84 12.8807 21.88 12.6789C21.91 12.5321 21.97 12.3303 21.89 12.2202C21.7301 11.9817 21.4702 11.7706 21.1404 11.8073C20.8506 11.8349 20.5508 11.9358 20.2809 12.0642C19.7313 12.3303 19.2215 12.6514 18.6818 12.9358C17.1327 13.7431 15.6236 13.578 14.1445 12.7615C13.8946 12.6239 13.6448 12.4679 13.3949 12.3119C13.0251 12.0826 12.6253 11.9174 12.1856 11.8532C11.7059 11.7798 11.4161 11.4128 11.476 11C11.536 10.5688 11.9158 10.3028 12.4255 10.3394C13.0951 10.3945 13.6847 10.6606 14.2444 10.9817C14.6042 11.1927 14.954 11.4128 15.3238 11.5963C16.1833 12.0367 17.0528 12.0459 17.9123 11.5872C18.402 11.3211 18.8817 11.0459 19.3814 10.7798C20.061 10.422 20.7807 10.156 21.5902 10.3028C21.83 10.3486 22.0599 10.4404 22.3297 10.5138C22.3297 10.2202 22.3397 9.92661 22.3197 9.6422C22.3197 9.58716 22.2498 9.52294 22.1898 9.48624C21.5002 8.99083 20.7407 8.93578 19.9511 9.23853C19.4414 9.44037 18.9517 9.70642 18.462 9.94495C18.1821 10.0826 17.9123 10.2294 17.6325 10.3486C16.8929 10.6697 16.1533 10.5963 15.4437 10.2569C14.8041 9.95413 14.1845 9.6055 13.5448 9.29358C12.9152 8.98165 12.2356 8.87156 11.526 8.97248C10.9963 9.04587 10.6365 8.87156 10.4766 8.50459C10.2867 8.04587 10.5865 7.57798 11.1262 7.47706C12.4254 7.24771 13.6247 7.53211 14.7441 8.12844C15.1639 8.34862 15.5836 8.57798 15.9934 8.80734C16.4231 9.04587 16.8429 9.05505 17.2827 8.78899C17.7124 8.53211 18.1622 8.31193 18.6119 8.09174C19.6413 7.59633 20.7107 7.33945 21.94 7.6422C21.83 7.3578 21.7601 7.11009 21.6401 6.87156C21.2004 5.9633 20.7407 5.07339 20.3209 4.16514C20.121 3.74312 19.9811 3.30275 19.8412 2.86239C19.7013 2.40367 19.9711 1.99083 20.4508 1.88991C20.9006 1.78899 21.3303 2.0367 21.4503 2.48624C21.7001 3.44954 22.2198 4.30275 22.6696 5.18349C23.1993 6.23853 23.639 7.31193 23.8589 8.45872C24.1587 10.0092 23.9488 11.5138 23.5291 13.0183C22.7895 15.6147 21.6702 18.0642 20.4209 20.4771C20.141 21.0092 19.8612 21.5413 19.5613 22.0734C18.8917 23.2752 17.8024 23.8807 16.3532 23.9541C15.7036 23.9908 15.0439 23.9908 14.3843 23.9908C12.4554 24 10.5266 24.0092 8.58769 23.9817C7.98803 23.9725 7.3784 23.9174 6.78874 23.8165C5.70936 23.6239 4.97979 22.9817 4.48007 22.1193C3.3907 20.2385 2.45121 18.2936 1.63168 16.2936C0.992053 14.7431 0.432387 13.1743 0.142554 11.5321C-0.147278 9.93578 0.00266666 8.36697 0.612314 6.85321C1.05206 5.76147 1.63174 4.70642 2.12145 3.63303C2.31134 3.22018 2.44127 2.77982 2.5612 2.34862C2.66114 2 2.57115 1.65138 2.39125 1.33028C2.04146 0.660551 2.13145 0.376147 2.81106 0C4.86987 0 6.92867 0 8.98748 0C9.2973 0.110092 9.48718 0.321101 9.66708 0.568808C10.0169 1.06422 10.3766 1.55046 10.7564 2.05505C11.2461 1.51376 11.7059 0.972477 12.2056 0.458715C12.3755 0.275229 12.6153 0.146789 12.8252 0C15.6036 0.00917431 18.392 0.00917408 21.1804 0.00917408Z" fill="#555555"/>
</svg>
