<svg width="24" height="32" viewBox="0 0 24 32" fill="none" xmlns="http://www.w3.org/2000/svg">
<g clip-path="url(#clip0_1905_17867)">
<path d="M11.8133 32C11.1169 31.4983 10.4292 30.985 9.72223 30.4975C9.13117 30.09 8.86681 29.5475 8.86945 28.8658C8.87296 28.0117 8.87033 27.1575 8.87033 26.3042C8.87033 26.1925 8.87033 26.0808 8.87033 25.9375C8.40134 25.9375 7.96573 25.9242 7.53187 25.9417C7.17618 25.9558 6.9856 25.8042 6.88548 25.4933C6.7511 25.0767 6.60707 24.6625 6.44371 24.2558C6.40946 24.1717 6.27685 24.0875 6.1776 24.0717C5.99668 24.0417 5.80698 24.0633 5.62079 24.0633C5.08242 24.0625 4.92785 23.9142 4.92697 23.3892C4.92522 22.5875 4.91468 21.785 4.93312 20.9833C4.93927 20.7283 4.85847 20.5717 4.64593 20.4125C2.12886 18.5233 0.606849 16.0633 0.131715 13.0542C-0.777277 7.295 3.11602 1.7725 9.0653 0.343333C9.70818 0.189167 10.3713 0.1125 11.0247 0C11.6825 0 12.3394 0 12.9972 0C13.5971 0.1025 14.2031 0.178333 14.7959 0.3125C19.4902 1.37 23.1165 5.0225 23.8357 9.54167C24.5375 13.9508 22.9865 17.5767 19.3777 20.4108C19.1731 20.5717 19.0818 20.7242 19.0888 20.9825C19.109 21.7842 19.0976 22.5858 19.0958 23.3875C19.0949 23.9117 18.9386 24.0608 18.402 24.0625C17.6353 24.0642 17.6353 24.0642 17.3946 24.7542C17.3086 25.0008 17.2128 25.2442 17.1364 25.4925C17.0407 25.805 16.8457 25.9558 16.49 25.9417C16.0746 25.925 15.6583 25.9408 15.242 25.9442C15.2227 25.9442 15.2043 25.9608 15.1525 25.9842C15.1525 26.57 15.1525 27.1717 15.1525 27.7725C15.1525 28.1575 15.1551 28.5433 15.1516 28.9283C15.1454 29.5733 14.8811 30.0908 14.3278 30.4792C13.6164 30.9783 12.9156 31.4917 12.2103 31.9992C12.0768 32 11.9451 32 11.8133 32ZM18.438 15.7858C19.5086 15.9225 20.537 16.05 21.5637 16.19C21.7622 16.2167 21.8281 16.1233 21.901 15.98C22.9601 13.8875 23.257 11.7 22.8064 9.42C21.641 3.53833 15.3782 -0.234167 9.27696 1.27C4.37982 2.4775 1.00382 6.6525 1.01611 11.4792C1.02051 13.055 1.39903 14.5458 2.10778 15.965C2.17365 16.0975 2.22635 16.2208 2.43625 16.1917C3.47259 16.0508 4.51156 15.9225 5.58303 15.7858C5.58303 15.665 5.58303 15.5417 5.58303 15.4192C5.58303 12.3783 5.58303 9.33833 5.58391 6.2975C5.58391 5.77417 5.74023 5.625 6.27948 5.625C8.79831 5.625 11.318 5.625 13.8368 5.625C14.3172 5.625 14.4885 5.78417 14.492 6.24083C14.4964 6.83417 14.499 7.42833 14.4903 8.02167C14.4876 8.19583 14.5473 8.27167 14.7283 8.32667C15.7769 8.6475 16.8194 8.98667 17.8654 9.31583C18.3449 9.46667 18.4371 9.58 18.438 10.0575C18.4389 11.3067 18.438 12.5567 18.438 13.8058C18.438 14.4617 18.438 15.1167 18.438 15.7858ZM21.2396 17.0892C15.055 16.2767 8.94585 16.2742 2.78667 17.0933C3.53846 18.1942 4.43076 19.0842 5.49257 19.8217C5.57951 19.8817 5.7174 19.895 5.83157 19.895C9.95058 19.8983 14.0696 19.8983 18.1886 19.895C18.3028 19.895 18.4415 19.8817 18.5276 19.8217C19.5912 19.0867 20.4817 18.1942 21.2396 17.0892ZM13.4583 6.58C11.1573 6.58 8.89492 6.58 6.62727 6.58C6.62727 9.63083 6.62727 12.6642 6.62727 15.7183C7.16037 15.6842 7.66975 15.6517 8.21339 15.6167C8.21339 15.4867 8.21339 15.375 8.21339 15.2633C8.21339 14.535 8.209 13.8058 8.21515 13.0775C8.21866 12.6725 8.40046 12.5025 8.81148 12.5017C9.63265 12.4992 10.4538 12.4992 11.275 12.5017C11.6676 12.5033 11.8511 12.6742 11.8608 13.0567C11.8704 13.4625 11.8634 13.8683 11.8634 14.2742C11.8634 14.6767 11.8634 15.08 11.8634 15.5108C12.4167 15.5108 12.9322 15.5108 13.4583 15.5108C13.4583 12.525 13.4583 9.56167 13.4583 6.58ZM18.0595 20.8842C14.0072 20.8842 9.99361 20.8842 5.9677 20.8842C5.9677 21.635 5.9677 22.3667 5.9677 23.1033C10.0112 23.1033 14.0336 23.1033 18.0595 23.1033C18.0595 22.3558 18.0595 21.63 18.0595 20.8842ZM17.4166 15.7167C17.4166 15.5675 17.4166 15.455 17.4166 15.3425C17.4166 13.8742 17.4166 12.4058 17.4166 10.9367C17.4166 10.1808 17.4166 10.18 16.6762 9.94667C15.9631 9.7225 15.2491 9.5 14.5131 9.26917C14.5131 9.94417 14.5131 10.5833 14.5131 11.2508C14.8802 11.2508 15.2289 11.2475 15.5767 11.2517C15.9042 11.2558 16.1229 11.4408 16.13 11.7092C16.137 11.9883 15.9104 12.1825 15.5644 12.1867C15.2175 12.1908 14.8697 12.1875 14.5184 12.1875C14.5184 12.5175 14.5184 12.8117 14.5184 13.1258C14.8811 13.1258 15.2192 13.1233 15.5573 13.1267C15.906 13.13 16.1335 13.3192 16.1308 13.5967C16.1291 13.8742 15.9025 14.0592 15.5512 14.0617C15.2043 14.065 14.8582 14.0625 14.521 14.0625C14.521 14.5892 14.521 15.0717 14.521 15.5583C15.488 15.6108 16.4268 15.6625 17.4166 15.7167ZM7.45634 24.0792C7.53626 24.3175 7.61706 24.5308 7.67854 24.7492C7.73035 24.9342 7.81994 25.0208 8.04125 25.0058C8.35743 24.9842 8.67535 25 8.99328 25C11.3136 25 13.634 25.0017 15.9543 24.995C16.065 24.995 16.2406 24.9533 16.2749 24.8833C16.3961 24.6325 16.469 24.3617 16.5665 24.0783C13.5172 24.0792 10.503 24.0792 7.45634 24.0792ZM12.0136 30.9367C12.6266 30.4975 13.2203 30.0725 13.8123 29.6483C14.0986 29.4433 14.1618 29.155 14.1223 28.8417C14.1135 28.77 14.0353 28.6725 13.9651 28.6475C12.667 28.1817 11.3637 28.1767 10.0647 28.6458C9.99273 28.6717 9.9093 28.7642 9.89964 28.8342C9.8566 29.16 9.9295 29.4525 10.2272 29.6633C10.8148 30.0792 11.3988 30.4983 12.0136 30.9367ZM10.8236 13.4575C10.2896 13.4575 9.77317 13.4575 9.25764 13.4575C9.25764 14.1675 9.25764 14.8558 9.25764 15.5342C9.78898 15.5342 10.2975 15.5342 10.8236 15.5342C10.8236 14.8308 10.8236 14.16 10.8236 13.4575ZM9.9093 27.6458C10.4503 27.5383 10.9588 27.4367 11.4779 27.3333C11.4779 26.8817 11.4779 26.4208 11.4779 25.9533C10.9456 25.9533 10.4362 25.9533 9.9093 25.9533C9.9093 26.525 9.9093 27.0825 9.9093 27.6458ZM12.5432 25.9458C12.5432 26.435 12.5432 26.8958 12.5432 27.3317C13.0789 27.4383 13.5892 27.54 14.103 27.6425C14.103 27.0808 14.103 26.5175 14.103 25.9458C13.576 25.9458 13.0763 25.9458 12.5432 25.9458Z" fill="#F1EAE6"/>
<path d="M16.6692 3.73083C16.8607 3.8175 16.9845 3.85917 17.0917 3.925C18.3256 4.68083 19.3137 5.66333 20.0698 6.8575C20.2604 7.15833 20.2112 7.44417 19.9521 7.59333C19.6975 7.74 19.4191 7.66917 19.2329 7.375C18.5311 6.27083 17.6142 5.36917 16.4743 4.67C16.2617 4.54 16.1405 4.33334 16.2644 4.11084C16.3487 3.9575 16.5322 3.85417 16.6692 3.73083Z" fill="#F1EAE6"/>
<path d="M15.755 3.54919C15.7568 3.80835 15.5328 4.02085 15.2579 4.02335C14.9453 4.02585 14.6607 3.78585 14.6589 3.51835C14.6572 3.26502 14.8864 3.05252 15.1639 3.05085C15.4942 3.04919 15.7532 3.26669 15.755 3.54919Z" fill="#F1EAE6"/>
<path d="M12.0117 18.6783C11.1914 18.6783 10.3711 18.685 9.55086 18.6725C9.38575 18.67 9.16794 18.6383 9.07221 18.5367C8.96243 18.4208 8.90622 18.205 8.92642 18.0442C8.95628 17.8083 9.18024 17.7183 9.41649 17.715C9.95222 17.7075 10.488 17.7117 11.0237 17.7108C12.1391 17.7108 13.2544 17.7108 14.3698 17.7108C14.4577 17.7108 14.5455 17.7067 14.6324 17.715C14.9337 17.7442 15.1418 17.9408 15.1427 18.19C15.1427 18.4367 14.9319 18.6533 14.6359 18.67C14.3092 18.6883 13.9799 18.6767 13.6523 18.6775C13.106 18.6783 12.5589 18.6783 12.0117 18.6783Z" fill="#F1EAE6"/>
<path d="M8.70706 8.4333C8.5762 8.4333 8.44271 8.44914 8.31536 8.42997C8.03783 8.38747 7.89116 8.2058 7.89819 7.9533C7.90434 7.7158 8.05013 7.53164 8.31448 7.50914C8.58411 7.4858 8.85988 7.4858 9.13038 7.50914C9.39561 7.53164 9.54052 7.7158 9.54755 7.9533C9.55457 8.2058 9.40878 8.38914 9.13126 8.42997C8.99337 8.44997 8.84934 8.4333 8.70706 8.4333Z" fill="#F1EAE6"/>
<path d="M11.3374 8.4333C11.2066 8.4333 11.0731 8.44914 10.9457 8.42997C10.6682 8.38747 10.5215 8.2058 10.5286 7.9533C10.5347 7.7158 10.6805 7.53164 10.9449 7.50914C11.2145 7.4858 11.4902 7.4858 11.7608 7.50914C12.026 7.53164 12.1709 7.7158 12.1779 7.9533C12.1849 8.2058 12.0392 8.38914 11.7616 8.42997C11.6229 8.44997 11.4788 8.4333 11.3374 8.4333Z" fill="#F1EAE6"/>
<path d="M8.71739 10.3092C8.58653 10.3092 8.45392 10.3233 8.32569 10.3067C8.04553 10.27 7.89535 10.0892 7.89798 9.83832C7.9015 9.58749 8.05431 9.40249 8.33711 9.38082C8.58565 9.36249 8.83859 9.36666 9.08802 9.37916C9.35676 9.39249 9.55964 9.60666 9.55525 9.84916C9.55173 10.0933 9.34886 10.2917 9.07572 10.31C8.95628 10.3183 8.83596 10.3117 8.71651 10.3117C8.71739 10.3108 8.71739 10.31 8.71739 10.3092Z" fill="#F1EAE6"/>
<path d="M11.339 10.3108C11.2196 10.3108 11.0984 10.3191 10.9798 10.3091C10.7128 10.2866 10.5003 10.0708 10.5249 9.83081C10.5512 9.57998 10.6918 9.39915 10.9754 9.38081C11.2143 9.36498 11.455 9.36915 11.6938 9.37831C11.9837 9.38998 12.1944 9.60248 12.1848 9.85748C12.176 10.1041 11.9749 10.2941 11.6982 10.3108C11.5788 10.3175 11.4585 10.3116 11.339 10.3108Z" fill="#F1EAE6"/>
<path d="M8.02277 22.5308C8.33563 22.5308 8.58924 22.2902 8.58924 21.9933C8.58924 21.6965 8.33563 21.4558 8.02277 21.4558C7.70992 21.4558 7.4563 21.6965 7.4563 21.9933C7.4563 22.2902 7.70992 22.5308 8.02277 22.5308Z" fill="#F1EAE6"/>
<path d="M12.1463 22.5308C12.4592 22.5308 12.7128 22.2902 12.7128 21.9933C12.7128 21.6965 12.4592 21.4558 12.1463 21.4558C11.8335 21.4558 11.5798 21.6965 11.5798 21.9933C11.5798 22.2902 11.8335 22.5308 12.1463 22.5308Z" fill="#F1EAE6"/>
<path d="M16.4373 22.5308C16.7502 22.5308 17.0038 22.2902 17.0038 21.9933C17.0038 21.6965 16.7502 21.4558 16.4373 21.4558C16.1245 21.4558 15.8708 21.6965 15.8708 21.9933C15.8708 22.2902 16.1245 22.5308 16.4373 22.5308Z" fill="#F1EAE6"/>
</g>
<defs>
<clipPath id="clip0_1905_17867">
<rect width="24" height="32" fill="white"/>
</clipPath>
</defs>
</svg>
