<svg width="24" height="24" viewBox="0 0 24 24" fill="none" xmlns="http://www.w3.org/2000/svg">
<path d="M18.4607 23.99C18.2102 23.8499 18.1301 23.6297 18.1301 23.3495C18.1401 21.8182 18.1301 20.2869 18.1301 18.7557C18.1301 18.2953 18.2904 18.1351 18.7512 18.1351C20.2837 18.1351 21.8163 18.1351 23.3388 18.1351C23.6293 18.1351 23.8396 18.2152 23.9799 18.4654C23.9799 20.3069 23.9799 22.1485 23.9799 23.99C22.1468 23.99 20.3037 23.99 18.4607 23.99Z" fill="#F1EAE6"/>
<path d="M23.9899 5.53461C23.8497 5.78482 23.6393 5.86489 23.3488 5.86489C21.8263 5.85488 20.3037 5.86489 18.7812 5.86489C18.2904 5.86489 18.1301 5.71476 18.1301 5.22436C18.1301 3.69308 18.1301 2.17181 18.1301 0.640533C18.1301 0.160133 18.2804 0.0100028 18.7612 0.0100028C20.2937 0.0100028 21.8163 0.0200167 23.3488 0C23.6393 0 23.8497 0.0800686 23.9899 0.330277C23.9899 2.07173 23.9899 3.80317 23.9899 5.53461Z" fill="#F1EAE6"/>
<path d="M0.330568 23.99C0.0801507 23.8499 0 23.6397 0 23.3495C0.0100167 21.8182 9.78215e-06 20.2769 0.0100265 18.7456C0.0100265 18.2953 0.170279 18.1351 0.62103 18.1351C2.1636 18.1351 3.70618 18.1351 5.25877 18.1351C5.70952 18.1351 5.8698 18.2953 5.8698 18.7657C5.8698 20.2969 5.85978 21.8182 5.8698 23.3495C5.8698 23.6397 5.78965 23.8499 5.53923 23.99C3.79633 23.99 2.06346 23.99 0.330568 23.99Z" fill="#F1EAE6"/>
<path d="M23.9901 12.8007C23.8398 13.0509 23.6094 13.141 23.3189 13.1209C22.9884 13.1009 22.6478 13.1209 22.3173 13.1209C21.9467 13.1109 21.7764 12.9408 21.7764 12.5705C21.7764 10.9892 21.7764 9.40785 21.7764 7.82653C21.7764 7.43621 21.9466 7.27607 22.3373 7.27607C22.6879 7.27607 23.0385 7.28608 23.3891 7.27607C23.6695 7.26606 23.8699 7.35614 24.0001 7.61636C23.9901 9.32779 23.9901 11.0592 23.9901 12.8007Z" fill="#F1EAE6"/>
<path d="M11.1987 23.99C10.9483 23.8399 10.8582 23.6097 10.8782 23.3194C10.8982 22.9891 10.8782 22.6489 10.8782 22.3186C10.8882 21.9483 11.0485 21.7781 11.4291 21.7781C13.0117 21.7781 14.5944 21.7781 16.177 21.7781C16.5676 21.7781 16.7279 21.9383 16.7279 22.3386C16.7279 22.6889 16.7179 23.0392 16.7279 23.3895C16.7379 23.6697 16.6478 23.8699 16.3874 24C14.6645 23.99 12.9316 23.99 11.1987 23.99Z" fill="#F1EAE6"/>
<path d="M23.99 16.4037C23.8598 16.6539 23.6695 16.754 23.379 16.744C23.0184 16.7239 22.6478 16.744 22.2771 16.7339C21.9466 16.7339 21.7663 16.5638 21.7663 16.2335C21.7563 15.8332 21.7563 15.4228 21.7663 15.0225C21.7763 14.6922 21.9466 14.5321 22.2872 14.5221C22.6578 14.5221 23.0184 14.5321 23.389 14.5121C23.6695 14.5021 23.8698 14.5922 23.99 14.8524C23.99 15.3728 23.99 15.8832 23.99 16.4037Z" fill="#F1EAE6"/>
<path d="M7.59274 23.99C7.34232 23.8599 7.24213 23.6597 7.25214 23.3795C7.27218 23.0192 7.25215 22.6489 7.26217 22.2785C7.26217 21.9483 7.43245 21.7681 7.76301 21.7681C8.16367 21.7581 8.57435 21.7581 8.97502 21.7681C9.29555 21.7781 9.46586 21.9383 9.46586 22.2585C9.47587 22.6288 9.45582 23.0092 9.47585 23.3795C9.48587 23.6597 9.38571 23.8599 9.13529 23.98C8.62444 23.99 8.10359 23.99 7.59274 23.99Z" fill="#F1EAE6"/>
<path d="M5.85976 2.93245C5.85976 3.70309 5.85976 4.47374 5.85976 5.25439C5.85976 5.69475 5.69948 5.8649 5.24872 5.8649C3.70615 5.8649 2.15359 5.8649 0.611018 5.8649C0.170283 5.8649 0.0100098 5.70476 0.0100098 5.25439C0.0100098 3.7131 0.0100098 2.1618 0.0100098 0.620519C0.0100098 0.170143 0.170262 0.0200195 0.621014 0.0200195C2.16359 0.0200195 3.71618 0.0200195 5.25875 0.0200195C5.7095 0.0200195 5.85977 0.180154 5.86978 0.630529C5.85977 1.39116 5.85976 2.16181 5.85976 2.93245Z" fill="#F1EAE6"/>
<path d="M17.429 16.734C16.6477 16.734 15.8664 16.734 15.0851 16.734C14.6744 16.734 14.5142 16.5738 14.5142 16.1735C14.5142 14.6022 14.5142 13.0409 14.5142 11.4696C14.5142 11.0592 14.6845 10.8891 15.1052 10.8891C16.6578 10.8891 18.2103 10.8891 19.7629 10.8891C20.1936 10.8891 20.3639 11.0592 20.3639 11.4896C20.3639 13.0409 20.3639 14.5922 20.3639 16.1535C20.3639 16.5838 20.2036 16.744 19.7729 16.744C18.9916 16.734 18.2103 16.734 17.429 16.734Z" fill="#F1EAE6"/>
<path d="M6.57089 7.26605C7.35219 7.26605 8.13349 7.26605 8.91479 7.26605C9.30544 7.26605 9.47573 7.42619 9.47573 7.81651C9.47573 9.39783 9.47573 10.9892 9.47573 12.5705C9.47573 12.9408 9.30545 13.1109 8.92482 13.1209C7.34218 13.1209 5.74953 13.1209 4.16689 13.1209C3.80629 13.1209 3.62598 12.9408 3.62598 12.5905C3.62598 10.9892 3.62598 9.38783 3.62598 7.78649C3.62598 7.4362 3.80628 7.27606 4.15686 7.27606C4.96821 7.26605 5.76955 7.26605 6.57089 7.26605Z" fill="#F1EAE6"/>
<path d="M10.1971 14.5221C10.9684 14.5221 11.7397 14.5221 12.521 14.5221C12.9617 14.5221 13.122 14.6822 13.122 15.1126C13.122 16.6639 13.122 18.2152 13.122 19.7765C13.122 20.1968 12.9517 20.377 12.531 20.377C10.9784 20.377 9.42583 20.377 7.87324 20.377C7.44252 20.377 7.28223 20.2168 7.28223 19.7765C7.28223 18.2252 7.28223 16.6739 7.28223 15.1126C7.28223 14.6722 7.4325 14.5221 7.87324 14.5221C8.63451 14.5221 9.41579 14.5221 10.1971 14.5221Z" fill="#F1EAE6"/>
<path d="M16.7379 6.54549C16.7379 7.33615 16.7379 8.12681 16.7379 8.90746C16.7379 9.3178 16.5777 9.47793 16.177 9.47793C14.6044 9.47793 13.0418 9.47793 11.4692 9.47793C11.0585 9.47793 10.8882 9.3178 10.8882 8.89745C10.8882 7.34615 10.8882 5.79486 10.8882 4.24357C10.8882 3.81321 11.0585 3.64307 11.4792 3.64307C13.0318 3.64307 14.5844 3.64307 16.137 3.64307C16.5777 3.64307 16.7279 3.8032 16.7379 4.23355C16.7379 5.0042 16.7379 5.77484 16.7379 6.54549Z" fill="#F1EAE6"/>
<path d="M10.167 2.23186C9.40577 2.23186 8.63451 2.23186 7.87324 2.23186C7.41247 2.23186 7.26221 2.08174 7.26221 1.61135C7.26221 1.24104 7.26221 0.880735 7.26221 0.510427C7.26221 0.200168 7.4425 0.0100098 7.75302 0.0100098C9.3657 0.0100098 10.9784 0.0100098 12.6011 0.0100098C12.9116 0.0100098 13.1019 0.190165 13.112 0.500424C13.122 0.910766 13.122 1.33111 13.112 1.74146C13.1019 2.07173 12.9116 2.23186 12.551 2.23186C11.7597 2.23186 10.9584 2.23186 10.167 2.23186Z" fill="#F1EAE6"/>
<path d="M2.22371 13.8316C2.22371 14.6022 2.22371 15.3728 2.22371 16.1435C2.22371 16.5838 2.06344 16.734 1.63273 16.734C1.26211 16.734 0.901502 16.734 0.530884 16.734C0.190316 16.734 0 16.5538 0 16.2235C0 14.6222 0 13.0109 0 11.4095C0 11.0893 0.18031 10.8991 0.510861 10.8991C0.911529 10.8891 1.30218 10.8891 1.70285 10.8991C2.04342 10.9091 2.21368 11.0893 2.21368 11.4295C2.2237 12.2202 2.22371 13.0209 2.22371 13.8316Z" fill="#F1EAE6"/>
<path d="M10.8882 12C10.8882 11.7999 10.8782 11.5897 10.8882 11.3895C10.8983 11.0793 11.0786 10.8991 11.3891 10.8891C11.7897 10.8791 12.2005 10.8791 12.6011 10.8891C12.9217 10.8991 13.1019 11.0793 13.1119 11.4095C13.122 11.8099 13.122 12.2002 13.1119 12.6005C13.1019 12.9208 12.9217 13.111 12.6011 13.111C12.2005 13.121 11.8098 13.121 11.4091 13.111C11.0786 13.1009 10.8983 12.9208 10.8882 12.5805C10.8782 12.3904 10.8882 12.1902 10.8882 12Z" fill="#F1EAE6"/>
<path d="M19.2722 7.26605C19.4725 7.26605 19.6729 7.26605 19.8832 7.26605C20.1637 7.27606 20.354 7.42619 20.364 7.70642C20.3841 8.14679 20.3841 8.59717 20.364 9.03753C20.354 9.31777 20.1637 9.4779 19.8933 9.4779C19.4726 9.48791 19.0518 9.48791 18.6311 9.4779C18.3507 9.4779 18.1604 9.29775 18.1503 9.00751C18.1403 8.58716 18.1403 8.16681 18.1503 7.74646C18.1604 7.44621 18.3507 7.27606 18.6412 7.26605C18.6612 7.26605 18.6712 7.26605 18.6912 7.26605C18.8816 7.26605 19.0719 7.26605 19.2722 7.26605Z" fill="#F1EAE6"/>
<path d="M4.74794 16.7339C4.53759 16.7339 4.32727 16.7339 4.11691 16.7339C3.83645 16.7239 3.65615 16.5638 3.64613 16.2936C3.6261 15.8532 3.6261 15.4028 3.64613 14.9625C3.65615 14.6922 3.83644 14.5321 4.10689 14.5321C4.53761 14.5221 4.96832 14.5221 5.38902 14.5321C5.65948 14.5321 5.84979 14.7123 5.85981 14.9825C5.86983 15.4229 5.86983 15.8532 5.85981 16.2936C5.84979 16.5638 5.65948 16.7239 5.38902 16.7439C5.36899 16.7439 5.35899 16.7439 5.33895 16.7439C5.1286 16.7339 4.93826 16.7339 4.74794 16.7339Z" fill="#F1EAE6"/>
<path d="M16.7378 19.2561C16.7378 19.4562 16.7378 19.6564 16.7378 19.8666C16.7278 20.1568 16.5875 20.337 16.3071 20.347C15.8563 20.367 15.4056 20.367 14.9548 20.347C14.6844 20.337 14.5341 20.1468 14.5341 19.8766C14.5241 19.4562 14.5241 19.0359 14.5341 18.6155C14.5441 18.3153 14.7244 18.1351 15.0249 18.1351C15.4356 18.1251 15.8563 18.1251 16.267 18.1351C16.5675 18.1451 16.7378 18.3253 16.7478 18.6255C16.7478 18.6456 16.7478 18.6556 16.7478 18.6756C16.7378 18.8757 16.7378 19.0659 16.7378 19.2561Z" fill="#F1EAE6"/>
<path d="M7.26202 4.71396C7.26202 4.5238 7.26202 4.32363 7.26202 4.13347C7.27204 3.84323 7.43232 3.65307 7.71278 3.64307C8.15352 3.63306 8.58423 3.63306 9.02497 3.64307C9.30544 3.65307 9.46569 3.83323 9.4757 4.11346C9.48572 4.53381 9.48572 4.95415 9.4757 5.3745C9.4757 5.66475 9.29541 5.8449 9.01494 5.85491C8.58422 5.86492 8.15351 5.86492 7.73281 5.85491C7.45234 5.8449 7.28206 5.65474 7.27205 5.3745C7.25201 5.15432 7.26202 4.93414 7.26202 4.71396Z" fill="#F1EAE6"/>
<path d="M14.5242 1.11093C14.5242 0.900757 14.5142 0.690576 14.5242 0.480401C14.5342 0.210176 14.7045 0.0300268 14.985 0.0200185C15.4157 0.0100101 15.8464 0.0100101 16.2671 0.0200185C16.5476 0.0300268 16.7279 0.21018 16.7379 0.500422C16.7479 0.920773 16.7479 1.34112 16.7379 1.76147C16.7379 2.0417 16.5676 2.22185 16.2872 2.23186C15.8464 2.24187 15.4157 2.24187 14.975 2.23186C14.6845 2.22185 14.5342 2.0417 14.5242 1.74145C14.5242 1.72144 14.5242 1.71143 14.5242 1.69141C14.5242 1.49124 14.5242 1.30109 14.5242 1.11093Z" fill="#F1EAE6"/>
<path d="M1.10177 9.4779C0.89142 9.4779 0.681064 9.48791 0.470713 9.4779C0.200263 9.46789 0.00995393 9.29774 0.00995393 9.01751C-6.27681e-05 8.58715 -6.27681e-05 8.15679 0.00995393 7.73644C0.0199706 7.45621 0.200252 7.27606 0.490736 7.26605C0.911437 7.25604 1.33215 7.25604 1.75285 7.26605C2.03332 7.26605 2.21362 7.4362 2.22364 7.71643C2.23365 8.1568 2.23365 8.58715 2.22364 9.02752C2.21362 9.30775 2.04334 9.46789 1.76288 9.4779C1.53249 9.48791 1.31212 9.4779 1.10177 9.4779Z" fill="#F1EAE6"/>
</svg>
