<svg width="25" height="24" viewBox="0 0 25 24" fill="none" xmlns="http://www.w3.org/2000/svg">
<path d="M19.363 24C17.1639 24 14.9648 24 12.7557 24C12.7557 23.49 12.7557 22.98 12.7557 22.46C11.7361 22.46 10.7565 22.46 9.73697 22.46C9.88691 22.98 10.0268 23.49 10.1768 24C9.39711 24 8.61744 24 7.83776 24C7.64784 23.38 7.46792 22.76 7.278 22.14C7.23802 22.03 7.17803 21.91 7.09807 21.82C6.79819 21.48 6.61827 21.09 6.58828 20.64C6.57829 20.4701 6.58828 20.3 6.58828 20.1201C5.81861 20.1201 5.04893 20.12 4.27925 20.13C4.22927 20.13 4.1393 20.2201 4.11931 20.2801C4.02935 20.54 3.95937 20.8 3.87941 21.06C3.58953 22.04 3.29966 23.02 3.01978 23.99C2.2401 23.99 1.46042 23.99 0.680742 23.99C0.690738 23.91 0.700742 23.84 0.720734 23.76C1.02061 22.74 1.33048 21.71 1.64035 20.6901C1.69033 20.5101 1.7503 20.3201 1.81028 20.1101C1.63035 20.1101 1.48041 20.1101 1.34047 20.1101C0.680745 20.1101 0.400859 19.8301 0.400859 19.1701C0.400859 14.9101 0.410861 10.6602 0.390869 6.40025C0.390869 5.77026 0.70073 5.40027 1.38045 5.40027C4.01935 5.42027 6.65826 5.41026 9.29716 5.41026C9.54706 5.41026 9.78695 5.41026 10.0668 5.41026C10.8865 3.60029 12.3259 2.55031 14.3551 2.32031C14.3651 2.27031 14.375 2.23032 14.385 2.20032C14.7049 0.810338 15.7545 -0.0196463 17.1839 0.000353411C18.0535 0.0103533 18.8932 0.170351 19.6928 0.500346C20.1526 0.690343 20.5925 0.930334 21.0523 1.15033C21.0523 1.15033 21.0722 1.14033 21.0922 1.12033C21.752 0.630339 22.5816 0.660335 23.1414 1.21033C23.7012 1.75032 23.7711 2.58031 23.2913 3.2603C23.2114 3.3703 23.2414 3.43029 23.3013 3.52029C23.6712 4.12028 23.9611 4.76028 24.131 5.45027C24.2409 5.89026 24.3009 6.35025 24.3909 6.80024C24.3909 7.10024 24.3909 7.39025 24.3909 7.69024C24.3809 7.73024 24.3609 7.76023 24.3509 7.80023C24.201 8.66021 23.7311 9.30021 22.9715 9.73021C22.8315 9.81021 22.8415 9.9002 22.8415 10.0202C22.8415 11.3702 22.8515 12.7202 22.8415 14.0701C22.8315 15.1001 22.4317 15.9601 21.662 16.6501C21.3921 16.8901 21.0922 17.0901 20.8423 17.3501C20.7024 17.5001 20.5725 17.7001 20.5425 17.9001C20.4625 18.2801 20.7024 18.5401 21.0023 18.7501C21.3721 19.0001 21.682 19.2901 21.8719 19.7101C22.5616 21.24 21.3721 22.56 20.2026 22.78C19.9227 22.83 19.6329 22.83 19.333 22.86C19.333 23.24 19.353 23.62 19.363 24ZM4.26926 17.8001C4.26926 17.5301 4.27924 17.2701 4.25925 17.0201C4.24926 16.9201 4.18928 16.7901 4.11931 16.7301C2.15013 15.1801 1.45042 12.7602 2.32006 10.4202C2.37004 10.2802 2.34005 10.2102 2.24009 10.1202C2.04017 9.9502 1.86026 9.76021 1.67034 9.59021C1.88025 9.38021 2.05017 9.20021 2.24009 9.01022C2.40002 9.18021 2.54997 9.35021 2.72989 9.54021C2.90982 9.27021 3.06975 9.03022 3.24968 8.75023C2.97979 8.50023 2.7099 8.26022 2.48 8.05022C2.66992 7.85023 2.83985 7.68024 3.05976 7.45024C3.24968 7.67024 3.44959 7.89023 3.6695 8.13022C3.99937 7.63023 4.31923 7.15024 4.66909 6.63025C5.40878 7.79023 6.16846 8.87021 6.80819 10.0202C7.43793 11.1602 7.5279 12.4202 7.18804 13.6801C7.0481 14.1901 6.82818 14.6801 6.64826 15.1601C6.63826 15.1701 6.65826 15.1601 6.66825 15.1501C7.55788 14.5401 8.43752 14.5601 9.32715 15.1701C9.4371 15.2401 9.53706 15.3101 9.65701 15.3801C9.65701 12.3002 9.65701 9.25021 9.65701 6.20026C6.82819 6.20026 4.00936 6.20026 1.18053 6.20026C1.18053 10.5802 1.18053 14.9501 1.18053 19.3301C3.11973 19.3301 5.04892 19.3301 7.00811 19.3301C6.86817 19.1201 6.73822 18.9501 6.62826 18.7601C6.5483 18.6101 6.43836 18.5701 6.26843 18.5701C4.91899 18.5801 3.56955 18.5701 2.22011 18.5701C2.13015 18.5701 2.04018 18.5701 1.95022 18.5701C1.95022 18.2901 1.95022 18.0601 1.95022 17.8001C2.72989 17.8001 3.47959 17.8001 4.26926 17.8001ZM17.4238 10.8202C17.4038 10.4702 17.4038 10.1502 17.5837 9.8502C17.7636 9.5502 18.0435 9.39021 18.3734 9.29021C18.0235 9.06021 17.6937 8.84022 17.3538 8.64023C17.2439 8.57023 17.1039 8.52022 16.974 8.52022C16.1743 8.51022 15.3846 8.50022 14.585 8.52022C13.7153 8.54022 12.9956 8.26023 12.4558 7.56024C12.4458 7.55024 12.4259 7.55024 12.4059 7.54024C12.176 7.85023 12.026 8.20022 12.026 8.60022C12.026 9.8102 11.996 11.0202 12.036 12.2302C12.066 13.0502 12.3259 13.8101 13.0256 14.3401C13.1156 14.4101 13.1755 14.5001 13.2455 14.5801C13.3555 14.6901 13.4554 14.8101 13.5854 14.9001C13.9852 15.1801 14.435 15.3901 14.9248 15.4201C15.6845 15.4701 16.4542 15.4901 17.2139 15.4701C18.8032 15.4301 20.2326 14.2201 20.4525 12.6402C20.5725 11.8002 20.5125 10.9302 20.5225 10.0702C20.5225 10.0302 20.4725 9.9602 20.4425 9.9502C20.1526 9.88021 19.8528 9.8202 19.5429 9.7602C19.7628 10.1802 19.8128 10.4202 19.7328 10.8202C19.4929 10.8202 19.243 10.8202 18.9931 10.8202C18.9531 10.5202 19.0831 10.1002 18.6133 10.0902C18.1035 10.0802 18.2434 10.5202 18.2034 10.8302C17.9236 10.8202 17.6937 10.8202 17.4238 10.8202ZM21.672 2.7103C19.363 2.7203 17.2838 3.3703 15.4046 4.64028C16.0144 6.81025 17.9236 8.51022 19.7528 8.98022C21.0023 7.09025 21.652 5.02027 21.672 2.7103ZM11.7061 13.9501C11.2863 13.1602 11.2064 12.3402 11.2164 11.4902C11.2264 10.6002 11.2264 9.7102 11.2164 8.82022C11.2164 8.07023 11.4363 7.41023 11.9461 6.85024C12.006 6.78024 12.016 6.66025 12.016 6.56025C12.026 6.19026 12.016 5.82026 12.016 5.43027C12.2559 5.43027 12.4858 5.43027 12.7557 5.43027C12.7557 5.69026 12.7457 5.94026 12.7557 6.18025C12.7757 7.07024 13.4454 7.72024 14.3251 7.73024C14.9148 7.73024 15.4946 7.73024 16.0843 7.73024C16.1443 7.73024 16.1943 7.72023 16.2842 7.71023C15.6845 7.05024 15.2347 6.35025 14.8948 5.57026C14.565 4.79028 14.385 3.97029 14.3151 3.1203C14.1751 3.1303 14.0752 3.1403 13.9652 3.1603C11.8761 3.55029 10.4467 5.26028 10.4367 7.39024C10.4267 9.83021 10.4367 12.2602 10.4367 14.7001C10.4367 14.7601 10.4467 14.8301 10.4567 14.9601C10.7465 14.3901 11.1364 14.0701 11.7061 13.9501ZM7.58787 18.8101C8.54747 18.3901 9.36713 18.5601 10.1068 19.2201C10.1568 19.2601 10.2668 19.2801 10.3267 19.2601C11.0864 19.0801 11.8361 18.8801 12.5958 18.7001C12.7257 18.6701 12.7657 18.6101 12.7657 18.4801C12.7657 17.4901 12.7657 16.5001 12.7557 15.5101C12.7557 15.1201 12.5058 14.8101 12.146 14.7201C11.7861 14.6301 11.4263 14.8001 11.2363 15.1401C11.1564 15.2801 11.0964 15.4201 11.0264 15.5601C10.6566 16.2501 9.8969 16.4501 9.23718 16.0301C9.04725 15.9101 8.86734 15.7701 8.66742 15.6601C8.12765 15.3501 7.44793 15.4301 7.00811 15.8701C6.56829 16.3001 6.43834 16.9701 6.73822 17.5001C6.99811 17.9601 7.29799 18.3701 7.58787 18.8101ZM17.8536 19.4101C18.4633 20.2 18.8932 21.03 19.1331 21.96C19.1431 22 19.213 22.06 19.263 22.06C19.7128 22.08 20.1526 22.06 20.5525 21.81C21.4821 21.21 21.5321 20.13 20.6524 19.4601C20.5625 19.3901 20.4625 19.3201 20.3725 19.2501C19.5429 18.5901 19.5229 17.4401 20.3226 16.7501C20.5425 16.5601 20.7724 16.3701 21.0023 16.1801C21.702 15.6001 22.0518 14.8701 22.0518 13.9501C22.0518 12.7202 22.0518 11.5002 22.0518 10.2702C22.0518 10.1902 22.0419 10.1202 22.0419 10.0502C21.782 10.0502 21.5421 10.0502 21.2822 10.0502C21.2822 10.7302 21.2922 11.3902 21.2822 12.0502C21.2622 13.1201 20.8823 14.0601 20.1626 14.8601C19.6628 15.4101 19.0531 15.7901 18.3534 16.0401C18.3734 16.0801 18.3934 16.1001 18.4134 16.1301C19.193 17.0501 19.1431 18.1601 18.3034 19.0101C18.1635 19.1501 18.0135 19.2701 17.8536 19.4101ZM14.2951 18.3701C14.0352 18.6301 13.7753 18.9101 13.4954 19.1701C13.4054 19.2601 13.2855 19.3301 13.1655 19.3601C12.2759 19.5901 11.3763 19.7901 10.4967 20.0401C10.1068 20.15 9.81694 20.15 9.56704 19.8C9.48707 19.6901 9.34714 19.6001 9.2172 19.5301C8.86734 19.3401 8.49749 19.2801 8.11765 19.4201C7.59786 19.6101 7.30798 20.1201 7.37795 20.6901C7.44792 21.2 7.88774 21.61 8.42752 21.66C8.48749 21.67 8.54747 21.67 8.61744 21.67C10.3067 21.67 11.986 21.67 13.6753 21.67C14.1651 21.67 14.6249 21.55 14.9948 21.21C15.3746 20.86 15.7145 20.48 16.0643 20.1201C15.4846 19.5501 14.8948 18.9701 14.2951 18.3701ZM5.04893 11.6202C5.04893 13.0202 5.04893 14.4101 5.04893 15.8301C5.10891 15.7801 5.1389 15.7601 5.15889 15.7401C6.61828 14.3601 7.0281 12.0802 6.08849 10.2902C5.77862 9.6902 5.3688 9.14021 4.99895 8.57022C4.889 8.40022 4.77904 8.24022 4.64909 8.05022C4.49915 8.28022 4.35921 8.48022 4.19928 8.73022C4.44918 8.95022 4.67909 9.17021 4.90899 9.37021C4.70907 9.57021 4.53914 9.7402 4.32923 9.9602C4.14931 9.7702 3.96938 9.57021 3.76947 9.37021C3.60953 9.62021 3.45959 9.8602 3.27967 10.1302C3.56954 10.4102 3.84943 10.6802 4.10932 10.9202C3.9294 11.1202 3.75946 11.3002 3.55955 11.5202C3.36963 11.3002 3.1897 11.1002 2.99978 10.8802C2.31007 12.2902 3.03977 15.1201 4.27925 15.8001C4.27925 14.4001 4.27925 13.0202 4.27925 11.6202C4.52915 11.6202 4.76905 11.6202 5.04893 11.6202ZM18.5633 23.2C18.4733 22 18.0635 20.95 17.3338 19.99C17.2638 20.05 17.2139 20.1 17.1539 20.16C16.6841 20.63 16.2043 21.11 15.7345 21.58C15.3446 21.98 14.8848 22.26 14.3351 22.37C14.0852 22.42 13.8253 22.43 13.5754 22.46C13.5754 22.7 13.5754 22.94 13.5754 23.19C15.2347 23.2 16.884 23.2 18.5633 23.2ZM20.7624 1.97033C20.7024 1.92033 20.6824 1.90032 20.6624 1.88032C19.5429 1.14033 18.3034 0.760341 16.954 0.780341C16.5341 0.790341 16.1643 0.930332 15.8344 1.18033C15.1247 1.73032 14.8548 2.8603 15.2247 3.82029C16.914 2.7503 18.7432 2.14032 20.7624 1.97033ZM22.4117 3.5903C22.2418 5.64027 21.622 7.48024 20.5225 9.21021C20.9423 9.24021 21.3221 9.28022 21.702 9.28022C22.5816 9.28022 23.3313 8.68023 23.5412 7.83024C23.6812 7.26025 23.5912 6.70025 23.4912 6.14026C23.3213 5.23028 22.9715 4.41028 22.4117 3.5903ZM16.6641 19.5601C17.0339 19.1901 17.4038 18.8201 17.7736 18.4501C17.8236 18.3901 17.8836 18.3401 17.9336 18.2801C18.3134 17.7901 18.2834 17.1001 17.8536 16.6501C17.4338 16.2001 16.7041 16.0901 16.2443 16.4901C15.7745 16.9001 15.3846 17.4001 14.9648 17.8501C15.4846 18.3801 16.0643 18.9601 16.6641 19.5601ZM1.69033 23.22C1.89025 23.22 2.06018 23.21 2.22011 23.22C2.39004 23.24 2.45 23.16 2.48999 23.01C2.74988 22.11 3.01977 21.22 3.28966 20.3301C3.30965 20.2701 3.31965 20.2001 3.33964 20.1201C3.12973 20.1201 2.9498 20.1301 2.77987 20.1201C2.64993 20.1101 2.59994 20.1701 2.56995 20.2801C2.49998 20.54 2.42002 20.8 2.34005 21.06C2.12015 21.77 1.91024 22.48 1.69033 23.22ZM5.95854 17.8001C5.90856 17.4901 5.8286 17.2101 5.8186 16.9201C5.80861 16.6401 5.88858 16.3501 5.91857 16.1001C5.66867 16.3201 5.38879 16.5501 5.10891 16.7901C5.06892 16.8201 5.02894 16.8801 5.02894 16.9201C5.01894 17.2101 5.02894 17.5101 5.02894 17.8101C5.3688 17.8001 5.66866 17.8001 5.95854 17.8001ZM22.7416 2.64031C22.9015 2.32032 22.8315 1.96033 22.5416 1.72033C22.2818 1.50033 21.9319 1.48033 21.752 1.64033C22.0818 1.97032 22.4117 2.31032 22.7416 2.64031ZM15.0847 16.4201C14.3251 16.5801 13.6254 17.2701 13.6154 17.8901C14.1052 17.4101 14.6049 16.9101 15.0847 16.4201ZM8.18763 22.43C8.26759 22.68 8.32756 22.9 8.39753 23.11C8.40753 23.15 8.46751 23.21 8.49749 23.21C8.70741 23.22 8.92731 23.21 9.16721 23.21C9.07725 22.93 9.04726 22.65 8.89732 22.48C8.79736 22.37 8.51748 22.44 8.31756 22.43C8.27758 22.43 8.2476 22.43 8.18763 22.43ZM14.0452 16.0101C13.8653 15.9401 13.7153 15.8701 13.5554 15.8101C13.5554 16.0101 13.5554 16.1901 13.5554 16.3901C13.7253 16.2601 13.8753 16.1501 14.0452 16.0101Z" fill="#702B21"/>
<path d="M15.1047 13.9201C15.1047 13.6601 15.1047 13.4301 15.1047 13.1701C15.3846 13.1701 15.6445 13.1701 15.9144 13.1701C16.0843 13.1701 16.2542 13.1701 16.4242 13.1701C17.0439 13.1701 17.2638 13.0001 17.4238 12.4001C17.6637 12.4001 17.9136 12.4001 18.1535 12.4001C18.2134 13.1101 17.5837 13.8601 16.844 13.9101C16.2842 13.9501 15.7045 13.9201 15.1047 13.9201Z" fill="#702B21"/>
<path d="M13.5454 10.8202C13.2856 10.8202 13.0456 10.8202 12.8057 10.8202C12.6858 10.3002 12.8557 9.7902 13.2656 9.51021C13.6654 9.23021 14.0952 9.20021 14.515 9.45021C15.0348 9.7502 15.1448 10.2402 15.0848 10.8202C14.8349 10.8202 14.585 10.8202 14.3351 10.8202C14.2751 10.5202 14.4251 10.0702 13.9153 10.0802C13.4455 10.0902 13.5754 10.5102 13.5454 10.8202Z" fill="#702B21"/>
</svg>
