<svg width="25" height="24" viewBox="0 0 25 24" fill="none" xmlns="http://www.w3.org/2000/svg">
<path d="M24.3709 3.64624C24.271 3.90669 24.2011 4.18717 24.0713 4.42758C23.8515 4.85831 23.492 5.00857 23.0226 4.92844C19.7467 4.38751 16.4508 4.12706 13.135 4.12706C9.21993 4.12706 5.29486 4.11705 1.37978 4.13709C0.940336 4.13709 0.720614 3.89667 0.530852 3.59615C0.331103 3.29564 0.430974 3.00515 0.620736 2.72467C0.890397 2.32398 1.16006 1.9233 1.43971 1.49256C1.20001 1.37235 0.980283 1.26217 0.760559 1.15198C0.341086 0.941621 0.261185 0.310532 0.610746 0C0.690646 0 0.770548 0 0.840461 0C0.910373 0.0300514 0.980284 0.0701164 1.0502 0.0901507C2.64819 0.601025 4.29612 0.831425 5.96402 0.831425C11.517 0.831425 17.0701 0.831431 22.6231 0.821414C23.0026 0.821414 23.3022 0.94161 23.5719 1.172C23.9115 1.4625 24.1412 1.82313 24.271 2.26389C24.301 2.36406 24.3309 2.47424 24.3609 2.57441C24.3709 2.92501 24.3709 3.28562 24.3709 3.64624Z" fill="#702B21"/>
<path d="M24.3709 12.1308C24.281 12.2109 24.2011 12.3211 24.1012 12.3712C23.8316 12.4914 23.5619 12.291 23.5519 11.9705C23.5419 11.6599 23.5519 11.3494 23.5519 11.0289C23.5519 10.9487 23.5519 10.8586 23.5519 10.7684C23.2723 10.7684 23.0126 10.7684 22.7629 10.7684C22.7629 11.2793 22.713 11.7802 22.7729 12.271C22.8428 12.7819 23.2223 13.0924 23.7816 13.2427C23.6518 13.2827 23.5919 13.3028 23.522 13.3128C23.4421 13.3328 23.3722 13.3328 23.2923 13.3428C22.2835 13.413 21.2748 13.4731 20.2661 13.5432C18.4683 13.6634 16.6806 13.7836 14.8828 13.9038C14.0938 13.9539 13.2948 14.014 12.5058 14.054C12.2062 14.0741 12.0464 13.9539 12.0064 13.7235C11.9365 13.3528 12.0564 13.1225 12.356 13.0323C15.9015 12.0206 19.4471 10.9988 22.9926 9.98709C23.6318 9.80678 24.0313 10.0171 24.3909 10.7284C24.3709 11.1992 24.3709 11.6599 24.3709 12.1308Z" fill="#702B21"/>
<path d="M2.09886 4.95849C2.19873 4.95849 2.27863 4.95849 2.36852 4.95849C6.26362 4.95849 10.1587 4.94849 14.0538 4.96852C16.311 4.97854 18.5682 5.15884 20.8153 5.44934C20.8952 5.45936 20.9651 5.47938 21.055 5.4894C21.055 5.56954 21.065 5.62965 21.065 5.69977C21.065 6.94189 21.065 8.18402 21.075 9.42615C21.075 9.61647 21.0251 9.6966 20.8353 9.74669C17.929 10.5681 15.0226 11.3995 12.1262 12.231C11.6469 12.3712 11.2973 12.6617 11.2074 13.1625C11.1075 13.6934 11.1475 14.2143 11.5969 14.605C11.8466 14.8154 12.1362 14.9155 12.4658 14.8955C14.1737 14.7853 15.8815 14.6651 17.5994 14.5449C18.728 14.4648 19.8565 14.3947 20.9751 14.3245C20.6655 14.625 20.3559 14.9256 20.0163 15.2461C20.3459 15.5767 20.5956 15.8371 20.8553 16.0775C21.0151 16.2278 21.085 16.3981 21.075 16.6185C21.065 17.3197 21.085 18.0209 21.065 18.7321C21.0251 19.834 20.1062 20.6954 19.0176 20.6854C18.3584 20.6854 17.8091 20.1645 17.7891 19.5234C17.7592 18.8323 18.2486 18.2713 18.9177 18.2112C19.2074 18.1811 19.4171 18.3414 19.4271 18.6019C19.4371 18.8523 19.2573 19.0326 18.9577 19.0326C18.8478 19.0326 18.7379 19.0326 18.6181 19.0326C18.6181 19.3131 18.6181 19.5735 18.6181 19.834C19.2073 19.9642 19.7666 19.7438 20.0563 19.293C20.3459 18.8523 20.316 18.2913 19.9964 17.8706C19.7267 17.52 19.3671 17.3697 18.9377 17.3898C17.6693 17.4399 16.4009 17.5 15.1325 17.5501C13.4945 17.6202 11.8466 17.6903 10.2087 17.7704C7.83165 17.8706 5.46463 17.9808 3.08761 18.081C2.76801 18.091 2.44842 18.081 2.09886 18.081C2.09886 18.0108 2.09886 17.9307 2.09886 17.8405C2.09886 15.4765 2.09885 13.1225 2.10884 10.7584C2.10884 10.5881 2.17876 10.3878 2.26864 10.2375C2.52832 9.8068 2.81795 9.38607 3.12756 8.9353C2.87788 8.80508 2.63817 8.68488 2.39848 8.56467C2.20871 8.47452 2.10884 8.33428 2.10884 8.12392C2.10884 7.10217 2.10884 6.08043 2.10884 5.04866C2.07888 5.02862 2.08887 5.00858 2.09886 4.95849ZM7.8716 6.4811C7.75175 6.34086 7.67185 6.25071 7.59195 6.17057C7.34227 5.91013 7.03265 5.77991 6.6731 5.77991C5.74427 5.77991 4.81544 5.77991 3.8866 5.77991C3.84665 5.77991 3.79672 5.78992 3.74678 5.78992C3.74678 6.06038 3.74678 6.32083 3.74678 6.59129C4.54578 6.59129 5.3248 6.62135 6.10382 6.58128C6.64314 6.55123 7.05262 6.68145 7.38221 7.11219C7.51205 7.28248 7.68184 7.42272 7.86161 7.61305C8.12128 7.33257 8.38096 7.08213 8.62066 6.82168C8.77047 6.65139 8.95024 6.59129 9.17995 6.59129C10.8379 6.60131 12.4958 6.59129 14.1637 6.59129C14.2536 6.59129 14.3435 6.59129 14.4433 6.59129C14.4433 6.3008 14.4433 6.04035 14.4433 5.77991C12.5757 5.77991 10.728 5.76988 8.89032 5.78992C8.65062 5.78992 8.41092 5.98025 8.1912 6.11047C8.06136 6.20063 7.99145 6.33085 7.8716 6.4811ZM3.74678 9.07554C7.32229 9.07554 10.8778 9.07554 14.4433 9.07554C14.4433 8.80508 14.4433 8.54464 14.4433 8.28419C10.8678 8.28419 7.3123 8.28419 3.74678 8.28419C3.74678 8.55466 3.74678 8.80508 3.74678 9.07554ZM3.74678 11.5598C6.21368 11.5598 8.6706 11.5598 11.1475 11.5598C11.1475 11.2893 11.1475 11.0289 11.1475 10.7684C8.6706 10.7684 6.21368 10.7684 3.74678 10.7684C3.74678 11.0389 3.74678 11.2994 3.74678 11.5598ZM9.48956 14.0441C9.48956 13.7736 9.48956 13.5131 9.48956 13.2527C7.57197 13.2527 5.65439 13.2527 3.7368 13.2527C3.7368 13.5232 3.7368 13.7836 3.7368 14.0441C5.66438 14.0441 7.56199 14.0441 9.48956 14.0441Z" fill="#702B21"/>
<path d="M17.2598 18.2913C16.7804 19.4233 16.8603 20.2747 17.5594 20.9158C18.4783 21.7673 19.487 21.607 20.5057 21.1061C20.326 21.4267 19.8166 21.7272 19.3072 21.7873C17.5394 22.0277 15.7717 22.2581 14.0039 22.4885C12.356 22.7089 10.718 22.9192 9.07009 23.1396C7.4721 23.35 5.87411 23.5503 4.27612 23.7607C3.72681 23.8308 3.1775 23.9009 2.62819 23.9811C1.80922 24.1013 1.09012 23.6405 0.880387 22.8491C0.730575 22.2881 0.580757 21.7172 0.460908 21.1462C0.241184 20.0443 1.08014 18.9925 2.19873 18.9424C4.81544 18.8222 7.43215 18.7221 10.0489 18.6018C12.356 18.5017 14.673 18.3915 16.9801 18.2913C17.07 18.2813 17.1599 18.2913 17.2598 18.2913Z" fill="#702B21"/>
</svg>
