<svg width="14" height="15" viewBox="0 0 14 15" fill="none" xmlns="http://www.w3.org/2000/svg">
<path d="M6.88086 0.00585938C9.08249 0.117355 10.833 1.93765 10.833 4.16699L10.8281 4.38086C10.7532 5.8605 9.90575 7.13481 8.68164 7.8125C9.69053 8.1324 10.6186 8.69001 11.3809 9.45215C12.6311 10.7024 13.333 12.3989 13.333 14.167H0C2.66966e-07 12.399 0.702008 10.7024 1.95215 9.45215C2.71413 8.69016 3.64267 8.13333 4.65137 7.81348C3.42777 7.13554 2.58078 5.86026 2.50586 4.38086L2.5 4.16699C2.5 1.86591 4.36595 0.000164177 6.66699 0L6.88086 0.00585938ZM6.66699 9.5C5.42943 9.50009 4.24228 9.99209 3.36719 10.8672C2.98589 11.2485 2.67693 11.6889 2.4502 12.167H10.8828C10.6561 11.689 10.3479 11.2484 9.9668 10.8672C9.09172 9.9922 7.90448 9.50009 6.66699 9.5ZM6.66699 2C5.47051 2.00016 4.5 2.97048 4.5 4.16699C4.50018 5.36336 5.47062 6.33284 6.66699 6.33301C7.86335 6.33283 8.83283 5.36335 8.83301 4.16699C8.83301 2.97048 7.86346 2.00018 6.66699 2Z" fill="#702B21"/>
</svg>
