<svg width="24" height="24" viewBox="0 0 24 24" fill="none" xmlns="http://www.w3.org/2000/svg">
<path d="M24 16.5414C24 17.9906 24 19.4499 24 20.8991C23.96 21.099 23.93 21.2989 23.88 21.4888C23.4901 22.978 22.1803 23.9775 20.6105 23.9775C18.0209 23.9775 15.4213 23.9775 12.8316 23.9775C12.3317 23.9775 11.8518 23.8976 11.3918 23.7176C11.3318 23.6977 11.2319 23.7376 11.1619 23.7676C10.9719 23.8376 10.7819 23.9875 10.592 23.9875C8.43227 24.0075 6.26259 23.9975 4.09291 23.9975C3.65297 23.9975 3.36301 23.7376 3.34302 23.2979C3.31302 22.4183 2.94308 21.7187 2.31317 21.119C0.843383 19.7397 0.0534966 18.0206 0.00350395 16.0117C-0.0664858 13.5429 0.913371 11.534 2.82309 9.99479C3.27303 9.62499 3.493 9.18521 3.493 8.60552C3.483 6.04685 3.49299 3.47819 3.483 0.919521C3.483 0.489745 3.61298 0.179906 4.01292 0C6.2126 0 8.42227 0 10.622 0C11.0419 0.149922 11.1919 0.459761 11.1819 0.899532C11.1619 1.42926 11.1819 1.95898 11.1819 2.4887C11.1819 2.60864 11.1819 2.72858 11.1819 2.86851C11.2719 2.85851 11.3219 2.84852 11.3818 2.83852C12.4817 2.63863 13.5915 2.60864 14.6914 2.74857C16.831 3.02842 18.7208 3.87798 20.3405 5.30724C22.2003 6.94638 23.3701 8.99531 23.81 11.444C23.89 11.9138 23.94 12.3835 24 12.8533C24 13.1631 24 13.483 24 13.7928C23.99 13.8128 23.98 13.8328 23.98 13.8528C23.87 14.5624 23.76 15.272 23.65 15.9917C23.64 16.0317 23.66 16.0816 23.68 16.1116C23.78 16.2515 23.89 16.4015 24 16.5414ZM4.90279 4.50765C4.90279 4.6076 4.90279 4.69755 4.90279 4.78751C4.90279 6.07683 4.90279 7.36616 4.90279 8.65549C4.90279 8.88537 4.88279 9.12525 4.8328 9.35513C4.67282 10.1347 4.20289 10.7044 3.59298 11.1942C0.913371 13.3431 0.65341 17.361 3.02306 19.8497C3.25303 20.0895 3.50299 20.3194 3.73296 20.5693C4.24288 21.149 4.55284 21.8286 4.70282 22.5782C6.47256 22.5782 8.2223 22.5782 9.99205 22.5782C9.58211 21.9786 9.38213 21.3389 9.38213 20.6393C9.38213 19.3499 9.38213 18.0606 9.38213 16.7713C9.38213 16.2715 9.66209 15.9917 10.172 15.9917C11.1219 15.9917 12.0617 15.9917 13.0116 15.9917C13.0916 15.9917 13.1816 15.9917 13.3116 15.9917C13.2716 15.5719 13.2716 15.1721 13.2016 14.7823C12.9416 13.2831 12.2017 12.0537 11.0019 11.1142C10.182 10.4745 9.77208 9.65497 9.79207 8.60552C9.81207 7.33618 9.79207 6.05685 9.79207 4.78751C9.79207 4.70755 9.79207 4.61759 9.79207 4.52764C8.14232 4.50765 6.54255 4.50765 4.90279 4.50765ZM14.7613 15.9717C14.7214 15.9617 14.7514 15.9817 14.7613 15.9717C16.0412 15.9717 17.301 15.9817 18.5708 15.9717C18.6408 15.9717 18.7508 15.8817 18.7808 15.8118C19.1907 14.7923 19.3807 13.7428 19.2507 12.6534C18.8407 9.12525 15.5212 6.5266 11.3319 7.65601C11.2719 7.676 11.2019 7.77595 11.1919 7.84591C11.1719 8.0658 11.2019 8.28568 11.1819 8.50557C11.1219 9.17522 11.4118 9.65497 11.9318 10.0748C13.1616 11.0442 14.0015 12.2936 14.3914 13.8028C14.5714 14.4925 14.6314 15.2121 14.7613 15.9717ZM11.1819 6.21676C14.0814 5.62707 16.6711 6.10682 18.7208 8.31567C20.7705 10.5245 21.1204 13.1332 20.2305 15.9817C20.8305 15.9817 21.4004 15.9717 21.9803 15.9817C22.1503 15.9817 22.2103 15.9217 22.2503 15.7718C22.6702 14.1726 22.7402 12.5635 22.2702 10.9843C21.1404 7.14628 18.5808 4.85747 14.6314 4.15783C13.5415 3.96793 12.4517 4.0279 11.3718 4.26778C11.3019 4.28777 11.2019 4.36773 11.2019 4.42769C11.1819 5.01739 11.1819 5.60708 11.1819 6.21676ZM10.7819 20.0695C10.7819 20.3294 10.7719 20.5593 10.7819 20.7892C10.7819 20.9091 10.8119 21.0191 10.8419 21.139C11.0719 22.0185 11.8218 22.5782 12.7916 22.5782C14.3614 22.5782 15.9312 22.5782 17.5009 22.5782C18.5308 22.5782 19.5606 22.5782 20.6005 22.5782C21.8603 22.5782 22.8202 21.5588 22.5502 20.0596C18.6308 20.0695 14.7214 20.0695 10.7819 20.0695ZM10.7819 18.6403C14.7214 18.6403 18.6408 18.6403 22.5602 18.6403C22.5602 18.2205 22.5602 17.8107 22.5602 17.4009C18.6208 17.4009 14.7114 17.4009 10.7819 17.4009C10.7819 17.8107 10.7819 18.2205 10.7819 18.6403ZM4.91279 3.0784C6.54255 3.0784 8.14232 3.0784 9.76208 3.0784C9.76208 2.51869 9.76208 1.96897 9.76208 1.41926C8.14232 1.41926 6.53255 1.41926 4.91279 1.41926C4.91279 1.96897 4.91279 2.50869 4.91279 3.0784Z" fill="#F1EAE6"/>
</svg>
