<svg width="24" height="24" viewBox="0 0 24 24" fill="none" xmlns="http://www.w3.org/2000/svg">
<path d="M9.99717 17.0813C9.96117 17.6323 9.48321 18.0362 8.93426 18.0142C8.79027 18.0042 8.64528 17.9993 8.49929 17.9993C5.41955 17.9993 2.59178 20.1852 1.98083 23.198C1.88684 23.675 1.45888 23.999 0.999917 23.999C0.422965 23.999 0.000999917 23.456 0 22.928C0.647946 18.8882 4.42363 15.9973 8.49929 15.9993C8.68928 15.9993 8.87726 16.0063 9.06424 16.0183C9.6152 16.0543 10.0332 16.5303 9.99717 17.0813ZM1.61886 4.14883C1.37789 3.31386 1.53587 2.52789 2.02583 1.91392C2.51379 1.30295 3.25673 0.97096 4.00067 1.01396L7.50037 1.28095V0.999958C7.50037 0.447981 7.94834 0 8.50029 0C9.10324 0 9.50021 0.447981 9.50021 0.999958V1.43394L13.7968 1.76193C14.3548 1.79293 14.8708 2.08691 15.1927 2.56589C15.5177 3.04787 15.5887 3.63785 15.3907 4.22682L14.5828 6.69472C14.6498 7.06271 14.6858 7.43669 14.6858 7.81467C14.6858 11.2255 11.911 14.0004 8.50029 14.0004C5.08958 14.0004 2.31381 11.2245 2.31381 7.81367C2.31381 7.34069 2.3858 6.87771 2.49079 6.42273C2.47879 6.39773 1.61886 4.14783 1.61886 4.14783V4.14883ZM12.6839 7.81367C12.6839 7.53769 12.6519 7.2657 12.5989 6.99971H4.39863C4.34564 7.2667 4.31364 7.53769 4.31364 7.81367C4.31364 10.1216 6.19048 11.9995 8.49929 11.9995C10.8081 11.9995 12.6839 10.1226 12.6839 7.81367ZM3.51671 3.52185L4.07766 4.99979H13.0319L13.4439 3.73984L3.86068 3.00887C3.66769 2.99688 3.42371 3.30086 3.51671 3.52185ZM23.998 17.8193C23.96 18.5842 23.787 19.3132 23.505 19.9852C23.3741 20.2962 23.0661 20.4961 22.7291 20.4961H22.6951C22.3401 20.4961 22.0332 20.2702 21.9022 19.9402C21.6732 19.3662 21.0992 18.9662 20.4363 18.9982C19.6294 19.0362 19.0094 19.7312 19.0094 20.5391V22.911C19.0094 23.5 18.5395 24 17.9505 24C14.7058 24 11.976 21.3031 12.01 17.9962C12.01 14.6824 14.6958 11.9965 18.0095 11.9965C21.2632 11.9965 23.906 14.5884 24 17.8193H23.998ZM17.5075 19.9962C17.5075 19.1682 16.8356 18.4962 16.0077 18.4962C15.1797 18.4962 14.5078 19.1682 14.5078 19.9962C14.5078 20.8241 15.1797 21.4961 16.0077 21.4961C16.8356 21.4961 17.5075 20.8241 17.5075 19.9962ZM17.5075 15.9963C17.5075 15.1684 16.8356 14.4964 16.0077 14.4964C15.1797 14.4964 14.5078 15.1684 14.5078 15.9963C14.5078 16.8243 15.1797 17.4963 16.0077 17.4963C16.8356 17.4963 17.5075 16.8243 17.5075 15.9963ZM21.5072 15.9963C21.5072 15.1684 20.8353 14.4964 20.0073 14.4964C19.1794 14.4964 18.5075 15.1684 18.5075 15.9963C18.5075 16.8243 19.1794 17.4963 20.0073 17.4963C20.8353 17.4963 21.5072 16.8243 21.5072 15.9963Z" fill="#555555"/>
</svg>
