<svg width="56" height="57" viewBox="0 0 56 57" fill="none" xmlns="http://www.w3.org/2000/svg">
<path d="M42 14.6091H37.3334C37.3334 9.45242 33.1567 5.27576 28 5.27576C22.8434 5.27576 18.6667 9.45242 18.6667 14.6091H14C11.4334 14.6091 9.33337 16.7091 9.33337 19.2758V47.2758C9.33337 49.8424 11.4334 51.9424 14 51.9424H42C44.5667 51.9424 46.6667 49.8424 46.6667 47.2758V19.2758C46.6667 16.7091 44.5667 14.6091 42 14.6091ZM28 9.94242C30.5667 9.94242 32.6667 12.0424 32.6667 14.6091H23.3334C23.3334 12.0424 25.4334 9.94242 28 9.94242ZM42 47.2758H14V19.2758H18.6667V23.9424C18.6667 25.2258 19.7167 26.2758 21 26.2758C22.2834 26.2758 23.3334 25.2258 23.3334 23.9424V19.2758H32.6667V23.9424C32.6667 25.2258 33.7167 26.2758 35 26.2758C36.2834 26.2758 37.3334 25.2258 37.3334 23.9424V19.2758H42V47.2758Z" fill="#702B21"/>
</svg>
