<svg width="20" height="20" viewBox="0 0 20 20" fill="none" xmlns="http://www.w3.org/2000/svg">
<path d="M8.45801 5.54315C8.84854 5.15271 9.48158 5.15266 9.87207 5.54315C10.2623 5.93367 10.2624 6.56677 9.87207 6.95721L6.8291 10.0002L9.87207 13.0432C10.2623 13.4337 10.2625 14.0678 9.87207 14.4582C9.48176 14.8481 8.84846 14.8479 8.45801 14.4582L4.70703 10.7072C4.51973 10.5198 4.41415 10.2652 4.41406 10.0002C4.4141 9.73521 4.51979 9.48062 4.70703 9.29315L8.45801 5.54315ZM12.624 5.54315C13.0145 5.15266 13.6476 5.15271 14.0381 5.54315C14.4286 5.93368 14.4286 6.56669 14.0381 6.95721L10.9951 10.0002L14.0381 13.0432C14.4283 13.4337 14.4285 14.0678 14.0381 14.4582C13.6476 14.8479 13.0143 14.8481 12.624 14.4582L8.87402 10.7072C8.68662 10.5198 8.58114 10.2652 8.58105 10.0002C8.58109 9.73516 8.68671 9.48063 8.87402 9.29315L12.624 5.54315Z" fill="#F0F0F0"/>
</svg>
