<svg width="24" height="25" viewBox="0 0 24 25" fill="none" xmlns="http://www.w3.org/2000/svg">
<g clip-path="url(#clip0_2759_6229)">
<path d="M9.9 4.80692C10.5883 4.6458 11.2931 4.56526 12 4.56692C19 4.56692 23 12.5669 23 12.5669C22.393 13.7025 21.6691 14.7717 20.84 15.7569M14.12 14.6869C13.8454 14.9817 13.5141 15.2181 13.1462 15.382C12.7782 15.546 12.3809 15.6342 11.9781 15.6413C11.5753 15.6484 11.1752 15.5743 10.8016 15.4234C10.4281 15.2725 10.0887 15.0479 9.80385 14.7631C9.51897 14.4782 9.29439 14.1389 9.14351 13.7653C8.99262 13.3918 8.91853 12.9916 8.92563 12.5888C8.93274 12.186 9.02091 11.7888 9.18488 11.4208C9.34884 11.0528 9.58525 10.7216 9.88 10.4469M17.94 18.5069C16.2306 19.8099 14.1491 20.5318 12 20.5669C5 20.5669 1 12.5669 1 12.5669C2.24389 10.2488 3.96914 8.22353 6.06 6.62692L17.94 18.5069Z" stroke="#555555" stroke-width="2" stroke-linecap="round" stroke-linejoin="round"/>
<path d="M1 1.56689L23 23.5669" stroke="#555555" stroke-width="2" stroke-linecap="round" stroke-linejoin="round"/>
</g>
<defs>
<clipPath id="clip0_2759_6229">
<rect width="24" height="24" fill="white" transform="translate(0 0.566895)"/>
</clipPath>
</defs>
</svg>
