<svg width="24" height="25" viewBox="0 0 24 25" fill="none" xmlns="http://www.w3.org/2000/svg">
<g clip-path="url(#clip0_2098_501)">
<path d="M24 12.1091C24 5.48171 18.6274 0.10907 12 0.10907C5.37264 0.10907 0 5.48171 0 12.1091C0 17.7366 3.87456 22.4588 9.10128 23.7558V15.7763H6.62688V12.1091H9.10128V10.5289C9.10128 6.44459 10.9498 4.55147 14.9597 4.55147C15.72 4.55147 17.0318 4.70075 17.5685 4.84955V8.17355C17.2853 8.14379 16.7933 8.12891 16.1822 8.12891C14.2147 8.12891 13.4544 8.87435 13.4544 10.8121V12.1091H17.3741L16.7006 15.7763H13.4544V24.0212C19.3963 23.3036 24.0005 18.2444 24.0005 12.1091H24Z" fill="#702B21"/>
<path d="M16.7001 15.7763L17.3735 12.1091H13.4539V10.8121C13.4539 8.87433 14.2142 8.12889 16.1817 8.12889C16.7927 8.12889 17.2847 8.14377 17.5679 8.17353V4.84953C17.0313 4.70025 15.7195 4.55145 14.9591 4.55145C10.9492 4.55145 9.10074 6.44457 9.10074 10.5289V12.1091H6.62634V15.7763H9.10074V23.7558C10.0291 23.9862 11.0001 24.1091 11.9995 24.1091C12.4915 24.1091 12.9767 24.0788 13.4534 24.0212V15.7763H16.6996H16.7001Z" fill="white"/>
</g>
<defs>
<clipPath id="clip0_2098_501">
<rect width="24" height="24" fill="white" transform="translate(0 0.10907)"/>
</clipPath>
</defs>
</svg>
