<svg width="24" height="24" viewBox="0 0 24 24" fill="none" xmlns="http://www.w3.org/2000/svg">
<path d="M13.9977 0.5743L23.1674 6.37845C23.8294 6.79747 24.0083 7.64669 23.5669 8.27523C23.4614 8.42549 23.3256 8.55442 23.1674 8.65459L13.9977 14.4587C12.788 15.2245 11.2119 15.2245 10.0022 14.4587L0.832533 8.65459C0.170536 8.23556 -0.00834844 7.38634 0.432983 6.7578C0.538485 6.60755 0.67428 6.47862 0.832533 6.37845L10.0022 0.5743C11.2119 -0.191433 12.788 -0.191433 13.9977 0.5743ZM23.5617 12.5663C23.3479 12.891 23.0647 13.1696 22.7304 13.3838L14.0149 18.9694C12.7973 19.7498 11.2026 19.7498 9.98501 18.9694L1.26954 13.3838C0.173258 12.6812 -0.251864 11.3879 0.147119 10.2521L10.0022 16.4886C11.1363 17.2065 12.5924 17.2514 13.7668 16.6232L13.9977 16.4886L23.8519 10.2514C24.1136 10.9984 24.0355 11.8465 23.5617 12.5663ZM23.5617 17.0116C23.3479 17.3364 23.0647 17.6149 22.7304 17.8291L14.0149 23.4148C12.7973 24.1951 11.2026 24.1951 9.98501 23.4148L1.26954 17.8291C0.173258 17.1266 -0.251864 15.8332 0.147119 14.6974L10.0022 20.934C11.1363 21.6518 12.5924 21.6967 13.7668 21.0686L13.9977 20.934L23.8519 14.6967C24.1136 15.4438 24.0355 16.2918 23.5617 17.0116Z" fill="#702B21"/>
</svg>
