<svg width="24" height="25" viewBox="0 0 24 25" fill="none" xmlns="http://www.w3.org/2000/svg">
<g clip-path="url(#clip0_2517_517)">
<path d="M21.41 11.6891L12.41 2.68913C12.05 2.32913 11.55 2.10913 11 2.10913H4C2.9 2.10913 2 3.00913 2 4.10913V11.1091C2 11.6591 2.22 12.1591 2.59 12.5291L11.59 21.5291C11.95 21.8891 12.45 22.1091 13 22.1091C13.55 22.1091 14.05 21.8891 14.41 21.5191L21.41 14.5191C21.78 14.1591 22 13.6591 22 13.1091C22 12.5591 21.77 12.0491 21.41 11.6891ZM13 20.1191L4 11.1091V4.10913H11V4.09913L20 13.0991L13 20.1191Z" fill="#702B21"/>
<path d="M6.5 8.10913C7.32843 8.10913 8 7.43756 8 6.60913C8 5.7807 7.32843 5.10913 6.5 5.10913C5.67157 5.10913 5 5.7807 5 6.60913C5 7.43756 5.67157 8.10913 6.5 8.10913Z" fill="#702B21"/>
</g>
<defs>
<clipPath id="clip0_2517_517">
<rect width="24" height="24" fill="white" transform="translate(0 0.109131)"/>
</clipPath>
</defs>
</svg>
