<svg width="24" height="25" viewBox="0 0 24 25" fill="none" xmlns="http://www.w3.org/2000/svg">
<g clip-path="url(#clip0_2098_506)">
<path d="M20 8.10907H17V4.10907H3C1.9 4.10907 1 5.00907 1 6.10907V17.1091H3C3 18.7691 4.34 20.1091 6 20.1091C7.66 20.1091 9 18.7691 9 17.1091H15C15 18.7691 16.34 20.1091 18 20.1091C19.66 20.1091 21 18.7691 21 17.1091H23V12.1091L20 8.10907ZM19.5 9.60907L21.46 12.1091H17V9.60907H19.5ZM6 18.1091C5.45 18.1091 5 17.6591 5 17.1091C5 16.5591 5.45 16.1091 6 16.1091C6.55 16.1091 7 16.5591 7 17.1091C7 17.6591 6.55 18.1091 6 18.1091ZM8.22 15.1091C7.67 14.4991 6.89 14.1091 6 14.1091C5.11 14.1091 4.33 14.4991 3.78 15.1091H3V6.10907H15V15.1091H8.22ZM18 18.1091C17.45 18.1091 17 17.6591 17 17.1091C17 16.5591 17.45 16.1091 18 16.1091C18.55 16.1091 19 16.5591 19 17.1091C19 17.6591 18.55 18.1091 18 18.1091Z" fill="#702B21"/>
</g>
<defs>
<clipPath id="clip0_2098_506">
<rect width="24" height="24" fill="white" transform="translate(0 0.10907)"/>
</clipPath>
</defs>
</svg>
