<svg width="19" height="18" viewBox="0 0 19 18" fill="none" xmlns="http://www.w3.org/2000/svg">
<path d="M12.5 18L6.5 15.9L1.85 17.7C1.51667 17.8333 1.20833 17.7958 0.925 17.5875C0.641667 17.3792 0.5 17.1 0.5 16.75V2.75C0.5 2.53333 0.5625 2.34167 0.6875 2.175C0.8125 2.00833 0.983333 1.88333 1.2 1.8L6.5 0L12.5 2.1L17.15 0.3C17.4833 0.166667 17.7917 0.204167 18.075 0.4125C18.3583 0.620833 18.5 0.9 18.5 1.25V15.25C18.5 15.4667 18.4375 15.6583 18.3125 15.825C18.1875 15.9917 18.0167 16.1167 17.8 16.2L12.5 18ZM11.5 15.55V3.85L7.5 2.45V14.15L11.5 15.55ZM13.5 15.55L16.5 14.55V2.7L13.5 3.85V15.55ZM2.5 15.3L5.5 14.15V2.45L2.5 3.45V15.3Z" fill="#555555"/>
</svg>
