<svg width="24" height="25" viewBox="0 0 24 25" fill="none" xmlns="http://www.w3.org/2000/svg">
<g clip-path="url(#clip0_2764_1506)">
<path d="M15 7.84546V20.8155L10.79 19.0055L10 18.6655L9.21 19.0055L5 20.8155V7.84546H15ZM19 1.84546H8.99C7.89 1.84546 7 2.74546 7 3.84546H17C18.1 3.84546 19 4.74546 19 5.84546V18.8455L21 19.8455V3.84546C21 2.74546 20.1 1.84546 19 1.84546ZM15 5.84546H5C3.9 5.84546 3 6.74546 3 7.84546V23.8455L10 20.8455L17 23.8455V7.84546C17 6.74546 16.1 5.84546 15 5.84546Z" fill="#702B21"/>
</g>
<defs>
<clipPath id="clip0_2764_1506">
<rect width="24" height="24" fill="white" transform="translate(0 0.845459)"/>
</clipPath>
</defs>
</svg>
