<svg width="24" height="25" viewBox="0 0 24 25" fill="none" xmlns="http://www.w3.org/2000/svg">
<path d="M12.7523 24.1091C12.2522 24.1091 11.7521 24.1091 11.252 24.1091C10.9719 24.0791 10.6819 24.0391 10.4018 23.9991C8.17144 23.6791 6.17109 22.8291 4.43078 21.3991C2.14037 19.5092 0.710119 17.0992 0.180025 14.1792C0.10001 13.7392 0.0600107 13.2992 0 12.8592C0 12.3592 0 11.8592 0 11.3592C0.0200036 11.2092 0.0400047 11.0492 0.0600082 10.8992C0.320054 8.52921 1.18022 6.38922 2.70049 4.54923C5.0109 1.76925 7.98142 0.269256 11.6021 0.119257C14.1125 0.0192572 16.4529 0.659255 18.5433 2.06925C22.0239 4.41923 23.8642 7.71922 23.9943 11.9292C24.0643 14.1692 23.4942 16.2792 22.324 18.1992C20.4236 21.3291 17.6631 23.2491 14.0625 23.9291C13.6424 24.0091 13.1923 24.0491 12.7523 24.1091ZM11.9921 22.7091C17.8332 22.7191 22.594 17.9592 22.604 12.1192C22.604 6.28923 17.8732 1.53925 12.0321 1.51925C6.2011 1.49925 1.43026 6.24923 1.41025 12.0992C1.39025 17.9292 6.15108 22.6991 11.9921 22.7091Z" fill="#702B21"/>
<path d="M13.4624 16.8192C12.4922 17.1092 11.532 17.1092 10.5919 16.8292C10.5319 17.2492 10.5119 17.6692 10.4018 18.0592C9.99177 19.4592 9.01159 20.2592 7.62135 20.5792C7.56134 20.5892 7.46133 20.5392 7.41132 20.4792C6.77121 19.6992 6.41115 18.8292 6.51117 17.7992C6.51117 17.7492 6.51117 17.7092 6.51117 17.6592C6.51117 17.6492 6.50116 17.6292 6.51117 17.6692C6.02108 17.6092 5.54097 17.5892 5.08089 17.4892C4.51079 17.3692 4.04071 17.0392 3.59063 16.6792C3.55063 16.6492 3.52062 16.5592 3.53063 16.5092C3.79067 15.0592 4.92087 13.9092 6.37113 13.6492C6.66118 13.5992 6.96125 13.5892 7.23129 13.5692C7.18129 13.0992 7.08124 12.6192 7.08124 12.1292C7.08124 11.6392 7.17128 11.1592 7.23129 10.6892C6.88123 10.6392 6.49116 10.6292 6.13109 10.5292C4.70084 10.1292 3.8707 9.15925 3.54064 7.72925C3.53063 7.66925 3.58064 7.56926 3.63065 7.52926C4.41079 6.85926 5.30093 6.53926 6.33111 6.61926C6.37112 6.61926 6.41115 6.61926 6.45116 6.61926C6.46116 6.61926 6.48116 6.60926 6.48116 6.60926C6.51117 6.21926 6.50115 5.83927 6.56116 5.46927C6.66118 4.79927 7.01125 4.22927 7.44132 3.70928C7.47133 3.66928 7.56133 3.63928 7.61134 3.64928C9.0716 3.92928 10.1818 5.01927 10.4719 6.46926C10.5319 6.76926 10.5319 7.06926 10.5619 7.33926C11.042 7.28926 11.5321 7.18926 12.0121 7.18926C12.4922 7.18926 12.9723 7.28926 13.4524 7.33926C13.4724 7.09926 13.4624 6.80926 13.5224 6.53926C13.8124 5.05927 14.7126 4.12927 16.1529 3.68928C16.4329 3.59928 16.5729 3.66928 16.743 3.89928C17.3331 4.69927 17.6231 5.57927 17.4931 6.59926C17.5931 6.59926 17.6831 6.60926 17.7731 6.59926C18.7833 6.52926 19.6435 6.88926 20.3936 7.52926C20.4436 7.56926 20.4736 7.68926 20.4536 7.75925C19.9936 9.80924 18.3032 10.7192 16.813 10.6292C16.793 10.6292 16.763 10.6392 16.713 10.6392C16.993 11.6092 16.993 12.5792 16.713 13.5192C17.113 13.5692 17.5131 13.5792 17.8832 13.6792C19.3234 14.0692 20.1436 15.0592 20.4736 16.4792C20.4836 16.5392 20.4236 16.6492 20.3636 16.6992C19.5535 17.3792 18.6333 17.6992 17.5631 17.5792C17.5531 17.5792 17.5331 17.5892 17.4931 17.5992C17.4931 17.9092 17.5231 18.2292 17.4831 18.5392C17.4131 19.2992 17.043 19.9292 16.5629 20.4992C16.5329 20.5392 16.4429 20.5592 16.3829 20.5492C14.8926 20.2592 13.7824 19.1392 13.5224 17.6292C13.4824 17.3992 13.4824 17.1192 13.4624 16.8192ZM8.4915 12.0992C8.4915 14.0392 10.0618 15.6192 11.9921 15.6292C13.9325 15.6292 15.5127 14.0692 15.5227 12.1292C15.5227 10.1892 13.9525 8.60925 12.0221 8.60925C10.0718 8.59925 8.4915 10.1592 8.4915 12.0992ZM15.9328 5.32927C14.8626 5.91926 14.6626 7.31926 15.1027 8.00925C16.0329 7.28926 16.3729 6.18926 15.9328 5.32927ZM7.9014 15.2092C7.01124 14.7092 5.64099 15.1492 5.24092 16.0592C6.09107 16.4892 7.27128 16.1092 7.9014 15.2092ZM16.1229 9.04925C17.043 9.52925 18.3532 9.11925 18.8033 8.19925C17.9632 7.74926 16.763 8.12925 16.1229 9.04925ZM8.93158 16.2192C7.98141 16.9892 7.61136 18.1892 8.10144 18.8992C9.03161 18.3892 9.41166 17.1792 8.93158 16.2192ZM16.1128 15.1992C17.023 16.3692 18.1832 16.3692 18.7933 16.0292C18.3333 15.1192 17.023 14.7092 16.1128 15.1992ZM8.94159 8.01925C9.41167 7.06926 9.0116 5.78927 8.09143 5.33927C7.65135 6.20926 8.01142 7.36926 8.94159 8.01925ZM5.22093 8.18925C5.72102 9.12925 7.03124 9.53925 7.9014 9.03925C7.19127 8.10925 6.14109 7.76926 5.22093 8.18925ZM15.9328 18.8992C16.3529 18.0692 16.0628 16.8992 15.0827 16.2392C14.6126 17.1692 15.0327 18.4892 15.9328 18.8992Z" fill="#702B21"/>
<path d="M11.322 2.98926C11.7921 2.98926 12.2422 2.98926 12.7023 2.98926C12.7023 3.44926 12.7023 3.89925 12.7023 4.36925C12.2522 4.36925 11.7921 4.36925 11.322 4.36925C11.322 3.90925 11.322 3.45926 11.322 2.98926Z" fill="#702B21"/>
<path d="M2.88049 11.4192C3.34057 11.4192 3.79065 11.4192 4.25073 11.4192C4.25073 11.8792 4.25073 12.3392 4.25073 12.8092C3.79065 12.8092 3.34057 12.8092 2.88049 12.8092C2.88049 12.3492 2.88049 11.8992 2.88049 11.4192Z" fill="#702B21"/>
<path d="M19.7535 12.7992C19.7535 12.3292 19.7535 11.8792 19.7535 11.4192C20.2136 11.4192 20.6636 11.4192 21.1337 11.4192C21.1337 11.8692 21.1337 12.3292 21.1337 12.7992C20.6836 12.7992 20.2236 12.7992 19.7535 12.7992Z" fill="#702B21"/>
<path d="M12.6923 21.2491C12.2222 21.2491 11.7821 21.2491 11.322 21.2491C11.322 20.7891 11.322 20.3391 11.322 19.8591C11.7721 19.8591 12.2222 19.8591 12.6923 19.8591C12.6923 20.3191 12.6923 20.7791 12.6923 21.2491Z" fill="#702B21"/>
</svg>
