<svg width="28" height="29" viewBox="0 0 28 29" fill="none" xmlns="http://www.w3.org/2000/svg">
<path d="M14 26.65C13.7278 26.65 13.4945 26.5722 13.3 26.4167C13.1056 26.2611 12.9598 26.0569 12.8625 25.8042C12.4931 24.7153 12.0264 23.6944 11.4625 22.7417C10.9181 21.7889 10.15 20.6708 9.15837 19.3875C8.16671 18.1042 7.35976 16.8792 6.73754 15.7125C6.13476 14.5458 5.83337 13.1361 5.83337 11.4833C5.83337 9.20832 6.62087 7.28332 8.19587 5.70832C9.79032 4.11387 11.725 3.31665 14 3.31665C16.275 3.31665 18.2 4.11387 19.775 5.70832C21.3695 7.28332 22.1667 9.20832 22.1667 11.4833C22.1667 13.2528 21.8264 14.7305 21.1459 15.9167C20.4848 17.0833 19.7167 18.2403 18.8417 19.3875C17.7917 20.7875 16.9945 21.9542 16.45 22.8875C15.925 23.8014 15.4875 24.7736 15.1375 25.8042C15.0403 26.0764 14.8848 26.2903 14.6709 26.4458C14.4764 26.5819 14.2528 26.65 14 26.65ZM14 22.4792C14.3306 21.818 14.7 21.1667 15.1084 20.525C15.5362 19.8833 16.1584 19.0278 16.975 17.9583C17.8112 16.8694 18.4917 15.868 19.0167 14.9541C19.5612 14.0208 19.8334 12.8639 19.8334 11.4833C19.8334 9.86943 19.2598 8.49859 18.1125 7.37082C16.9848 6.22359 15.6139 5.64998 14 5.64998C12.3862 5.64998 11.0056 6.22359 9.85837 7.37082C8.7306 8.49859 8.16671 9.86943 8.16671 11.4833C8.16671 12.8639 8.42921 14.0208 8.95421 14.9541C9.49865 15.868 10.1889 16.8694 11.025 17.9583C11.8417 19.0278 12.4542 19.8833 12.8625 20.525C13.2903 21.1667 13.6695 21.818 14 22.4792ZM14 14.4C14.8167 14.4 15.507 14.118 16.0709 13.5542C16.6348 12.9903 16.9167 12.3 16.9167 11.4833C16.9167 10.6666 16.6348 9.97637 16.0709 9.41248C15.507 8.84859 14.8167 8.56665 14 8.56665C13.1834 8.56665 12.4931 8.84859 11.9292 9.41248C11.3653 9.97637 11.0834 10.6666 11.0834 11.4833C11.0834 12.3 11.3653 12.9903 11.9292 13.5542C12.4931 14.118 13.1834 14.4 14 14.4Z" fill="#303030"/>
</svg>
