<svg width="20" height="20" viewBox="0 0 20 20" fill="none" xmlns="http://www.w3.org/2000/svg">
<path d="M10.5 2.25194C10.5 1.73196 9.98375 1.36976 9.4948 1.54669L2.65454 4.02188C1.96161 4.27262 1.5 4.93056 1.5 5.66746V11.7491C1.5 12.2691 2.01625 12.6313 2.5052 12.4544L3 12.2753V13.8705C1.5378 14.388 0 13.3035 0 11.7491V5.66746C0 4.29894 0.857281 3.07704 2.14414 2.61138L8.98441 0.136196C10.4512 -0.394589 12 0.692017 12 2.25194V2.42895L10.5 2.97174V2.25194ZM14.5 5.25194C14.5 4.73196 13.9837 4.36976 13.4948 4.54669L6.32467 7.14124C5.82972 7.32034 5.5 7.7903 5.5 8.31666V14.7491C5.5 15.2691 6.01625 15.6313 6.5052 15.4544L7 15.2753V16.8705C5.5378 17.388 4 16.3035 4 14.7491V8.31666C4 7.15868 4.72539 6.12477 5.81427 5.73075L12.9844 3.1362C14.4512 2.60541 16 3.69202 16 5.25194V5.42895L14.5 5.97174V5.25194ZM17.4948 7.54667C17.9837 7.36975 18.5 7.73195 18.5 8.25192V15.0352C18.5 15.351 18.3022 15.633 18.0052 15.7404L10.5052 18.4544C10.0163 18.6313 9.5 18.2691 9.5 17.7491V10.9658C9.5 10.65 9.69783 10.368 9.9948 10.2606L17.4948 7.54667ZM20 8.25192C20 6.692 18.4512 5.60539 16.9844 6.13618L9.48441 8.8501C8.5935 9.17247 8 10.0184 8 10.9658V17.7491C8 19.309 9.54875 20.3956 11.0156 19.8649L18.5156 17.1509C19.4065 16.8286 20 15.9826 20 15.0352V8.25192Z" fill="#F0F0F0"/>
</svg>
