<svg width="20" height="20" viewBox="0 0 20 20" fill="none" xmlns="http://www.w3.org/2000/svg">
<path d="M17.9947 2.09693C17.9155 0.926138 16.9407 0.000976562 15.7499 0.000976562H4.25L4.09595 0.00616741C2.92516 0.0853317 2 1.06011 2 2.25098V17.749L2.00519 17.9031C2.08436 19.0739 3.05914 19.999 4.25 19.999H11.8175L10.3188 18.499H4.25L4.14823 18.4922C3.78215 18.4425 3.5 18.1287 3.5 17.749V2.25098L3.50685 2.14921C3.55651 1.78313 3.8703 1.50098 4.25 1.50098H15.7499L15.8516 1.50782C16.2177 1.55749 16.4999 1.87128 16.4999 2.25098V13.8178L17.6587 12.659C17.7651 12.5526 17.8794 12.4591 17.9999 12.3785V2.25098L17.9947 2.09693ZM14.2876 19.999C14.2749 19.9997 14.2622 20 14.2495 20C14.2369 20 14.2243 19.9997 14.2118 19.999C14.0266 19.9897 13.8508 19.9119 13.7191 19.7801L11.2194 17.2783C10.9267 16.9853 10.9269 16.5104 11.2199 16.2176C11.5129 15.9248 11.9878 15.925 12.2806 16.2181L14.2499 18.1891L18.7194 13.7197C19.0122 13.4268 19.4871 13.4268 19.78 13.7197C20.0729 14.0126 20.0729 14.4874 19.78 14.7803L14.78 19.7803C14.6483 19.912 14.4727 19.9897 14.2876 19.999ZM11.8413 14.5C11.7805 14.4976 11.7195 14.4976 11.6587 14.5H9.24609C8.83188 14.5 8.49609 14.1642 8.49609 13.75C8.49609 13.3358 8.83188 13 9.24609 13H14.2499C14.6642 13 14.9999 13.3358 14.9999 13.75C14.9999 14.1642 14.6642 14.5 14.2499 14.5H11.8413ZM7 5.75162C7 6.3039 6.55229 6.75162 6 6.75162C5.44772 6.75162 5 6.3039 5 5.75162C5 5.19933 5.44772 4.75162 6 4.75162C6.55229 4.75162 7 5.19933 7 5.75162ZM8.49609 5.75001C8.49609 5.3358 8.83188 5.00001 9.24609 5.00001H14.2499C14.6642 5.00001 14.9999 5.3358 14.9999 5.75001C14.9999 6.16422 14.6642 6.50001 14.2499 6.50001H9.24609C8.83188 6.50001 8.49609 6.16422 8.49609 5.75001ZM9.24609 9.00001C8.83188 9.00001 8.49609 9.3358 8.49609 9.75001C8.49609 10.1642 8.83188 10.5 9.24609 10.5H14.2499C14.6642 10.5 14.9999 10.1642 14.9999 9.75001C14.9999 9.3358 14.6642 9.00001 14.2499 9.00001H9.24609ZM6 10.75C6.55229 10.75 7 10.3023 7 9.75C7 9.19771 6.55229 8.75 6 8.75C5.44772 8.75 5 9.19771 5 9.75C5 10.3023 5.44772 10.75 6 10.75ZM7 13.748C7 14.3003 6.55229 14.748 6 14.748C5.44772 14.748 5 14.3003 5 13.748C5 13.1957 5.44772 12.748 6 12.748C6.55229 12.748 7 13.1957 7 13.748Z" fill="#702B21"/>
</svg>
