<svg width="24" height="25" viewBox="0 0 24 25" fill="none" xmlns="http://www.w3.org/2000/svg">
<g clip-path="url(#clip0_2098_511)">
<path d="M17.0725 0.10907H13.0278V16.4569C13.0278 18.4047 11.4722 20.0047 9.53626 20.0047C7.60034 20.0047 6.04469 18.4047 6.04469 16.4569C6.04469 14.5439 7.56577 12.9786 9.43257 12.9091V8.80474C5.31872 8.87427 2 12.2482 2 16.4569C2 20.7004 5.38786 24.1091 9.57085 24.1091C13.7538 24.1091 17.1416 20.6656 17.1416 16.4569V8.07427C18.6627 9.18734 20.5295 9.8482 22.5 9.883V5.77864C19.4579 5.67429 17.0725 3.16994 17.0725 0.10907Z" fill="#702B21"/>
</g>
<defs>
<clipPath id="clip0_2098_511">
<rect width="24" height="24" fill="white" transform="translate(0 0.10907)"/>
</clipPath>
</defs>
</svg>
