<svg width="21" height="21" viewBox="0 0 21 21" fill="none" xmlns="http://www.w3.org/2000/svg">
<path d="M11.5 11.6094C13.1569 11.6094 14.5 12.9525 14.5 14.6094V19.6094C14.5 20.1617 14.0523 20.6094 13.5 20.6094C12.9477 20.6094 12.5 20.1617 12.5 19.6094V14.6094C12.5 14.0571 12.0523 13.6094 11.5 13.6094H3.5C2.94772 13.6094 2.5 14.0571 2.5 14.6094V19.6094C2.5 20.1617 2.05228 20.6094 1.5 20.6094C0.947715 20.6094 0.5 20.1617 0.5 19.6094V14.6094C0.5 12.9525 1.84315 11.6094 3.5 11.6094H11.5ZM17.5 11.6094C19.1569 11.6094 20.5 12.9525 20.5 14.6094V19.6094C20.5 20.1617 20.0523 20.6094 19.5 20.6094C18.9477 20.6094 18.5 20.1617 18.5 19.6094V14.6094C18.5 14.0571 18.0523 13.6094 17.5 13.6094H15.5C14.9477 13.6094 14.5 13.1617 14.5 12.6094C14.5 12.0571 14.9477 11.6094 15.5 11.6094H17.5ZM7.5 0.609375C10.2614 0.609375 12.5 2.84795 12.5 5.60938C12.5 8.3708 10.2614 10.6094 7.5 10.6094C4.73858 10.6094 2.5 8.3708 2.5 5.60938C2.5 2.84795 4.73858 0.609375 7.5 0.609375ZM14.5 1.60938C16.7091 1.60938 18.5 3.40024 18.5 5.60938C18.5 7.81851 16.7091 9.60938 14.5 9.60938C13.9477 9.60938 13.5 9.16166 13.5 8.60938C13.5 8.05709 13.9477 7.60938 14.5 7.60938C15.6046 7.60938 16.5 6.71394 16.5 5.60938C16.5 4.50481 15.6046 3.60938 14.5 3.60938C13.9477 3.60938 13.5 3.16166 13.5 2.60938C13.5 2.05709 13.9477 1.60938 14.5 1.60938ZM7.5 2.60938C5.84315 2.60938 4.5 3.95252 4.5 5.60938C4.5 7.26623 5.84315 8.60938 7.5 8.60938C9.15685 8.60938 10.5 7.26623 10.5 5.60938C10.5 3.95252 9.15685 2.60938 7.5 2.60938Z" fill="#F0F0F0"/>
</svg>
