<svg width="24" height="24" viewBox="0 0 24 24" fill="none" xmlns="http://www.w3.org/2000/svg">
<path d="M13 13C14.6569 13 16 14.3431 16 16V21C16 21.5523 15.5523 22 15 22C14.4477 22 14 21.5523 14 21V16C14 15.4477 13.5523 15 13 15H5C4.44772 15 4 15.4477 4 16V21C4 21.5523 3.55228 22 3 22C2.44772 22 2 21.5523 2 21V16C2 14.3431 3.34315 13 5 13H13ZM19 13C20.6569 13 22 14.3431 22 16V21C22 21.5523 21.5523 22 21 22C20.4477 22 20 21.5523 20 21V16C20 15.4477 19.5523 15 19 15H17C16.4477 15 16 14.5523 16 14C16 13.4477 16.4477 13 17 13H19ZM9 2C11.7614 2 14 4.23858 14 7C14 9.76142 11.7614 12 9 12C6.23858 12 4 9.76142 4 7C4 4.23858 6.23858 2 9 2ZM16 3C18.2091 3 20 4.79086 20 7C20 9.20914 18.2091 11 16 11C15.4477 11 15 10.5523 15 10C15 9.44772 15.4477 9 16 9C17.1046 9 18 8.10457 18 7C18 5.89543 17.1046 5 16 5C15.4477 5 15 4.55228 15 4C15 3.44772 15.4477 3 16 3ZM9 4C7.34315 4 6 5.34315 6 7C6 8.65685 7.34315 10 9 10C10.6569 10 12 8.65685 12 7C12 5.34315 10.6569 4 9 4Z" fill="#010101"/>
</svg>
