<svg width="24" height="25" viewBox="0 0 24 25" fill="none" xmlns="http://www.w3.org/2000/svg">
<path d="M0 24.1091L1.687 17.9461C0.645998 16.1421 0.0989998 14.0971 0.0999998 12.0001C0.103 5.44407 5.43799 0.10907 11.993 0.10907C15.174 0.11007 18.16 1.34907 20.406 3.59707C22.6509 5.84507 23.8869 8.83307 23.8859 12.0111C23.8829 18.5681 18.548 23.9031 11.993 23.9031C10.003 23.9021 8.04198 23.4031 6.30499 22.4551L0 24.1091ZM6.59698 20.3021C8.27298 21.2971 9.87298 21.8931 11.989 21.8941C17.437 21.8941 21.875 17.4601 21.878 12.0091C21.88 6.54707 17.463 2.11907 11.997 2.11707C6.54498 2.11707 2.11 6.55107 2.108 12.0011C2.107 14.2261 2.75899 15.8921 3.85399 17.6351L2.85499 21.2831L6.59698 20.3021ZM17.984 14.8381C17.91 14.7141 17.712 14.6401 17.414 14.4911C17.117 14.3421 15.656 13.6231 15.383 13.5241C15.111 13.4251 14.913 13.3751 14.714 13.6731C14.516 13.9701 13.946 14.6401 13.773 14.8381C13.6 15.0361 13.426 15.0611 13.129 14.9121C12.832 14.7631 11.874 14.4501 10.739 13.4371C9.85598 12.6491 9.25898 11.6761 9.08598 11.3781C8.91298 11.0811 9.06798 10.9201 9.21598 10.7721C9.34998 10.6391 9.51298 10.4251 9.66198 10.2511C9.81298 10.0791 9.86198 9.95507 9.96198 9.75607C10.061 9.55807 10.012 9.38407 9.93698 9.23507C9.86198 9.08707 9.26798 7.62407 9.02098 7.02907C8.77898 6.45007 8.53398 6.52807 8.35198 6.51907L7.78198 6.50907C7.58398 6.50907 7.26198 6.58307 6.98998 6.88107C6.71798 7.17907 5.94999 7.89707 5.94999 9.36007C5.94999 10.8231 7.01498 12.2361 7.16298 12.4341C7.31198 12.6321 9.25798 15.6341 12.239 16.9211C12.948 17.2271 13.502 17.4101 13.933 17.5471C14.645 17.7731 15.293 17.7411 15.805 17.6651C16.376 17.5801 17.563 16.9461 17.811 16.2521C18.059 15.5571 18.059 14.9621 17.984 14.8381Z" fill="#702B21"/>
</svg>
