<svg width="15" height="17" viewBox="0 0 15 17" fill="none" xmlns="http://www.w3.org/2000/svg">
<path d="M7.79167 12.9167C7.23611 13.4722 6.5625 13.75 5.77083 13.75C4.97917 13.75 4.30556 13.4722 3.75 12.9167C3.19444 12.3611 2.91667 11.691 2.91667 10.9062C2.91667 10.1215 3.19444 9.45139 3.75 8.89583L7.20833 5.41667C7.76389 4.86111 8.4375 4.58333 9.22917 4.58333C10.0208 4.58333 10.6944 4.86111 11.25 5.41667C11.8056 5.97222 12.0833 6.64236 12.0833 7.42708C12.0833 8.21181 11.8056 8.88194 11.25 9.4375L7.79167 12.9167ZM4.91667 11.7292C5.23611 12.0486 5.56597 12.1632 5.90625 12.0729C6.24653 11.9826 6.47917 11.875 6.60417 11.75L7.75 10.5833L6.08333 8.91667L4.91667 10.0625C4.68056 10.2986 4.5625 10.5764 4.5625 10.8958C4.5625 11.2153 4.68056 11.4931 4.91667 11.7292ZM10.0833 6.60417C9.76389 6.28472 9.43403 6.17014 9.09375 6.26042C8.75347 6.35069 8.52083 6.45833 8.39583 6.58333L7.25 7.75L8.91667 9.41667L10.0833 8.27083C10.3194 8.03472 10.4375 7.75694 10.4375 7.4375C10.4375 7.11806 10.3194 6.84028 10.0833 6.60417ZM1.66667 16.6667C1.20833 16.6667 0.815972 16.5035 0.489583 16.1771C0.163194 15.8507 0 15.4583 0 15V3.33333C0 2.875 0.163194 2.48264 0.489583 2.15625C0.815972 1.82986 1.20833 1.66667 1.66667 1.66667H5.16667C5.34722 1.16667 5.64931 0.763889 6.07292 0.458333C6.49653 0.152778 6.97222 0 7.5 0C8.02778 0 8.50347 0.152778 8.92708 0.458333C9.35069 0.763889 9.65278 1.16667 9.83333 1.66667H13.3333C13.7917 1.66667 14.184 1.82986 14.5104 2.15625C14.8368 2.48264 15 2.875 15 3.33333V15C15 15.4583 14.8368 15.8507 14.5104 16.1771C14.184 16.5035 13.7917 16.6667 13.3333 16.6667H1.66667ZM1.66667 15H13.3333V3.33333H1.66667V15ZM7.5 2.70833C7.68056 2.70833 7.82986 2.64931 7.94792 2.53125C8.06597 2.41319 8.125 2.26389 8.125 2.08333C8.125 1.90278 8.06597 1.75347 7.94792 1.63542C7.82986 1.51736 7.68056 1.45833 7.5 1.45833C7.31944 1.45833 7.17014 1.51736 7.05208 1.63542C6.93403 1.75347 6.875 1.90278 6.875 2.08333C6.875 2.26389 6.93403 2.41319 7.05208 2.53125C7.17014 2.64931 7.31944 2.70833 7.5 2.70833Z" fill="#F1EAE6"/>
</svg>
