<svg width="28" height="28" viewBox="0 0 28 28" fill="none" xmlns="http://www.w3.org/2000/svg">
<path d="M0 14C0 6.26801 6.26801 0 14 0C21.732 0 28 6.26801 28 14C28 21.732 21.732 28 14 28C6.26801 28 0 21.732 0 14Z" fill="#702B21"/>
<path d="M8.16663 18.1666V12.3333H9.83329V18.1666H8.16663ZM13.1666 18.1666V12.3333H14.8333V18.1666H13.1666ZM5.66663 21.4999V19.8333H22.3333V21.4999H5.66663ZM18.1666 18.1666V12.3333H19.8333V18.1666H18.1666ZM5.66663 10.6666V8.99992L14 4.83325L22.3333 8.99992V10.6666H5.66663ZM9.37496 8.99992H18.625L14 6.70825L9.37496 8.99992Z" fill="#F0F0F0"/>
</svg>
