<svg width="24" height="24" viewBox="0 0 24 24" fill="none" xmlns="http://www.w3.org/2000/svg">
<path d="M0 12C0 5.37258 5.37258 0 12 0C18.6274 0 24 5.37258 24 12C24 18.6274 18.6274 24 12 24C5.37258 24 0 18.6274 0 12Z" fill="#702B21"/>
<path d="M8.66667 18.6666V15.9999H4L6.56667 11.9999H5.33333L10 5.33325L12 8.19992L14 5.33325L18.6667 11.9999H17.4333L20 15.9999H15.3333V18.6666H12.6667V15.9999H11.3333V18.6666H8.66667ZM15.15 14.6666H17.5667L14.9833 10.6666H16.1L14 7.66659L12.8167 9.34992L14.6667 11.9999H13.4333L15.15 14.6666ZM6.43333 14.6666H13.5667L10.9833 10.6666H12.1L10 7.66659L7.9 10.6666H9.01667L6.43333 14.6666ZM6.43333 14.6666H9.01667H7.9H12.1H10.9833H13.5667H6.43333ZM15.15 14.6666H13.4333H14.6667H12.8167H16.1H14.9833H17.5667H15.15Z" fill="#F0F0F0"/>
</svg>
