<svg width="21" height="21" viewBox="0 0 21 21" fill="none" xmlns="http://www.w3.org/2000/svg">
<path d="M0 10.5C0 4.70101 4.70101 0 10.5 0C16.299 0 21 4.70101 21 10.5C21 16.299 16.299 21 10.5 21C4.70101 21 0 16.299 0 10.5Z" fill="#702B21"/>
<path d="M14.5666 4C14.4691 4.25331 14.3717 4.50184 14.2688 4.77904C14.3392 4.77904 14.3987 4.77904 14.4529 4.77904C14.8428 4.7886 15.238 4.75993 15.6171 4.81728C16.4943 4.9511 17.0736 5.67279 16.9924 6.47574C16.9166 7.21176 16.1694 7.81875 15.3084 7.83309C15.2597 7.83309 15.2056 7.83309 15.1352 7.83309C15.2056 7.94301 15.2651 8.03382 15.3247 8.12463C15.5629 8.49743 15.747 8.89412 15.8824 9.30515C15.9149 9.40074 15.8878 9.43897 15.7958 9.47721C15.3301 9.67794 14.8698 9.88346 14.4096 10.0937C14.3284 10.132 14.2634 10.132 14.1822 10.0937C13.6461 9.85 13.1046 9.61103 12.5686 9.36728C12.4819 9.32905 12.4115 9.31949 12.3195 9.3625C11.7509 9.61103 11.1824 9.85 10.6138 10.0985C10.5272 10.1368 10.4622 10.1368 10.3756 10.0985C9.8395 9.85478 9.29803 9.61581 8.76197 9.36728C8.6645 9.32427 8.5941 9.32427 8.49663 9.36728C7.94974 9.61103 7.40284 9.85478 6.85053 10.0937C6.8018 10.1176 6.71517 10.1272 6.67185 10.1033C6.15745 9.8739 5.64847 9.63971 5.13948 9.4103C5.12865 9.40552 5.11782 9.39596 5.10157 9.38162C5.26401 8.84154 5.52393 8.33493 5.86506 7.85699C5.67554 7.83309 5.49685 7.82353 5.32358 7.79007C4.4897 7.61323 3.92655 6.91066 4.00777 6.16985C4.09441 5.40037 4.80376 4.80772 5.67554 4.78382C6.01667 4.77427 6.35779 4.78382 6.72058 4.78382C6.62853 4.5114 6.5419 4.25809 6.44985 4.00478C9.15724 4 11.8646 4 14.5666 4ZM13.6515 6.43272C13.9114 6.64301 14.1551 6.84375 14.4042 7.03971C14.4312 7.0636 14.48 7.07316 14.5179 7.07316C14.7724 7.07794 15.0269 7.07794 15.2814 7.07316C15.747 7.05882 16.1152 6.7386 16.1261 6.33713C16.1369 5.93088 15.8012 5.57243 15.3626 5.55331C14.9294 5.53419 14.5016 5.54375 14.0684 5.54853C14.036 5.54853 13.9764 5.58199 13.9656 5.61066C13.8519 5.88309 13.749 6.16507 13.6515 6.43272ZM6.28199 5.54375C6.09789 5.54375 5.91919 5.53897 5.73509 5.54375C5.24235 5.55331 4.86332 5.88787 4.86874 6.30846C4.86874 6.72904 5.25319 7.0636 5.74593 7.06838C5.98418 7.07316 6.22784 7.07316 6.46609 7.06838C6.52024 7.06838 6.58522 7.03971 6.62854 7.00625C6.85055 6.84375 7.06172 6.67169 7.27831 6.50919C7.33787 6.4614 7.35411 6.42794 7.32704 6.36103C7.22957 6.11728 7.14295 5.87353 7.05089 5.625C7.02924 5.56287 6.99674 5.53897 6.92093 5.53897C6.70434 5.54375 6.49317 5.54375 6.28199 5.54375Z" fill="#F1EAE6"/>
<path d="M16.0882 10.2036C16.2506 11.7522 15.8553 13.1382 14.794 14.3665C14.5774 14.6198 14.35 14.7154 13.9818 14.7106C11.556 14.6915 9.12473 14.7011 6.69891 14.7058C6.59061 14.7058 6.51482 14.6819 6.43901 14.6055C5.57806 13.7452 5.06906 12.7415 4.92828 11.604C4.87955 11.193 4.90121 10.7772 4.89579 10.3613C4.89579 10.304 4.91203 10.2466 4.92286 10.1702C5.29648 10.3374 5.65387 10.5047 6.01666 10.6672C6.217 10.758 6.41734 10.8441 6.61769 10.9444C6.70974 10.9874 6.78014 10.9827 6.86678 10.9444C7.41367 10.7007 7.96597 10.4617 8.51286 10.2132C8.59408 10.1749 8.65365 10.1749 8.74029 10.2132C9.28177 10.4617 9.82325 10.7007 10.3647 10.9444C10.4514 10.9827 10.5163 10.9827 10.603 10.9444C11.1715 10.7007 11.7401 10.4569 12.3086 10.2132C12.3953 10.1749 12.4602 10.1749 12.5469 10.2132C13.0884 10.4617 13.6298 10.7007 14.1713 10.9444C14.258 10.9827 14.3229 10.9827 14.4096 10.9444C14.9186 10.715 15.4275 10.4904 15.9365 10.2658C15.9799 10.2466 16.0232 10.2323 16.0882 10.2036Z" fill="#F1EAE6"/>
<path d="M15.2597 15.4707C15.2597 15.9869 15.2597 16.4887 15.2597 17.0001C12.0866 17.0001 8.91895 17.0001 5.74048 17.0001C5.74048 16.4887 5.74048 15.9869 5.74048 15.4707C8.91354 15.4707 12.0758 15.4707 15.2597 15.4707Z" fill="#F1EAE6"/>
</svg>
