<svg width="24" height="24" viewBox="0 0 24 24" fill="none" xmlns="http://www.w3.org/2000/svg">
<path d="M0 12C0 5.37258 5.37258 0 12 0C18.6274 0 24 5.37258 24 12C24 18.6274 18.6274 24 12 24C5.37258 24 0 18.6274 0 12Z" fill="#702B21"/>
<path d="M12 18L7.33329 15.4667V11.4667L4.66663 10L12 6L19.3333 10V15.3333H18V10.7333L16.6666 11.4667V15.4667L12 18ZM12 12.4667L16.5666 10L12 7.53333L7.43329 10L12 12.4667ZM12 16.4833L15.3333 14.6833V12.1667L12 14L8.66663 12.1667V14.6833L12 16.4833Z" fill="#F0F0F0"/>
</svg>
