<svg width="397" height="582" viewBox="0 0 397 582" fill="none" xmlns="http://www.w3.org/2000/svg">
<path d="M372.11 546.226L368.998 581.989L304.284 579.238L298.683 553.792C297.19 528.482 286.86 519.863 281.882 518.716L275.66 506.337L163.654 423.119L135.652 378.415L143.119 372.225L90.8495 278.004L69.6928 282.818L44.8025 254.62L47.9138 222.984C62.5646 209.795 77.5994 208.177 95.2053 213.355L108.895 248.43H116.984L128.185 194.786L140.008 192.723L143.119 183.782L160.542 186.533L169.254 154.209V120.509C148.346 116.107 144.778 94.3743 145.608 84.058L94.5831 200.288L69.6928 209.916L38.5799 216.106L9.33385 242.241L0 234.675L34.8464 206.478L68.4483 203.727L90.8495 192.723L135.652 84.058L131.918 77.8683L108.895 79.2438V72.3663L133.785 65.4888L119.473 11.1565H108.895V1.52781C198.5 -6.175 338.3 17.1168 397 29.7256V135.639C394.303 186.533 387.168 301.662 380.199 355.032C373.23 408.401 371.902 504.732 372.11 546.226Z" fill="#79A66D"/>
</svg>
