<svg width="761" height="466" viewBox="0 0 761 466" fill="none" xmlns="http://www.w3.org/2000/svg">
<path d="M573.37 462.471L519.704 464.25C514.008 464.439 506.288 465.496 504.44 460.105C503.992 458.797 503.756 457.106 503.677 454.906L498.699 405.388L472.564 313.917M472.564 313.917L419.673 332.486L371.759 345.725M472.564 313.917L448.296 244.454C481.707 230.989 507.281 210.715 559.058 166.051L648.663 101.402C656.13 100.485 676.416 102.777 697.821 119.283L726.899 145.626C732.798 150.97 738.038 157 742.507 163.586L760.047 189.434M173.259 275.403L244.818 382.692L258.508 377.19L315.756 360.684L371.759 345.725M173.259 275.403L270.571 267.12C270.575 250.763 269.484 243.144 267.22 230.011L258.508 217.632L250.419 205.94L315.756 0.302734M173.259 275.403C165.377 275.174 144.759 269.626 125.345 249.268C118.293 238.264 97.8413 220.245 72.4532 236.201L54.4078 247.205L0.893677 140.604M371.759 345.725L356.202 255.458" stroke="#431A14" stroke-width="2" stroke-dasharray="6 6"/>
</svg>
