<svg width="32" height="32" viewBox="0 0 32 32" fill="none" xmlns="http://www.w3.org/2000/svg">
<path d="M0 16C0 7.16344 7.16344 0 16 0C24.8366 0 32 7.16344 32 16C32 24.8366 24.8366 32 16 32C7.16344 32 0 24.8366 0 16Z" fill="#702B21"/>
<path d="M6 26V18L10 16.225V13L15 10.5V9H13V7H15V5H17V7H19V9H17V10.5L22 13V16.225L26 18V26H17V22C17 21.7167 16.9042 21.4792 16.7125 21.2875C16.5208 21.0958 16.2833 21 16 21C15.7167 21 15.4792 21.0958 15.2875 21.2875C15.0958 21.4792 15 21.7167 15 22V26H6ZM8 24H13V21.95C13 21.1 13.2917 20.3792 13.875 19.7875C14.4583 19.1958 15.1667 18.9 16 18.9C16.8333 18.9 17.5417 19.1958 18.125 19.7875C18.7083 20.3792 19 21.1 19 21.95V24H24V19.2L20 17.4V14.05L16 12L12 14.05V17.4L8 19.2V24ZM16 17.5C16.4167 17.5 16.7708 17.3542 17.0625 17.0625C17.3542 16.7708 17.5 16.4167 17.5 16C17.5 15.5833 17.3542 15.2292 17.0625 14.9375C16.7708 14.6458 16.4167 14.5 16 14.5C15.5833 14.5 15.2292 14.6458 14.9375 14.9375C14.6458 15.2292 14.5 15.5833 14.5 16C14.5 16.4167 14.6458 16.7708 14.9375 17.0625C15.2292 17.3542 15.5833 17.5 16 17.5Z" fill="#F0F0F0"/>
</svg>
