<svg width="24" height="24" viewBox="0 0 24 24" fill="none" xmlns="http://www.w3.org/2000/svg">
<path d="M12 0.5C18.3513 0.5 23.5 5.64873 23.5 12C23.5 18.3513 18.3513 23.5 12 23.5C5.64873 23.5 0.5 18.3513 0.5 12C0.5 5.64873 5.64873 0.5 12 0.5Z" fill="#702B21"/>
<path d="M12 0.5C18.3513 0.5 23.5 5.64873 23.5 12C23.5 18.3513 18.3513 23.5 12 23.5C5.64873 23.5 0.5 18.3513 0.5 12C0.5 5.64873 5.64873 0.5 12 0.5Z" stroke="#D1D1D1"/>
<path d="M17.005 4C16.8851 4.31176 16.7651 4.61765 16.6385 4.95882C16.7251 4.95882 16.7985 4.95882 16.8651 4.95882C17.3449 4.97059 17.8314 4.9353 18.2979 5.00588C19.3776 5.17059 20.0906 6.05882 19.9907 7.04706C19.8974 7.95294 18.9777 8.7 17.9181 8.71765C17.8581 8.71765 17.7914 8.71765 17.7048 8.71765C17.7914 8.85294 17.8648 8.96471 17.9381 9.07647C18.2313 9.53529 18.4579 10.0235 18.6245 10.5294C18.6645 10.6471 18.6312 10.6941 18.5179 10.7412C17.9447 10.9882 17.3783 11.2412 16.8118 11.5C16.7118 11.5471 16.6318 11.5471 16.5319 11.5C15.8721 11.2 15.2057 10.9059 14.5459 10.6059C14.4393 10.5588 14.3526 10.5471 14.2393 10.6C13.5396 10.9059 12.8398 11.2 12.1401 11.5059C12.0334 11.5529 11.9535 11.5529 11.8468 11.5059C11.1871 11.2059 10.5207 10.9118 9.86088 10.6059C9.74093 10.5529 9.65427 10.5529 9.53432 10.6059C8.86122 10.9059 8.18811 11.2059 7.50835 11.5C7.44837 11.5294 7.34175 11.5412 7.28844 11.5118C6.65532 11.2294 6.02888 10.9412 5.40243 10.6588C5.38911 10.6529 5.37577 10.6412 5.35578 10.6235C5.55571 9.95882 5.8756 9.3353 6.29545 8.74706C6.0622 8.71765 5.84228 8.70588 5.62902 8.66471C4.60271 8.44706 3.9096 7.58235 4.00957 6.67059C4.1162 5.72353 4.98924 4.99412 6.0622 4.96471C6.48205 4.95294 6.9019 4.96471 7.34841 4.96471C7.23512 4.62941 7.12849 4.31765 7.01519 4.00588C10.3474 4 13.6795 4 17.005 4ZM15.8788 6.99412C16.1987 7.25294 16.4986 7.5 16.8051 7.74118C16.8384 7.77059 16.8984 7.78235 16.9451 7.78235C17.2583 7.78824 17.5715 7.78824 17.8847 7.78235C18.4579 7.76471 18.911 7.37059 18.9244 6.87647C18.9377 6.37647 18.5245 5.93529 17.9847 5.91176C17.4516 5.88824 16.9251 5.9 16.3919 5.90588C16.3519 5.90588 16.2786 5.94706 16.2653 5.98235C16.1254 6.31765 15.9987 6.66471 15.8788 6.99412ZM6.8086 5.9C6.58201 5.9 6.36208 5.89412 6.1355 5.9C5.52904 5.91177 5.06255 6.32353 5.06922 6.84118C5.06922 7.35882 5.54238 7.77059 6.14884 7.77647C6.44207 7.78235 6.74196 7.78235 7.03519 7.77647C7.10183 7.77647 7.18181 7.74118 7.23513 7.7C7.50837 7.5 7.76827 7.28824 8.03484 7.08824C8.10815 7.02941 8.12814 6.98824 8.09482 6.90588C7.97486 6.60588 7.86824 6.30588 7.75495 6C7.72829 5.92353 7.68829 5.89412 7.59499 5.89412C7.32842 5.9 7.06851 5.9 6.8086 5.9Z" fill="#F0F0F0"/>
<path d="M18.8777 11.6354C19.0777 13.5413 18.5912 15.2472 17.2849 16.7589C17.0184 17.0707 16.7385 17.1884 16.2853 17.1825C13.2997 17.1589 10.3074 17.1707 7.32174 17.1766C7.18846 17.1766 7.09517 17.1472 7.00187 17.0531C5.94224 15.9942 5.31578 14.7589 5.14251 13.3589C5.08253 12.8531 5.10919 12.3413 5.10252 11.8295C5.10252 11.7589 5.12251 11.6884 5.13584 11.5942C5.59568 11.8001 6.03554 12.006 6.48205 12.206C6.72863 12.3178 6.9752 12.4237 7.22178 12.5472C7.33507 12.6001 7.42173 12.5942 7.52836 12.5472C8.20145 12.2472 8.8812 11.9531 9.5543 11.6472C9.65427 11.6001 9.72758 11.6001 9.83421 11.6472C10.5006 11.9531 11.1671 12.2472 11.8335 12.5472C11.9401 12.5942 12.0201 12.5942 12.1267 12.5472C12.8265 12.2472 13.5263 11.9472 14.226 11.6472C14.3326 11.6001 14.4126 11.6001 14.5192 11.6472C15.1857 11.9531 15.8521 12.2472 16.5185 12.5472C16.6252 12.5942 16.7052 12.5942 16.8118 12.5472C17.4382 12.2648 18.0647 11.9884 18.6911 11.7119C18.7444 11.6884 18.7978 11.6707 18.8777 11.6354Z" fill="#F1EAE6"/>
<path d="M17.8581 18.1177C17.8581 18.753 17.8581 19.3706 17.8581 20C13.9528 20 10.0542 20 6.14221 20C6.14221 19.3706 6.14221 18.753 6.14221 18.1177C10.0475 18.1177 13.9395 18.1177 17.8581 18.1177Z" fill="#F1EAE6"/>
</svg>
