<svg width="116" height="16" viewBox="0 0 116 16" fill="none" xmlns="http://www.w3.org/2000/svg">
<path d="M4.91797 12.0176L1.50245 2.41931H1.4392C1.44974 2.63015 1.46555 2.91478 1.48663 3.2732C1.50772 3.63161 1.52353 4.01639 1.53407 4.42752C1.54461 4.83865 1.54988 5.2445 1.54988 5.64509V12.0176H0.000246433V0.727363H2.43539L5.67698 9.788H5.74023L9.07669 0.727363H11.5118V12.0176H9.85151V5.55021C9.85151 5.18125 9.85678 4.80175 9.86733 4.4117C9.88841 4.01112 9.90422 3.63689 9.91476 3.28901C9.93585 2.94113 9.95166 2.6565 9.9622 2.43513H9.89895L6.38855 12.0176H4.91797ZM17.6783 3.33645C18.4267 3.33645 19.0698 3.49457 19.6074 3.81082C20.145 4.11654 20.5562 4.55929 20.8408 5.13909C21.136 5.71888 21.2835 6.4041 21.2835 7.19473V8.11186H15.5594C15.5805 8.98682 15.8071 9.65623 16.2393 10.1201C16.6821 10.5839 17.2988 10.8158 18.0894 10.8158C18.6376 10.8158 19.1225 10.7684 19.5442 10.6735C19.9764 10.5681 20.4191 10.4152 20.8724 10.2149V11.6064C20.4507 11.7962 20.0185 11.9385 19.5758 12.0334C19.1436 12.1283 18.627 12.1757 18.0261 12.1757C17.2039 12.1757 16.4765 12.0123 15.844 11.6855C15.2115 11.3587 14.716 10.8738 14.3576 10.2308C14.0097 9.57716 13.8358 8.77599 13.8358 7.82723C13.8358 6.86793 13.9939 6.05622 14.3102 5.39209C14.637 4.72796 15.085 4.22195 15.6543 3.87408C16.234 3.51566 16.9087 3.33645 17.6783 3.33645ZM17.6783 4.63308C17.0774 4.63308 16.5925 4.8281 16.2235 5.21815C15.8651 5.60819 15.6543 6.16164 15.591 6.87847H19.6074C19.6074 6.43572 19.5389 6.04568 19.4018 5.70834C19.2648 5.371 19.054 5.10746 18.7693 4.91771C18.4847 4.72796 18.121 4.63308 17.6783 4.63308ZM27.6919 3.33645C28.6828 3.33645 29.4418 3.58418 29.9689 4.07964C30.496 4.5751 30.7595 5.371 30.7595 6.46735V12.0176H29.0992V6.70454C29.0992 6.04041 28.9569 5.54494 28.6722 5.21815C28.3982 4.88081 27.9554 4.71214 27.344 4.71214C26.4796 4.71214 25.8787 4.97042 25.5413 5.48696C25.2145 6.00351 25.0512 6.7467 25.0512 7.71654V12.0176H23.375V3.49457H24.7033L24.9405 4.63308H25.0353C25.2251 4.33791 25.457 4.09545 25.7311 3.9057C26.0052 3.71595 26.3109 3.57364 26.6482 3.47876C26.9856 3.38388 27.3334 3.33645 27.6919 3.33645ZM40.6722 3.49457V12.0176H39.3281L39.0909 10.8949H39.0118C38.8326 11.1901 38.6007 11.4325 38.3161 11.6223C38.0315 11.812 37.7205 11.9491 37.3831 12.0334C37.0458 12.1283 36.6979 12.1757 36.3395 12.1757C35.6754 12.1757 35.1114 12.0703 34.6476 11.8595C34.1943 11.6381 33.8464 11.3007 33.6039 10.8474C33.372 10.3836 33.2561 9.79327 33.2561 9.07643V3.49457H34.948V8.82343C34.948 9.48756 35.085 9.98302 35.3591 10.3098C35.6438 10.6366 36.0812 10.8 36.6716 10.8C37.2619 10.8 37.7258 10.684 38.0631 10.4521C38.4004 10.2202 38.6376 9.88287 38.7747 9.44012C38.9222 8.98682 38.996 8.44392 38.996 7.81142V3.49457H40.6722ZM50.3281 12.1757C49.3056 12.1757 48.4781 11.8067 47.8455 11.0688C47.2236 10.3309 46.9126 9.23456 46.9126 7.77979C46.9126 6.31449 47.2289 5.20761 47.8614 4.45914C48.4939 3.71068 49.3267 3.33645 50.3598 3.33645C50.792 3.33645 51.1662 3.39443 51.4824 3.51038C51.8092 3.6158 52.0886 3.76339 52.3205 3.95314C52.563 4.14289 52.7685 4.35373 52.9372 4.58564H53.0321C53.011 4.43806 52.9846 4.22722 52.953 3.95314C52.9214 3.66851 52.9056 3.41551 52.9056 3.19413V-1.83393e-05H54.5817V12.0176H53.2693L52.9846 10.8791H52.9056C52.7475 11.1215 52.5472 11.3429 52.3047 11.5432C52.0728 11.733 51.7934 11.8858 51.4666 12.0018C51.1398 12.1177 50.7603 12.1757 50.3281 12.1757ZM50.7234 10.8C51.5457 10.8 52.1255 10.5734 52.4628 10.1201C52.8002 9.65623 52.9688 8.96574 52.9688 8.04861V7.79561C52.9688 6.79414 52.8054 6.02986 52.4786 5.50278C52.1624 4.97569 51.5721 4.71214 50.7076 4.71214C50.0224 4.71214 49.5059 4.9915 49.158 5.55021C48.8101 6.09838 48.6362 6.85212 48.6362 7.81142C48.6362 8.77072 48.8101 9.50864 49.158 10.0252C49.5059 10.5417 50.0277 10.8 50.7234 10.8ZM60.5608 3.33645C61.3092 3.33645 61.9523 3.49457 62.4899 3.81082C63.0275 4.11654 63.4386 4.55929 63.7233 5.13909C64.0184 5.71888 64.166 6.4041 64.166 7.19473V8.11186H58.4419C58.4629 8.98682 58.6896 9.65623 59.1218 10.1201C59.5646 10.5839 60.1812 10.8158 60.9719 10.8158C61.5201 10.8158 62.005 10.7684 62.4266 10.6735C62.8589 10.5681 63.3016 10.4152 63.7549 10.2149V11.6064C63.3332 11.7962 62.901 11.9385 62.4583 12.0334C62.0261 12.1283 61.5095 12.1757 60.9086 12.1757C60.0864 12.1757 59.359 12.0123 58.7265 11.6855C58.094 11.3587 57.5985 10.8738 57.2401 10.2308C56.8922 9.57716 56.7183 8.77599 56.7183 7.82723C56.7183 6.86793 56.8764 6.05622 57.1927 5.39209C57.5195 4.72796 57.9675 4.22195 58.5367 3.87408C59.1165 3.51566 59.7912 3.33645 60.5608 3.33645ZM60.5608 4.63308C59.9599 4.63308 59.475 4.8281 59.106 5.21815C58.7476 5.60819 58.5367 6.16164 58.4735 6.87847H62.4899C62.4899 6.43572 62.4214 6.04568 62.2843 5.70834C62.1473 5.371 61.9365 5.10746 61.6518 4.91771C61.3672 4.72796 61.0035 4.63308 60.5608 4.63308ZM67.9336 12.0176H66.2575V-1.83393e-05H67.9336V12.0176ZM84.2242 3.33645C85.1835 3.33645 85.9056 3.58418 86.3906 4.07964C86.8755 4.5751 87.1179 5.371 87.1179 6.46735V12.0176H85.4418V6.68872C85.4418 6.03513 85.31 5.54494 85.0465 5.21815C84.7935 4.88081 84.3929 4.71214 83.8447 4.71214C83.0857 4.71214 82.5428 4.94933 82.216 5.42371C81.8892 5.88755 81.7258 6.56222 81.7258 7.44773V12.0176H80.0655V6.68872C80.0655 6.25651 80.0022 5.89282 79.8757 5.59765C79.7598 5.30248 79.5859 5.08111 79.3539 4.93352C79.122 4.78594 78.8216 4.71214 78.4526 4.71214C77.9255 4.71214 77.5091 4.8281 77.2034 5.06002C76.8977 5.29194 76.6763 5.63455 76.5393 6.08784C76.4128 6.5306 76.3495 7.0735 76.3495 7.71654V12.0176H74.6734V3.49457H76.0017L76.2388 4.63308H76.3337C76.5129 4.33791 76.729 4.09545 76.982 3.9057C77.2456 3.71595 77.5355 3.57364 77.8517 3.47876C78.168 3.38388 78.4948 3.33645 78.8321 3.33645C79.4752 3.33645 80.0181 3.45241 80.4608 3.68432C80.9036 3.9057 81.2251 4.24831 81.4254 4.71214H81.5519C81.826 4.23777 82.2055 3.88989 82.6904 3.66851C83.1753 3.44713 83.6866 3.33645 84.2242 3.33645ZM92.9879 3.33645C94.0631 3.33645 94.8643 3.57364 95.3914 4.04801C95.9185 4.51185 96.182 5.2445 96.182 6.24597V12.0176H94.9961L94.664 10.8316H94.6008C94.3583 11.1373 94.1053 11.3903 93.8418 11.5906C93.5888 11.7909 93.2936 11.9385 92.9563 12.0334C92.6295 12.1283 92.2289 12.1757 91.7545 12.1757C91.2485 12.1757 90.7899 12.0861 90.3788 11.9069C89.9782 11.7171 89.662 11.4325 89.43 11.053C89.1981 10.663 89.0822 10.178 89.0822 9.59825C89.0822 8.73382 89.409 8.07496 90.0625 7.62167C90.7267 7.16837 91.7334 6.92064 93.0828 6.87847L94.5375 6.83104V6.35666C94.5375 5.72415 94.3952 5.2814 94.1106 5.0284C93.8259 4.7754 93.4254 4.64889 92.9088 4.64889C92.4661 4.64889 92.0444 4.71214 91.6438 4.83865C91.2432 4.96515 90.8637 5.118 90.5053 5.29721L89.9677 4.07964C90.3683 3.8688 90.8268 3.69487 91.3434 3.55782C91.8705 3.41024 92.4186 3.33645 92.9879 3.33645ZM93.3832 7.95373C92.4134 7.9959 91.7387 8.1593 91.3592 8.44392C90.9902 8.71801 90.8057 9.10805 90.8057 9.61406C90.8057 10.0568 90.9375 10.3783 91.2011 10.5786C91.4751 10.7789 91.8177 10.8791 92.2289 10.8791C92.893 10.8791 93.4412 10.6946 93.8734 10.3256C94.3056 9.95667 94.5217 9.40322 94.5217 8.6653V7.92211L93.3832 7.95373ZM103.017 3.33645C104.039 3.33645 104.861 3.70541 105.483 4.44333C106.116 5.18125 106.432 6.28287 106.432 7.74817C106.432 8.70747 106.29 9.51918 106.005 10.1833C105.72 10.8474 105.32 11.3482 104.803 11.6855C104.287 12.0123 103.686 12.1757 103.001 12.1757C102.569 12.1757 102.189 12.123 101.862 12.0176C101.535 11.9016 101.256 11.754 101.024 11.5748C100.803 11.3851 100.608 11.1848 100.439 10.9739H100.328C100.36 11.1637 100.386 11.3903 100.407 11.6539C100.429 11.9069 100.439 12.1335 100.439 12.3338V15.8126H98.7629V3.49457H100.123L100.36 4.63308H100.439C100.608 4.40116 100.808 4.18506 101.04 3.98476C101.272 3.78447 101.551 3.62634 101.878 3.51038C102.205 3.39443 102.584 3.33645 103.017 3.33645ZM102.621 4.71214C102.094 4.71214 101.672 4.81756 101.356 5.0284C101.04 5.22869 100.808 5.5344 100.66 5.94553C100.523 6.34612 100.45 6.85739 100.439 7.47935V7.73236C100.439 8.38594 100.508 8.94466 100.645 9.40849C100.782 9.86179 101.008 10.2097 101.325 10.4521C101.651 10.684 102.094 10.8 102.653 10.8C103.127 10.8 103.512 10.6735 103.807 10.4205C104.113 10.157 104.34 9.79327 104.487 9.32943C104.635 8.86559 104.708 8.32797 104.708 7.71654C104.708 6.78887 104.54 6.05622 104.202 5.51859C103.865 4.98096 103.338 4.71214 102.621 4.71214ZM111.873 3.33645C112.949 3.33645 113.75 3.57364 114.277 4.04801C114.804 4.51185 115.068 5.2445 115.068 6.24597V12.0176H113.882L113.55 10.8316H113.486C113.244 11.1373 112.991 11.3903 112.727 11.5906C112.474 11.7909 112.179 11.9385 111.842 12.0334C111.515 12.1283 111.114 12.1757 110.64 12.1757C110.134 12.1757 109.676 12.0861 109.264 11.9069C108.864 11.7171 108.548 11.4325 108.316 11.053C108.084 10.663 107.968 10.178 107.968 9.59825C107.968 8.73382 108.295 8.07496 108.948 7.62167C109.612 7.16837 110.619 6.92064 111.968 6.87847L113.423 6.83104V6.35666C113.423 5.72415 113.281 5.2814 112.996 5.0284C112.712 4.7754 112.311 4.64889 111.794 4.64889C111.352 4.64889 110.93 4.71214 110.529 4.83865C110.129 4.96515 109.749 5.118 109.391 5.29721L108.853 4.07964C109.254 3.8688 109.712 3.69487 110.229 3.55782C110.756 3.41024 111.304 3.33645 111.873 3.33645ZM112.269 7.95373C111.299 7.9959 110.624 8.1593 110.245 8.44392C109.876 8.71801 109.691 9.10805 109.691 9.61406C109.691 10.0568 109.823 10.3783 110.087 10.5786C110.361 10.7789 110.703 10.8791 111.114 10.8791C111.779 10.8791 112.327 10.6946 112.759 10.3256C113.191 9.95667 113.407 9.40322 113.407 8.6653V7.92211L112.269 7.95373Z" fill="#555555"/>
</svg>
