<svg width="1095" height="642" viewBox="0 0 1095 642" fill="none" xmlns="http://www.w3.org/2000/svg">
<path d="M86.1949 38.7661L30.5195 25.844C27.4469 40.4864 25.726 47.434 22.6594 57.1289L30.5195 80.9327L84.2299 61.8897L86.1949 38.7661Z" fill="#D1D1D1"/>
<path d="M158.901 50.3279C148.42 49.7838 111.303 42.3933 94.055 38.7661L91.435 60.5295H95.365L105.845 100.656L164.141 96.5751L158.901 50.3279Z" fill="#D1D1D1"/>
<path d="M103.88 104.736L94.055 65.2902H90.125L69.1648 179.548C71.3482 201.992 81.8719 255.448 106.5 289.725C111.958 296.753 123.137 315.161 124.185 332.572C124.185 336.879 125.102 346.038 128.77 348.215C132.264 346.854 139.774 343.454 141.87 340.733C145.8 338.92 155.233 336.381 161.521 340.733L207.371 378.819L246.016 386.981L261.736 330.532H293.177C300.382 323.957 315.709 306.592 319.377 289.725L378.327 115.35L306.277 62.5698C273.789 64.2021 196.673 55.0886 162.176 50.3279L168.071 100.656L103.88 104.736Z" fill="#D1D1D1"/>
<path d="M615.44 299.927V289.045L387.498 122.068L359.987 197.231L426.798 365.897L525.049 353.655L615.44 299.927Z" fill="#D1D1D1"/>
<path d="M84.2299 68.0107L61.9597 160.505L63.9248 179.548C65.1823 191.099 68.1028 209.076 72.9255 227.836C78.9878 251.418 88.0559 276.237 100.605 291.086C106.718 298.793 118.683 317.882 117.635 332.572C118.202 335.907 119.946 342.739 122.782 346.634C123.308 347.2 123.776 347.736 124.185 348.215C123.691 347.775 123.224 347.24 122.782 346.634C118.825 342.37 111.629 336.411 101.915 340.733L53.0555 248.239L37.7245 249.599L25.2794 251.639L12.1793 265.242V297.207H1.04422V248.239C8.46761 249.372 23.1834 246.879 22.6594 227.836C18.468 213.689 6.50287 213.327 1.04422 214.914C-4.19583 165.946 11.524 93.628 20.6941 63.93L27.8991 88.4138L84.2299 68.0107Z" fill="#D1D1D1"/>
<path d="M738.58 209.473L632.469 280.204L584.654 244.838L640.329 197.231L617.404 173.427L561.074 226.475L523.738 197.231L536.839 178.868L544.699 148.263V97.2552L532.908 61.2096L492.953 52.3682L570.244 40.8064L738.58 209.473Z" fill="#D1D1D1"/>
<path d="M633.779 197.231L582.689 242.798L565.004 229.196L617.404 180.908L633.779 197.231Z" fill="#D1D1D1"/>
<path d="M532.908 176.148L520.463 193.83L394.047 106.777L401.252 61.2096L482.473 55.0886L528.978 64.6101L540.114 96.5751L539.459 148.263L532.908 176.148Z" fill="#D1D1D1"/>
<path d="M386.187 102.696L393.392 61.8897L335.097 62.5698L386.187 102.696Z" fill="#D1D1D1"/>
<path d="M912.157 76.852L918.707 80.9327L904.297 111.537L880.716 102.696V80.9327L912.157 76.852Z" fill="#D1D1D1"/>
<path d="M876.131 107.457L904.297 116.298L871.546 184.989L849.931 197.231L812.596 199.951L774.606 229.196L751.025 214.234V205.392L724.17 180.908L738.58 167.986L719.585 144.863L700.59 157.105L637.054 96.5751L758.23 93.8547L771.331 135.341L796.876 128.54L792.291 90.4542L876.131 80.9327V107.457Z" fill="#D1D1D1"/>
<path d="M732.03 166.626L719.585 178.188L704.52 159.825L719.585 149.623L732.03 166.626Z" fill="#D1D1D1"/>
<path d="M774.606 129.9L762.815 93.8547L787.706 90.4542L792.291 125.14L774.606 129.9Z" fill="#D1D1D1"/>
<path d="M716.31 15.6424L887.266 0L890.542 11.5618H900.367L915.432 61.2096L890.542 68.0107V44.2069H887.266L885.302 70.0928L758.23 85.6934L630.504 88.4138L591.204 52.3682L595.789 34.0053L646.879 26.5242L665.22 40.8064L719.585 34.0053L716.31 15.6424Z" fill="#D1D1D1"/>
<path d="M666.53 35.3655L652.775 25.1639L711.725 17.0027L713.69 29.9247L666.53 35.3655Z" fill="#D1D1D1"/>
<path d="M13.489 304.688H1.04422V357.736L18.0741 359.096L13.489 304.688Z" fill="#D1D1D1"/>
<path d="M198.856 384.26L195.581 406.704L164.14 399.223H125.495L111.74 403.983V478.795H96.6747L105.845 562.448L118.945 584.211H125.495L141.215 608.695L88.8147 597.814C70.4745 568.977 67.1995 539.098 67.8545 527.763C69.4265 505.999 67.1995 467.007 65.8895 450.231C59.0774 420.306 58.2477 389.248 58.6844 377.459H96.6747L101.915 374.059C108.203 376.779 120.255 373.832 125.495 372.018L131.579 355.058L141.87 351.615C153.923 347.262 163.922 355.696 167.415 360.456C172.131 367.53 190.34 379.273 198.856 384.26Z" fill="#D1D1D1"/>
<path d="M181.825 617.537L229.641 582.851L193.616 510.76H204.362L195.581 413.807L164.14 403.983H125.495L116.325 408.064V484.916H103.225L110.43 559.728L120.91 579.451H127.46L147.11 610.056L151.04 606.655L156.935 612.776L181.825 617.537Z" fill="#D1D1D1"/>
<path d="M415.662 542.725C419.854 552.518 432.693 551.793 438.588 550.206C442.256 556.191 444.919 578.091 445.793 588.292C433.388 582.478 426.318 579.452 413.697 574.69C408.457 573.058 408.021 577.184 408.457 579.451C409.261 589.131 409.68 594.362 410.422 602.574H374.397C373.873 584.62 360.642 563.808 354.092 555.647L358.677 546.806L386.187 537.284L395.357 542.725H415.662Z" fill="#D1D1D1"/>
<path d="M578.759 586.252C576.663 610.192 591.422 632.952 599.064 641.34H576.794L571.554 620.937H564.349L557.144 590.332L578.759 586.252Z" fill="#D1D1D1"/>
<path d="M569.589 625.018L573.519 641.34H473.303V605.295C491.067 591.743 481.647 567.927 460.858 572.65L458.893 564.488H449.068L444.483 542.725C448.408 535.108 446.118 526.856 444.483 523.682L544.044 501.239L552.38 525.042L557.144 526.402L562.384 542.725H573.519L578.759 580.811L552.38 586.252L562.384 625.018H569.589Z" fill="#D1D1D1"/>
<path d="M470.028 606.655V641.34H460.858L456.273 605.295C460.465 608.559 467.19 607.562 470.028 606.655Z" fill="#D1D1D1"/>
<path d="M451.033 582.171C452.605 578.907 455.618 575.823 457.583 574.69L456.273 567.889H449.068L451.033 582.171Z" fill="#D1D1D1"/>
<path d="M689.455 342.094L779.191 447.51L701.9 467.233L715.655 511.44L694.695 518.921V523.682L690.765 524.362L687.49 520.962L673.08 523.682V528.443H655.394L646.879 475.394H612.819L601.029 427.107L625.919 417.585L597.099 342.094L653.43 312.849L689.455 342.094Z" fill="#D1D1D1"/>
<path d="M751.025 347.534L727.445 365.217L746.44 382.9L764.125 367.938L776.571 382.9L760.195 396.502L784.431 425.067L800.806 414.185L814.561 431.868L796.876 442.069L826.351 478.115L837.486 469.273L849.931 482.195L837.486 492.397L914.122 590.332C939.274 580.539 1020.23 573.556 1057.57 571.289L1053.64 544.765L1043.81 532.523L988.792 528.443L965.867 516.201L964.557 511.44L980.277 486.276L900.367 439.349L880.061 410.104L855.826 353.655L815.871 293.126V287.005L806.701 283.604V273.403C770.64 240.008 744.374 240.465 704.52 270.002L712.38 280.204C718.144 288.909 716.092 296.98 714.345 299.927L734.65 319.65L751.025 347.534Z" fill="#D1D1D1"/>
<path d="M834.866 524.362L888.576 595.773L853.206 605.295L844.036 590.332L853.206 582.171L814.561 530.483C823.923 532.118 828.543 531.311 834.866 524.362Z" fill="#D1D1D1"/>
<path d="M837.486 590.332L849.931 607.335L804.081 617.537L777.226 563.808L747.095 571.289L734.65 536.604L793.601 514.16L804.081 524.362V530.483H809.321L847.311 582.171L837.486 590.332Z" fill="#D1D1D1"/>
<path d="M775.261 569.249L798.841 619.577C796.221 621.209 778.972 622.071 770.675 622.297C752.335 621.753 723.733 629.779 711.725 633.859L625.919 641.34L604.959 633.859C593.431 627.874 587.056 599.627 585.309 586.252L652.775 582.171L660.635 586.252H676.355H685.525V578.091L729.41 573.33L728.1 563.808L685.525 567.889L652.775 571.289L585.309 573.33L582.034 530.483L676.355 532.523V525.722L685.525 524.362L690.765 528.443L697.315 527.083L699.935 520.962L721.55 514.16L707.795 469.273L781.156 452.951L814.561 497.838C805.129 502.191 803.644 513.707 804.081 518.921L796.876 509.4L728.1 534.564L745.13 578.091L775.261 569.249Z" fill="#D1D1D1"/>
<path d="M1057.57 543.405L1061.5 571.289L1094.9 569.249C1091.24 567.617 1089.88 552.246 1089.66 544.765C1087.57 529.531 1077 518.014 1071.98 514.16L940.977 435.948L908.227 410.104L889.886 382.9L855.826 321.69C851.634 323.323 843.163 321.01 839.451 319.65L855.826 345.494L880.061 402.623L900.367 431.868L983.552 482.876V488.316L967.832 511.44L969.142 514.841L988.792 523.682L1045.12 528.443L1057.57 543.405Z" fill="#D1D1D1"/>
<path d="M833.556 312.849C833.529 312.782 833.502 312.714 833.474 312.644C829.662 303.12 824.757 298.486 818.491 287.005H830.281L835.521 291.766C829.847 298.193 831.747 308.224 833.474 312.644C833.502 312.712 833.529 312.78 833.556 312.849Z" fill="#D1D1D1"/>
<path d="M847.366 482.195L836.314 490.535L827.893 479.658L837.486 471.747L847.366 482.195Z" fill="#D1D1D1"/>
<path d="M812.63 431.202L795.787 440.597L785.261 426.258L800.806 415.875L812.63 431.202Z" fill="#D1D1D1"/>
<path d="M774.735 382.253L758.945 395.108L747.893 383.736L764.125 369.891L774.735 382.253Z" fill="#D1D1D1"/>
</svg>
