<svg width="16" height="16" viewBox="0 0 16 16" fill="none" xmlns="http://www.w3.org/2000/svg">
<path d="M12.6666 7.33325C13.0333 7.33325 13.3472 7.2027 13.6083 6.94159C13.8694 6.68047 14 6.36659 14 5.99992C14 5.68881 13.9277 5.44992 13.7833 5.28325C13.6388 5.11659 13.4888 4.95547 13.3333 4.79992V3.33325C13.3333 3.14436 13.2694 2.98603 13.1416 2.85825C13.0138 2.73047 12.8555 2.66659 12.6666 2.66659C12.4777 2.66659 12.3194 2.73047 12.1916 2.85825C12.0638 2.98603 12 3.14436 12 3.33325V4.79992C11.8444 4.95547 11.6944 5.11659 11.55 5.28325C11.4055 5.44992 11.3333 5.68881 11.3333 5.99992C11.3333 6.36659 11.4638 6.68047 11.725 6.94159C11.9861 7.2027 12.3 7.33325 12.6666 7.33325ZM3.33329 8.66659H5.13329L4.49996 7.64992C4.43329 7.54992 4.35274 7.47214 4.25829 7.41659C4.16385 7.36103 4.05551 7.33325 3.93329 7.33325H3.33329V8.66659ZM3.33329 12.6666H8.73329C8.38885 12.6666 8.0694 12.5833 7.77496 12.4166C7.48051 12.2499 7.23885 12.0221 7.04996 11.7333L5.96663 9.99992H3.33329V12.6666ZM0.666626 13.9999V12.6666H1.99996V4.66659H3.33329V5.99992H3.93329C4.27774 5.99992 4.59718 6.08325 4.89163 6.24992C5.18607 6.41659 5.42774 6.64436 5.61663 6.93325L8.16663 11.0166C8.23329 11.1166 8.31385 11.1944 8.40829 11.2499C8.50274 11.3055 8.61107 11.3333 8.73329 11.3333H10.6666V12.6666H12V8.56659C11.4222 8.41103 10.9444 8.09992 10.5666 7.63325C10.1888 7.16659 9.99996 6.62214 9.99996 5.99992C9.99996 5.62214 10.0722 5.26936 10.2166 4.94159C10.3611 4.61381 10.5611 4.3277 10.8166 4.08325C10.7611 3.96103 10.7222 3.83881 10.7 3.71659C10.6777 3.59436 10.6666 3.46659 10.6666 3.33325C10.6666 2.7777 10.8611 2.30547 11.25 1.91659C11.6388 1.5277 12.1111 1.33325 12.6666 1.33325C13.2222 1.33325 13.6944 1.5277 14.0833 1.91659C14.4722 2.30547 14.6666 2.7777 14.6666 3.33325C14.6666 3.46659 14.6555 3.59436 14.6333 3.71659C14.6111 3.83881 14.5722 3.96103 14.5166 4.08325C14.7722 4.3277 14.9722 4.61381 15.1166 4.94159C15.2611 5.26936 15.3333 5.62214 15.3333 5.99992C15.3333 6.62214 15.1444 7.16659 14.7666 7.63325C14.3888 8.09992 13.9111 8.41103 13.3333 8.56659V12.6666H15.3333V13.9999H0.666626Z" fill="#F0F0F0"/>
</svg>
