<svg width="32" height="32" viewBox="0 0 32 32" fill="none" xmlns="http://www.w3.org/2000/svg">
<path d="M16 0.5C24.5604 0.5 31.5 7.43959 31.5 16C31.5 24.5604 24.5604 31.5 16 31.5C7.43959 31.5 0.5 24.5604 0.5 16C0.5 7.43959 7.43959 0.5 16 0.5Z" fill="#702B21"/>
<path d="M16 0.5C24.5604 0.5 31.5 7.43959 31.5 16C31.5 24.5604 24.5604 31.5 16 31.5C7.43959 31.5 0.5 24.5604 0.5 16C0.5 7.43959 7.43959 0.5 16 0.5Z" stroke="#F1EAE6"/>
<g clip-path="url(#clip0_1524_9953)">
<path d="M8.66675 16.6667V15.3334H12.6667V16.6667H8.66675ZM13.1667 14.1001L11.7667 12.7001L12.7001 11.7667L14.1001 13.1667L13.1667 14.1001ZM15.3334 12.6667V8.66675H16.6667V12.6667H15.3334ZM18.8334 14.1001L17.9001 13.1667L19.3001 11.7667L20.2334 12.7001L18.8334 14.1001ZM19.3334 16.6667V15.3334H23.3334V16.6667H19.3334ZM16.0001 18.0001C15.4445 18.0001 14.9723 17.8056 14.5834 17.4167C14.1945 17.0279 14.0001 16.5556 14.0001 16.0001C14.0001 15.4445 14.1945 14.9723 14.5834 14.5834C14.9723 14.1945 15.4445 14.0001 16.0001 14.0001C16.5556 14.0001 17.0279 14.1945 17.4167 14.5834C17.8056 14.9723 18.0001 15.4445 18.0001 16.0001C18.0001 16.5556 17.8056 17.0279 17.4167 17.4167C17.0279 17.8056 16.5556 18.0001 16.0001 18.0001ZM19.3001 20.2334L17.9001 18.8334L18.8334 17.9001L20.2334 19.3001L19.3001 20.2334ZM12.7001 20.2334L11.7667 19.3001L13.1667 17.9001L14.1001 18.8334L12.7001 20.2334ZM15.3334 23.3334V19.3334H16.6667V23.3334H15.3334Z" fill="#F0F0F0"/>
</g>
<defs>
<clipPath id="clip0_1524_9953">
<path d="M8 12C8 9.79086 9.79086 8 12 8H20C22.2091 8 24 9.79086 24 12V20C24 22.2091 22.2091 24 20 24H12C9.79086 24 8 22.2091 8 20V12Z" fill="white"/>
</clipPath>
</defs>
</svg>
