<svg width="24" height="24" viewBox="0 0 24 24" fill="none" xmlns="http://www.w3.org/2000/svg">
<path d="M0 12C0 5.37258 5.37258 0 12 0C18.6274 0 24 5.37258 24 12C24 18.6274 18.6274 24 12 24C5.37258 24 0 18.6274 0 12Z" fill="#702B21"/>
<path d="M12 18.6666C11.0889 18.6666 10.2278 18.4916 9.41671 18.1416C8.6056 17.7916 7.89726 17.3138 7.29171 16.7083C6.68615 16.1027 6.20837 15.3944 5.85837 14.5833C5.50837 13.7721 5.33337 12.911 5.33337 11.9999C5.33337 11.0777 5.51393 10.211 5.87504 9.39992C6.23615 8.58881 6.72504 7.88325 7.34171 7.28325C7.95837 6.68325 8.67782 6.20825 9.50004 5.85825C10.3223 5.50825 11.2 5.33325 12.1334 5.33325C13.0223 5.33325 13.8612 5.48603 14.65 5.79159C15.4389 6.09714 16.1306 6.51936 16.725 7.05825C17.3195 7.59714 17.7917 8.23603 18.1417 8.97492C18.4917 9.71381 18.6667 10.511 18.6667 11.3666C18.6667 12.6444 18.2778 13.6249 17.5 14.3083C16.7223 14.9916 15.7778 15.3333 14.6667 15.3333H13.4334C13.3334 15.3333 13.2639 15.361 13.225 15.4166C13.1862 15.4721 13.1667 15.5333 13.1667 15.5999C13.1667 15.7333 13.25 15.9249 13.4167 16.1749C13.5834 16.4249 13.6667 16.711 13.6667 17.0333C13.6667 17.5888 13.5139 17.9999 13.2084 18.2666C12.9028 18.5333 12.5 18.6666 12 18.6666ZM8.33337 12.6666C8.62226 12.6666 8.86115 12.5721 9.05004 12.3833C9.23893 12.1944 9.33337 11.9555 9.33337 11.6666C9.33337 11.3777 9.23893 11.1388 9.05004 10.9499C8.86115 10.761 8.62226 10.6666 8.33337 10.6666C8.04449 10.6666 7.8056 10.761 7.61671 10.9499C7.42782 11.1388 7.33337 11.3777 7.33337 11.6666C7.33337 11.9555 7.42782 12.1944 7.61671 12.3833C7.8056 12.5721 8.04449 12.6666 8.33337 12.6666ZM10.3334 9.99992C10.6223 9.99992 10.8612 9.90547 11.05 9.71659C11.2389 9.5277 11.3334 9.28881 11.3334 8.99992C11.3334 8.71103 11.2389 8.47214 11.05 8.28325C10.8612 8.09436 10.6223 7.99992 10.3334 7.99992C10.0445 7.99992 9.8056 8.09436 9.61671 8.28325C9.42782 8.47214 9.33337 8.71103 9.33337 8.99992C9.33337 9.28881 9.42782 9.5277 9.61671 9.71659C9.8056 9.90547 10.0445 9.99992 10.3334 9.99992ZM13.6667 9.99992C13.9556 9.99992 14.1945 9.90547 14.3834 9.71659C14.5723 9.5277 14.6667 9.28881 14.6667 8.99992C14.6667 8.71103 14.5723 8.47214 14.3834 8.28325C14.1945 8.09436 13.9556 7.99992 13.6667 7.99992C13.3778 7.99992 13.1389 8.09436 12.95 8.28325C12.7612 8.47214 12.6667 8.71103 12.6667 8.99992C12.6667 9.28881 12.7612 9.5277 12.95 9.71659C13.1389 9.90547 13.3778 9.99992 13.6667 9.99992ZM15.6667 12.6666C15.9556 12.6666 16.1945 12.5721 16.3834 12.3833C16.5723 12.1944 16.6667 11.9555 16.6667 11.6666C16.6667 11.3777 16.5723 11.1388 16.3834 10.9499C16.1945 10.761 15.9556 10.6666 15.6667 10.6666C15.3778 10.6666 15.1389 10.761 14.95 10.9499C14.7612 11.1388 14.6667 11.3777 14.6667 11.6666C14.6667 11.9555 14.7612 12.1944 14.95 12.3833C15.1389 12.5721 15.3778 12.6666 15.6667 12.6666ZM12 17.3333C12.1 17.3333 12.1806 17.3055 12.2417 17.2499C12.3028 17.1944 12.3334 17.1221 12.3334 17.0333C12.3334 16.8777 12.25 16.6944 12.0834 16.4833C11.9167 16.2721 11.8334 15.9555 11.8334 15.5333C11.8334 15.0666 11.9945 14.6944 12.3167 14.4166C12.6389 14.1388 13.0334 13.9999 13.5 13.9999H14.6667C15.4 13.9999 16.0278 13.786 16.55 13.3583C17.0723 12.9305 17.3334 12.2666 17.3334 11.3666C17.3334 10.0221 16.8195 8.9027 15.7917 8.00825C14.7639 7.11381 13.5445 6.66659 12.1334 6.66659C10.6223 6.66659 9.33337 7.18325 8.26671 8.21659C7.20004 9.24992 6.66671 10.511 6.66671 11.9999C6.66671 13.4777 7.18615 14.736 8.22504 15.7749C9.26393 16.8138 10.5223 17.3333 12 17.3333Z" fill="#F0F0F0"/>
</svg>
