<svg width="24" height="24" viewBox="0 0 24 24" fill="none" xmlns="http://www.w3.org/2000/svg">
<path d="M12 0.5C18.3513 0.5 23.5 5.64873 23.5 12C23.5 18.3513 18.3513 23.5 12 23.5C5.64873 23.5 0.5 18.3513 0.5 12C0.5 5.64873 5.64873 0.5 12 0.5Z" fill="#702B21"/>
<path d="M12 0.5C18.3513 0.5 23.5 5.64873 23.5 12C23.5 18.3513 18.3513 23.5 12 23.5C5.64873 23.5 0.5 18.3513 0.5 12C0.5 5.64873 5.64873 0.5 12 0.5Z" stroke="#F1EAE6"/>
<path d="M7.6 17.0666C7.1 16.5666 6.70833 15.9888 6.425 15.3333C6.14167 14.6777 6 13.9999 6 13.2999C6 12.5999 6.13333 11.9083 6.4 11.2249C6.66667 10.5416 7.1 9.89992 7.7 9.29992C8.08889 8.91103 8.56944 8.5777 9.14167 8.29992C9.71389 8.02214 10.3917 7.8027 11.175 7.64158C11.9583 7.48047 12.8528 7.38325 13.8583 7.34992C14.8639 7.31658 15.9889 7.35547 17.2333 7.46658C17.3222 8.64436 17.35 9.72769 17.3167 10.7166C17.2833 11.7055 17.1917 12.5971 17.0417 13.3916C16.8917 14.186 16.6806 14.8805 16.4083 15.4749C16.1361 16.0694 15.8 16.5666 15.4 16.9666C14.8111 17.5555 14.1861 17.986 13.525 18.2583C12.8639 18.5305 12.1889 18.6666 11.5 18.6666C10.7778 18.6666 10.0722 18.5249 9.38333 18.2416C8.69444 17.9583 8.1 17.5666 7.6 17.0666ZM9.46667 16.7999C9.78889 16.9888 10.1194 17.1249 10.4583 17.2083C10.7972 17.2916 11.1444 17.3333 11.5 17.3333C12.0111 17.3333 12.5167 17.2305 13.0167 17.0249C13.5167 16.8194 13.9944 16.4888 14.45 16.0333C14.65 15.8333 14.8528 15.5527 15.0583 15.1916C15.2639 14.8305 15.4417 14.3583 15.5917 13.7749C15.7417 13.1916 15.8556 12.486 15.9333 11.6583C16.0111 10.8305 16.0222 9.84436 15.9667 8.69992C15.4222 8.6777 14.8083 8.66936 14.125 8.67492C13.4417 8.68047 12.7611 8.73325 12.0833 8.83325C11.4056 8.93325 10.7611 9.09436 10.15 9.31658C9.53889 9.53881 9.03889 9.84436 8.65 10.2333C8.15 10.7333 7.80556 11.2277 7.61667 11.7166C7.42778 12.2055 7.33333 12.6777 7.33333 13.1333C7.33333 13.7888 7.45833 14.3638 7.70833 14.8583C7.95833 15.3527 8.17778 15.6999 8.36667 15.8999C8.83333 15.011 9.45 14.1583 10.2167 13.3416C10.9833 12.5249 11.8778 11.8555 12.9 11.3333C12.1 12.0333 11.4028 12.8249 10.8083 13.7083C10.2139 14.5916 9.76667 15.6221 9.46667 16.7999Z" fill="#F0F0F0"/>
</svg>
