<svg width="32" height="32" viewBox="0 0 32 32" fill="none" xmlns="http://www.w3.org/2000/svg">
<path d="M0 16C0 7.16344 7.16344 0 16 0C24.8366 0 32 7.16344 32 16C32 24.8366 24.8366 32 16 32C7.16344 32 0 24.8366 0 16Z" fill="#702B21"/>
<path d="M16 26C14.6167 26 13.3167 25.7375 12.1 25.2125C10.8833 24.6875 9.825 23.975 8.925 23.075C8.025 22.175 7.3125 21.1167 6.7875 19.9C6.2625 18.6833 6 17.3833 6 16C6 14.6167 6.2625 13.3167 6.7875 12.1C7.3125 10.8833 8.025 9.825 8.925 8.925C9.825 8.025 10.8833 7.3125 12.1 6.7875C13.3167 6.2625 14.6167 6 16 6C17.3833 6 18.6833 6.2625 19.9 6.7875C21.1167 7.3125 22.175 8.025 23.075 8.925C23.975 9.825 24.6875 10.8833 25.2125 12.1C25.7375 13.3167 26 14.6167 26 16C26 17.3833 25.7375 18.6833 25.2125 19.9C24.6875 21.1167 23.975 22.175 23.075 23.075C22.175 23.975 21.1167 24.6875 19.9 25.2125C18.6833 25.7375 17.3833 26 16 26ZM21 13.5L22.35 13.05L22.75 11.7C22.2167 10.9 21.575 10.2125 20.825 9.6375C20.075 9.0625 19.25 8.63333 18.35 8.35L17 9.3V10.7L21 13.5ZM11 13.5L15 10.7V9.3L13.65 8.35C12.75 8.63333 11.925 9.0625 11.175 9.6375C10.425 10.2125 9.78333 10.9 9.25 11.7L9.65 13.05L11 13.5ZM9.95 21.2L11.1 21.1L11.85 19.75L10.4 15.4L9 14.9L8 15.65C8 16.7333 8.15 17.7208 8.45 18.6125C8.75 19.5042 9.25 20.3667 9.95 21.2ZM16 24C16.4333 24 16.8583 23.9667 17.275 23.9C17.6917 23.8333 18.1 23.7333 18.5 23.6L19.2 22.1L18.55 21H13.45L12.8 22.1L13.5 23.6C13.9 23.7333 14.3083 23.8333 14.725 23.9C15.1417 23.9667 15.5667 24 16 24ZM13.75 19H18.25L19.65 15L16 12.45L12.4 15L13.75 19ZM22.05 21.2C22.75 20.3667 23.25 19.5042 23.55 18.6125C23.85 17.7208 24 16.7333 24 15.65L23 14.95L21.6 15.4L20.15 19.75L20.9 21.1L22.05 21.2Z" fill="#F0F0F0"/>
</svg>
