<svg width="24" height="24" viewBox="0 0 24 24" fill="none" xmlns="http://www.w3.org/2000/svg">
<path d="M12 0.5C18.3513 0.5 23.5 5.64873 23.5 12C23.5 18.3513 18.3513 23.5 12 23.5C5.64873 23.5 0.5 18.3513 0.5 12C0.5 5.64873 5.64873 0.5 12 0.5Z" fill="#702B21"/>
<path d="M12 0.5C18.3513 0.5 23.5 5.64873 23.5 12C23.5 18.3513 18.3513 23.5 12 23.5C5.64873 23.5 0.5 18.3513 0.5 12C0.5 5.64873 5.64873 0.5 12 0.5Z" stroke="#F1EAE6"/>
<path d="M16.24 10.0001L16.64 12.0001H7.36L7.76 10.0001H16.24ZM17.3333 6.66675H6.66667V8.00008H17.3333V6.66675ZM17.3333 8.66675H6.66667L6 12.0001V13.3334H6.66667V17.3334H13.3333V13.3334H16V17.3334H17.3333V13.3334H18V12.0001L17.3333 8.66675ZM8 16.0001V13.3334H12V16.0001H8Z" fill="#F0F0F0"/>
</svg>
