<svg width="28" height="28" viewBox="0 0 28 28" fill="none" xmlns="http://www.w3.org/2000/svg">
<path d="M0 14C0 6.26801 6.26801 0 14 0C21.732 0 28 6.26801 28 14C28 21.732 21.732 28 14 28C6.26801 28 0 21.732 0 14Z" fill="#702B21"/>
<path d="M19.3 11.4999L19.8 13.9999H8.2L8.7 11.4999H19.3ZM20.6667 7.33325H7.33333V8.99992H20.6667V7.33325ZM20.6667 9.83325H7.33333L6.5 13.9999V15.6666H7.33333V20.6666H15.6667V15.6666H19V20.6666H20.6667V15.6666H21.5V13.9999L20.6667 9.83325ZM9 18.9999V15.6666H14V18.9999H9Z" fill="#F0F0F0"/>
</svg>
