<svg width="120" height="140" viewBox="0 0 120 140" fill="none" xmlns="http://www.w3.org/2000/svg">
<path d="M78.5283 106.646C78.5199 107.374 78.4992 108.575 78.0335 110.059C77.6053 111.415 76.9858 112.429 76.516 113.082C76.6116 112.121 76.6324 110.779 76.2873 109.236C76.1668 108.691 75.7718 107.107 74.6617 105.349C73.9175 104.168 73.1109 103.312 72.4915 102.742C72.9031 102.476 73.9923 101.861 75.4891 101.902C76.6407 101.935 77.5013 102.343 77.9296 102.584C78.4451 104.251 78.5366 105.681 78.5283 106.646Z" fill="#702B21"/>
<path d="M16.651 106.06V134.938H18.0937V126.586C19.5738 126.586 20.7753 127.787 20.7753 129.267V139.067H8.39819V134.938H12.5225V106.06H11.0798V114.416C9.59973 114.416 8.39819 113.215 8.39819 111.731V101.935H20.7753V106.06H16.651Z" fill="#702B21"/>
<path d="M45.4838 101.935V114.271H43.4674C42.3282 114.271 41.2971 113.809 40.5488 113.061C39.8004 112.313 39.3389 111.282 39.3389 110.142H41.3595V106.055H37.1894V139.062H33.061V106.055H29.024V110.184H31.0861C31.0861 112.462 29.2402 114.308 26.9618 114.308H24.8997V101.931H45.4838V101.935Z" fill="#702B21"/>
<path d="M119.996 101.894V114.213H117.934C116.782 114.213 115.743 113.751 114.986 113.003C114.229 112.254 113.764 111.223 113.764 110.084H115.826V106.022H111.61V139.029H107.436V106.022H103.357V110.13H105.419C105.419 112.408 103.553 114.258 101.245 114.258H99.1831V101.898H119.996V101.894Z" fill="#702B21"/>
<path d="M70.2835 105.985L53.782 134.938H66.1591V126.652H67.5311C69.0154 126.652 70.2169 127.854 70.2169 129.338V134.938H70.2876V139.067H49.6577V134.938C55.1624 125.289 60.667 115.635 66.1716 105.985H53.782V114.412H52.3394C50.8551 114.412 49.6536 113.211 49.6536 111.727V101.856H70.2835V105.985Z" fill="#702B21"/>
<path d="M86.8724 105.96L86.7768 106.263C86.7477 106.16 86.7144 106.06 86.6812 105.96H86.8724Z" fill="#702B21"/>
<path d="M89.704 101.811H83.8501C80.3827 112.861 76.9153 123.921 73.4479 134.976C72.8118 137 74.3251 139.058 76.4455 139.062H76.4871L79.098 130.739H94.4478C95.3167 133.516 96.1898 136.289 97.0588 139.067C97.0712 139.067 97.0879 139.067 97.1003 139.067C99.2207 139.087 100.742 137.029 100.106 135.009C96.643 123.941 93.1714 112.874 89.704 101.811ZM80.3661 126.698L86.7729 106.263C86.7438 106.159 86.7106 106.06 86.6773 105.96H86.8686L86.7729 106.263C88.9099 113.073 91.0469 119.888 93.1839 126.698H80.3661Z" fill="#702B21"/>
<path d="M89.055 120.087C89.055 121.384 88.0281 122.436 86.7642 122.436C85.5003 122.436 84.4734 121.384 84.4734 120.087C84.4734 118.79 85.4962 117.738 86.7642 117.738C88.0281 117.738 89.055 118.79 89.055 120.087Z" fill="#702B21"/>
<path d="M86.8724 105.96L86.7768 106.263C86.7477 106.16 86.7144 106.06 86.6812 105.96H86.8724Z" fill="#702B21"/>
<path d="M83.2642 62.5257C83.2642 63.9392 82.1167 65.0867 80.699 65.0867C80.5743 65.0867 80.4537 65.0784 80.3331 65.0618C77.4561 67.9264 72.3589 71.6557 65.0873 71.9717C64.7589 71.9841 64.4346 71.9925 64.1103 71.9925C56.4271 71.9925 50.8933 67.9804 47.8043 64.9329C47.5299 65.0327 47.2388 65.0867 46.9353 65.0867C45.5218 65.0867 44.3743 63.9392 44.3743 62.5257C44.3743 61.1121 45.5218 59.9604 46.9353 59.9604C48.3489 59.9604 49.5006 61.1079 49.5006 62.5257C49.5006 62.8666 49.434 63.195 49.3135 63.4902C52.2446 66.3756 57.5704 70.2047 64.9958 69.8763C71.2862 69.6019 75.8554 66.4088 78.5163 63.8727C78.2751 63.4819 78.1379 63.0204 78.1379 62.5298C78.1379 61.1163 79.2813 59.9646 80.699 59.9646C82.1167 59.9604 83.2642 61.1079 83.2642 62.5257Z" fill="#702B21"/>
<path d="M37.5141 38.3537C35.7637 36.5618 34.4832 34.3873 33.8097 32.0674C32.2215 26.5836 34.3626 21.8647 35.3604 20.0936L37.539 16.2104L33.9884 18.8962C31.8764 20.4927 26.8831 25.0037 26.0599 32.4499C25.6982 35.7344 26.2304 39.1187 27.6024 42.2493L27.7022 42.4697L27.8934 42.6152C28.2302 42.8688 29.7269 43.9082 31.7641 43.9082C32.2838 43.9082 32.8451 43.8417 33.4313 43.6712C36.774 42.7108 37.7136 39.3931 37.751 39.2517L37.8924 38.7362L37.5141 38.3537ZM32.9116 41.8793C31.1821 42.374 29.7228 41.5966 29.2031 41.2557C28.3715 39.2725 27.5109 36.2375 27.9101 32.6495C28.3591 28.5834 30.2508 25.4486 32.0385 23.3241C31.3484 25.8186 30.9991 29.0532 32.0219 32.583C32.7287 35.0151 34.0175 37.2976 35.7762 39.2226C35.4477 39.9668 34.6204 41.3887 32.9116 41.8793Z" fill="#702B21"/>
<path d="M25.1908 55.437C27.4151 53.9361 29.7599 52.6306 32.1838 51.5205C29.8639 52.8343 27.6645 54.3352 25.6065 55.9982C24.5754 56.8298 23.5818 57.6987 22.6297 58.6092C21.6693 59.5197 20.7712 60.4552 19.9605 61.4738C19.1415 62.4841 18.4014 63.5526 17.7196 64.6626C16.9504 65.8974 15.8819 66.9909 14.5723 67.76C13.2627 68.525 11.7452 68.9408 10.2027 68.9616C9.43354 68.974 8.66439 68.8867 7.92018 68.7121C7.17182 68.5375 6.45256 68.288 5.7333 67.9222L4.21578 67.153L5.40901 65.7394C5.65015 65.4817 5.84971 65.1906 5.99938 64.8705C6.1449 64.5504 6.24052 64.2095 6.2821 63.8561C6.36109 63.1534 6.2031 62.4342 5.83724 61.848C5.47553 61.2576 4.90594 60.7919 4.24488 60.5466C3.58383 60.2972 2.84378 60.2722 2.17441 60.4801L0 61.1453L0.386655 58.9044C0.752521 56.7757 1.22648 54.6637 1.79191 52.5766C2.36566 50.4936 3.03087 48.4315 3.79587 46.4109C4.56502 44.3903 5.43395 42.403 6.39435 40.4656C6.62718 39.9791 6.88494 39.501 7.13856 39.0271L7.90355 37.5968L8.72259 36.1957L9.13419 35.4973C9.27555 35.2645 9.42107 35.0399 9.56658 34.8113L10.4355 33.4434L11.3543 32.1047L11.8117 31.4353L12.294 30.7826C12.6182 30.346 12.9342 29.9095 13.2627 29.4813C14.5889 27.7725 15.99 26.1261 17.4577 24.5379C20.4137 21.3823 23.6608 18.5053 27.1407 15.9484L35.5182 9.79102L29.0822 17.9149L29.0781 17.9191C28.2507 18.9418 27.4774 20.0768 26.7789 21.241C26.0846 22.4092 25.4527 23.6233 24.9163 24.8747C23.8271 27.3734 23.0953 30.0384 22.8625 32.7657C22.6214 35.489 22.9332 38.2745 23.8104 40.9104C24.6877 43.5463 26.1304 46.0076 27.9763 48.1446C25.9641 46.1698 24.2886 43.8041 23.1577 41.1599C22.6006 39.8378 22.1599 38.4575 21.8813 37.0356C21.5986 35.6137 21.4614 34.1627 21.4656 32.7075C21.4739 29.7972 22.0185 26.8869 22.9581 24.1263C23.1494 23.5609 23.3573 22.9996 23.5776 22.4467C22.1599 23.723 20.792 25.0618 19.4907 26.4546C18.0813 27.9721 16.7384 29.5519 15.4662 31.19C15.1502 31.6016 14.8467 32.0215 14.539 32.4373L14.0776 33.0651L13.6368 33.7054L12.7596 34.9859L11.9281 36.2997C11.7909 36.52 11.6495 36.7362 11.5123 36.9566L11.1215 37.6259L10.3357 38.9688L9.60816 40.3325C9.36286 40.7899 9.11756 41.243 8.89305 41.7128C7.97423 43.5671 7.14271 45.4671 6.40267 47.4046C5.67093 49.342 5.03067 51.3168 4.47771 53.3125C4.09937 54.7177 3.76261 56.1355 3.47573 57.5615C4.07027 57.5948 4.65648 57.7195 5.20944 57.9274C6.43593 58.3805 7.5169 59.2578 8.20705 60.3845C8.90137 61.507 9.19656 62.8624 9.05104 64.1637C8.9762 64.8497 8.7808 65.5191 8.4773 66.1386C8.51887 66.151 8.56045 66.1677 8.60202 66.1801C9.13835 66.3589 9.69962 66.4712 10.2609 66.5169C11.3793 66.6001 12.5392 66.3963 13.5786 65.9099C14.618 65.4193 15.5452 64.6377 16.2727 63.6773C17.0876 62.5838 17.9649 61.532 18.9087 60.5466C19.8483 59.5571 20.8877 58.6508 21.9354 57.8193C22.9914 56.9794 24.0765 56.1853 25.1908 55.437Z" fill="#702B21"/>
<path d="M16.9713 48.1655C16.9713 49.7869 16.0067 51.1007 14.8218 51.1007C13.6328 51.1007 12.6682 49.7869 12.6682 48.1655C12.6682 46.544 13.6328 45.2302 14.8218 45.2302C16.0109 45.2302 16.9713 46.544 16.9713 48.1655Z" fill="#702B21"/>
<path d="M55.6288 37.3308L55.5291 37.335C55.5415 37.335 55.5582 37.3308 55.5706 37.3308H55.6288Z" fill="#702B21"/>
<path d="M55.6281 33.6431H55.5906C55.5782 33.6431 55.5698 33.6431 55.5574 33.6389L55.6281 33.6431Z" fill="#702B21"/>
<path d="M65.4614 16.3143C65.1912 15.5452 64.8586 14.2979 64.9251 12.7513C64.975 11.6121 65.2203 10.6767 65.4531 10.0156C65.6901 10.7557 65.952 11.8616 65.9479 13.217C65.9396 14.5183 65.6901 15.5868 65.4614 16.3143Z" fill="#702B21"/>
<path d="M61.5945 13.0424C61.3242 12.2732 60.9916 11.026 61.0582 9.47933C61.1081 8.34016 61.3534 7.40471 61.5862 6.74365C61.8232 7.4837 62.0851 8.58961 62.0809 9.94498C62.0768 11.2463 61.8273 12.3148 61.5945 13.0424Z" fill="#702B21"/>
<path d="M119.721 96.0648C118.657 89.5333 116.433 83.1888 113.182 77.4264C109.93 71.664 105.66 66.4796 100.638 62.1806C96.5305 58.6675 91.928 55.7405 87.0013 53.5246C86.7144 53.404 86.4276 53.2834 86.1407 53.1629C87.0263 46.4151 85.937 40.6985 82.8978 36.1626C82.8604 36.1127 82.6733 35.8299 82.3781 35.4225C81.663 34.4413 80.686 33.2523 79.4387 32.0507L79.4221 29.9013L79.4054 29.8223C79.0936 28.4503 78.0417 27.4275 76.7737 27.1323C76.7986 26.5004 76.7778 25.8642 76.7155 25.2281C76.6323 24.38 76.466 23.5443 76.229 22.7253C76.1085 22.3178 75.9713 21.9104 75.8174 21.5154C75.6595 21.1205 75.4807 20.7338 75.2894 20.3513C74.9028 19.5905 74.4496 18.8712 73.9299 18.1935L73.8301 18.0605L73.6804 17.9856C73.2688 17.7778 72.878 17.5325 72.5163 17.2456C72.1546 16.9587 71.822 16.6386 71.5268 16.2852C70.9531 15.6034 70.5165 14.8051 70.2463 13.957C70.2505 13.7325 70.2629 13.5163 70.2712 13.2918L70.317 12.3979C70.3502 11.8033 70.396 11.2088 70.4417 10.6143C70.5332 9.42521 70.6537 8.24446 70.7826 7.0554C70.9115 5.87465 71.0653 4.69805 71.2192 3.5173L71.4686 1.75449L71.7347 0.00415757L71.452 1.76281L71.1485 3.52146C70.9364 4.68974 70.7203 5.85802 70.4791 7.02214C70.2421 8.19041 69.9885 9.35038 69.7183 10.5145C69.5811 11.0966 69.4397 11.6745 69.2859 12.2524L69.0572 13.1171C68.9741 13.4082 68.8992 13.695 68.8119 13.9778L68.7828 14.0734L68.8327 14.2979V14.302C69.157 15.3705 69.6975 16.3725 70.4167 17.229C70.7743 17.653 71.1776 18.048 71.6183 18.3931C72.0091 18.7008 72.4332 18.9752 72.8739 19.2121C73.298 19.7817 73.6763 20.3846 73.9964 21.0207C74.1669 21.3574 74.3249 21.7067 74.4662 22.0642C74.6034 22.4176 74.7323 22.7793 74.8363 23.141C75.0483 23.8769 75.1938 24.6253 75.2686 25.3861C75.3268 25.9682 75.3393 26.5502 75.3185 27.1323C74.7115 27.2612 74.1627 27.5605 73.7179 27.9721C73.7137 27.9763 73.7137 27.9763 73.7095 27.9805C73.7054 27.9763 73.7054 27.9721 73.7012 27.9638C73.4934 27.5397 73.1982 27.1573 72.8281 26.8413C72.138 26.2551 71.2441 25.9557 70.3752 26.0347C69.976 26.068 69.5977 26.1761 69.2526 26.3465C69.182 26.3798 69.1113 26.4172 69.0406 26.4588C68.7496 26.6292 68.4835 26.8371 68.2548 27.0866C68.0428 26.7207 67.7684 26.3964 67.4441 26.1345C67.3776 26.0763 67.3069 26.0222 67.2321 25.9765C66.65 25.5691 65.9432 25.3445 65.1907 25.3778C64.6585 25.4028 64.1596 25.5483 63.7189 25.8019C60.3346 25.9183 57.4202 26.8454 55.146 27.9098V26.5295C55.7821 26.5877 56.4224 26.5586 57.046 26.4546C57.9648 26.2966 58.8462 25.9682 59.6154 25.4776C60.3845 24.9828 61.0497 24.3509 61.557 23.6233C62.0683 22.9041 62.4467 22.0975 62.667 21.2618C62.3344 22.0559 61.8563 22.7876 61.2784 23.3988C60.7047 24.0183 60.0145 24.5047 59.2745 24.8456C58.5344 25.1824 57.732 25.357 56.9379 25.382C56.148 25.4028 55.3539 25.2697 54.6263 25.0078L53.7116 24.7625V32.7326H57.204C57.1957 32.7284 57.1874 32.7284 57.179 32.7284L57.2372 32.7326H57.2081C57.5948 32.77 57.9648 32.9363 58.2351 33.1982C58.3723 33.3312 58.4845 33.4851 58.5552 33.6514C58.6259 33.8177 58.6591 33.984 58.655 34.1628C58.6508 34.512 58.4804 34.8903 58.206 35.1689C57.9399 35.4391 57.5782 35.6096 57.1957 35.6636H57.2414L57.1624 35.6678C57.1707 35.6678 57.1874 35.6678 57.1957 35.6636H52.5267L50.6974 34.3457V22.1183L58.1394 14.5972L58.4097 14.2937L58.339 13.9736C57.2289 9.31711 56.1189 4.65648 55.0088 0C55.6324 4.60659 56.2561 9.21318 56.8797 13.8198L49.4626 21.3117L49.2547 21.5237V31.8969C41.5549 39.2599 42.0829 49.8701 42.4488 53.0755C42.1577 53.1961 41.8709 53.3125 41.5798 53.4331C36.5824 55.6616 31.9051 58.6134 27.7517 62.1723C22.7252 66.4712 18.4554 71.6557 15.2083 77.4223C11.9571 83.1847 9.73696 89.5291 8.67678 96.0607L8.38159 97.89L10.2359 97.8858L29.606 97.8359L31.0986 97.8318L31.1734 96.3434C31.269 94.5057 31.5642 92.6764 32.0548 90.9053C32.5413 89.1342 33.2314 87.4171 34.1003 85.7998C34.5327 84.9891 35.015 84.2074 35.5347 83.4466C36.0544 82.6899 36.6198 81.9623 37.2185 81.268C38.2122 80.1081 39.3139 79.0479 40.503 78.0917C42.0372 78.7984 43.6503 79.2849 45.2884 79.5551C47.2923 79.8877 49.3378 79.8628 51.3002 79.5052C51.5455 79.472 51.7867 79.4096 52.0278 79.3555C52.2689 79.2973 52.5142 79.2516 52.7471 79.1851C53.221 79.0354 53.6991 78.9107 54.1606 78.7278C54.6263 78.5698 55.0711 78.3619 55.5202 78.1665C55.9609 77.9503 56.3974 77.7424 56.8173 77.4888C58.5053 76.5242 60.0187 75.2978 61.2784 73.8759C59.8316 75.1148 58.1976 76.0919 56.4722 76.782C56.044 76.9649 55.5992 77.1021 55.1626 77.2477C54.7177 77.3724 54.2771 77.5054 53.8239 77.5927C53.379 77.705 52.9217 77.759 52.4727 77.8297C52.2482 77.863 52.0195 77.8713 51.7908 77.8962C51.5663 77.9129 51.3376 77.942 51.109 77.942C49.2963 78.0127 47.5002 77.784 45.8081 77.2518C44.1159 76.728 42.5236 75.9256 41.135 74.907H41.1308L40.2203 74.3332L39.3597 74.9818C37.705 76.2207 36.1791 77.6343 34.8279 79.2017C34.1544 79.9833 33.5183 80.8024 32.9279 81.6547C32.35 82.5111 31.8012 83.3925 31.3148 84.3072C30.0717 86.6313 29.3857 88.7101 29.0115 90.0654C28.7495 91.0134 28.4585 92.2565 28.2548 93.7407C22.9414 93.7407 17.628 93.7407 12.3105 93.7407C13.1337 89.9906 14.7136 84.698 17.944 78.9647C21.6734 72.3417 26.176 67.6561 29.7931 64.5588C34.541 60.4927 39.9999 57.2622 45.8538 55.0795C51.7035 52.8885 57.944 51.7618 64.1887 51.7618C70.4292 51.7576 76.6739 52.8843 82.5236 55.0795C88.3733 57.2664 93.8322 60.4968 98.5802 64.5629C104.866 69.9511 108.538 75.6054 110.433 78.9647C113.66 84.6939 115.248 89.9823 116.071 93.7366C110.018 93.7366 103.968 93.7366 97.9149 93.7366C97.3869 92.7887 96.6095 91.4749 95.5825 89.9657C94.3311 88.128 93.3083 86.6188 91.5954 84.8976C90.0904 83.3842 88.4149 82.0746 86.6438 80.9437C85.7624 80.37 84.8519 79.8586 83.9206 79.3847C82.9934 78.9107 82.0455 78.4783 81.0809 78.0958C81.9831 78.5989 82.8687 79.1394 83.7168 79.7256C84.5691 80.3076 85.3965 80.923 86.1781 81.5798C87.7497 82.8895 89.1882 84.3446 90.4188 85.9453C91.6495 87.5377 92.6889 89.2547 93.4871 91.0633C94.3103 92.8593 94.8633 94.7593 95.2 96.6801L95.4079 97.8817H120L119.721 96.0648ZM74.0754 31.4894L74.0796 30.4999V30.1008C74.196 29.6019 74.487 29.1737 74.8695 28.8826C74.9485 28.8244 75.0317 28.7704 75.119 28.7247C75.3352 28.6041 75.5763 28.5251 75.8258 28.5001C76.7862 28.4004 77.7175 29.0864 77.9752 30.0717L77.9794 30.7452L77.9835 31.1693L78.0043 33.5183L78.0126 34.8446V34.8571C77.7715 35.6678 77.098 36.2748 76.3205 36.3829C75.3559 36.5118 74.408 35.884 74.0671 34.9111L74.0754 31.4894ZM68.7537 29.3524C68.7579 29.261 68.7704 29.1737 68.7911 29.0905C68.8369 28.8411 68.9283 28.6124 69.0572 28.4045C69.369 27.8848 69.9012 27.5231 70.5082 27.4691C70.9947 27.4275 71.5019 27.5938 71.8968 27.9347C72.3209 28.3006 72.5787 28.8036 72.6161 29.3608V35.7094C72.6535 36.7945 71.8885 37.7632 70.9157 37.8713C70.4168 37.9295 69.8887 37.7424 69.4688 37.3599C69.0032 36.9359 68.7454 36.3289 68.7537 35.6886V29.3524ZM63.4362 37.0481L63.4403 28.6041C63.4445 28.5667 63.4487 28.5334 63.4528 28.496C63.4861 28.2632 63.5568 28.047 63.6649 27.8474C63.9808 27.2529 64.5878 26.8371 65.2655 26.8039C66.0846 26.7664 66.8204 27.2778 67.1281 28.0179C67.2071 28.2008 67.257 28.3962 67.2736 28.5999V37.0065L67.2778 37.0523C67.3069 37.6011 67.124 38.1291 66.7498 38.5407C66.4005 38.9273 65.9224 39.156 65.4318 39.1768C64.9204 39.1934 64.4007 38.9855 64.0182 38.5906C63.6108 38.1831 63.4029 37.6177 63.4362 37.0481ZM57.1 31.2774H55.1585V30.1923C56.9587 29.2444 59.3119 28.3297 62.0808 27.9805C62.0392 28.1551 62.0101 28.3338 61.9977 28.5209V30.396C61.4904 30.0468 60.8959 29.8306 60.2723 29.7807C59.0208 29.6892 57.8276 30.2796 57.1 31.2774ZM58.0147 36.9317C58.4679 36.7737 58.892 36.5159 59.2329 36.1667C59.7401 35.6553 60.081 34.9444 60.0977 34.1794C60.106 33.7969 60.027 33.4061 59.8773 33.061C59.7276 32.7118 59.5031 32.4041 59.2412 32.1505C59.0624 31.98 58.867 31.8304 58.6591 31.7098C59.079 31.3647 59.6112 31.1776 60.16 31.2234C60.9541 31.2857 61.6567 31.8054 61.9769 32.5662V37.5928C61.8979 38.5947 61.0913 39.4221 60.1309 39.4886C59.0749 39.5593 58.1103 38.6945 58.0147 37.5928V36.9317ZM84.17 52.348C83.9912 52.2773 83.8125 52.2108 83.6337 52.1443C77.4347 49.8202 70.8117 48.6228 64.197 48.6269C57.574 48.6228 50.9551 49.8243 44.7604 52.1401C44.6523 52.1775 44.5442 52.2191 44.4361 52.2607C44.1783 49.0718 44.1326 41.0602 49.2547 34.907V35.0733L49.5208 35.2645L49.554 35.2895L51.874 36.9608L52.0652 37.098H56.5762V37.6801C56.7092 39.5219 58.2267 40.9438 60.0062 40.9438C60.0769 40.9438 60.1517 40.9396 60.2265 40.9354C61.2992 40.8648 62.2388 40.2827 62.8167 39.4221C62.8708 39.4844 62.929 39.5468 62.9872 39.6092C63.6274 40.2578 64.4839 40.6236 65.3653 40.6236H65.49C66.3631 40.5904 67.2154 40.1829 67.8183 39.5135C68.1135 39.1851 68.338 38.8109 68.4918 38.416C68.496 38.416 68.496 38.4201 68.496 38.4243C69.1362 39.0063 69.9386 39.3223 70.7452 39.3223C70.8575 39.3223 70.9614 39.314 71.0736 39.3057C72.3583 39.1643 73.4102 38.2496 73.8467 37.0356C74.4745 37.5553 75.2603 37.8547 76.0711 37.8547C76.2166 37.8547 76.3621 37.8464 76.5117 37.8256C77.5802 37.6842 78.524 37.0107 79.0645 36.0586C79.2266 35.7759 79.3514 35.4724 79.4387 35.1439L79.4595 35.065C79.9501 35.6304 80.37 36.1667 80.7192 36.6448C80.9978 37.0232 81.1724 37.2851 81.1932 37.3142C83.8582 41.293 84.8602 46.3528 84.17 52.348Z" fill="#702B21"/>
</svg>
