<svg width="140" height="48" viewBox="0 0 140 48" fill="none" xmlns="http://www.w3.org/2000/svg">
<path d="M87.9779 6.61751C87.9675 7.53555 87.9414 9.05161 87.3564 10.9192C86.8184 12.6293 86.0402 13.9041 85.45 14.7277C85.5701 13.5159 85.5962 11.8267 85.1627 9.88573C85.0112 9.19851 84.515 7.205 83.1204 4.98596C82.1855 3.4961 81.1722 2.42068 80.394 1.70198C80.9111 1.37149 82.2795 0.589827 84.1546 0.642286C85.6014 0.684254 86.6826 1.19843 87.2154 1.5027C87.8735 3.60108 87.9884 5.40569 87.9779 6.61751Z" fill="#702B21"/>
<path d="M10.3522 5.87778V42.2638H12.1594V31.7404C14.0188 31.7404 15.5231 33.2512 15.5231 35.1187V47.4625H0V42.2638H5.1761V5.87778H3.36368V16.4065C1.50425 16.4065 0 14.8956 0 13.0228V0.679077H15.5231V5.87778H10.3522Z" fill="#702B21"/>
<path d="M46.522 0.684326V16.228H43.9888C42.5576 16.228 41.2675 15.6458 40.3274 14.7068C39.3924 13.7677 38.8127 12.4667 38.8127 11.0293H41.3459V5.88303H36.1176V47.473H30.9415V5.88303H25.875V11.0871H28.4657C28.4657 13.9566 26.1466 16.2858 23.2896 16.2858H20.6989V0.689577H46.522V0.684326Z" fill="#702B21"/>
<path d="M140 0.631836V16.1547H137.409C135.963 16.1547 134.657 15.5724 133.711 14.6334C132.766 13.6944 132.176 12.3934 132.176 10.956H134.766V5.83592H129.481V47.4258H124.247V5.83592H119.128V11.0136H121.719C121.719 13.8832 119.374 16.2123 116.486 16.2123H113.895V0.637087H140V0.631836Z" fill="#702B21"/>
<path d="M77.6308 5.78867L56.9317 42.2691H72.4599V31.8296H74.1784C76.0378 31.8296 77.5473 33.3405 77.5473 35.2133V42.2691H77.636V47.4678H51.7556V42.2691C58.6605 30.109 65.5654 17.9488 72.4756 5.78867H56.9317V16.4065H55.1245C53.265 16.4065 51.7556 14.8957 51.7556 13.0229V0.584717H77.636V5.78867H77.6308Z" fill="#702B21"/>
<path d="M98.4451 5.75714L98.325 6.14009C98.2884 6.00894 98.2466 5.88304 98.2048 5.75714H98.4451Z" fill="#702B21"/>
<path d="M101.997 0.526917H94.653C90.3021 14.4549 85.9513 28.3829 81.6057 42.3109C80.8065 44.8605 82.7025 47.4573 85.3663 47.4625H85.4185L88.6986 36.9706H107.956C109.048 40.4696 110.145 43.9634 111.236 47.4625C111.252 47.4625 111.273 47.4625 111.289 47.4625C113.947 47.4835 115.859 44.8972 115.06 42.3477C110.704 28.4092 106.353 14.4707 101.997 0.526917ZM90.2865 31.8873L98.3248 6.14007C98.2883 6.00892 98.2465 5.88303 98.2047 5.75712H98.445L98.3248 6.14007C101.004 14.7225 103.684 23.3049 106.368 31.8873H90.2865Z" fill="#702B21"/>
<path d="M101.182 23.5567C101.182 25.1934 99.8918 26.5207 98.3092 26.5207C96.7214 26.5207 95.4365 25.1934 95.4365 23.5567C95.4365 21.9252 96.7214 20.598 98.3092 20.598C99.897 20.598 101.182 21.9199 101.182 23.5567Z" fill="#702B21"/>
<path d="M98.4451 5.75714L98.325 6.14009C98.2884 6.00894 98.2466 5.88304 98.2048 5.75714H98.4451Z" fill="#702B21"/>
</svg>
