<svg width="123" height="48" viewBox="0 0 123 48" fill="none" xmlns="http://www.w3.org/2000/svg">
<path d="M24.5 27.4L18.5 21.4L19.9 20L24.5 24.6L29.1 20L30.5 21.4L24.5 27.4Z" fill="#555555"/>
<path d="M53.14 30L51.908 26.72H47.524L46.308 30H44.5L48.836 18.528H50.628L54.964 30H53.14ZM50.292 22.032C50.26 21.9253 50.2013 21.7493 50.116 21.504C50.0413 21.248 49.9667 20.9867 49.892 20.72C49.8173 20.4533 49.7587 20.24 49.716 20.08C49.6627 20.304 49.604 20.544 49.54 20.8C49.476 21.0453 49.412 21.2747 49.348 21.488C49.284 21.7013 49.2307 21.8827 49.188 22.032L48.036 25.216H51.428L50.292 22.032ZM57.9924 30H56.2964V17.84H57.9924V30ZM64.8329 22.672H62.7049V30H61.0089V22.672H59.5529V21.872L61.0089 21.344V20.8C61.0089 20.064 61.1209 19.4773 61.3449 19.04C61.5795 18.592 61.9102 18.2667 62.3369 18.064C62.7635 17.8613 63.2809 17.76 63.8889 17.76C64.2622 17.76 64.6035 17.792 64.9129 17.856C65.2222 17.92 65.4835 17.9893 65.6969 18.064L65.2649 19.36C65.0942 19.3067 64.8969 19.2587 64.6729 19.216C64.4489 19.1627 64.2142 19.136 63.9689 19.136C63.5422 19.136 63.2222 19.2747 63.0089 19.552C62.8062 19.8293 62.7049 20.2507 62.7049 20.816V21.376H64.8329V22.672ZM69.7676 21.232C70.8236 21.232 71.613 21.472 72.1356 21.952C72.6583 22.4213 72.9196 23.1573 72.9196 24.16V30H71.7036L71.3676 28.8H71.3036C71.0583 29.1093 70.8023 29.3653 70.5356 29.568C70.2796 29.7707 69.981 29.92 69.6396 30.016C69.309 30.112 68.9036 30.16 68.4236 30.16C67.9116 30.16 67.4476 30.0693 67.0316 29.888C66.6263 29.696 66.3063 29.408 66.0716 29.024C65.837 28.64 65.7196 28.1493 65.7196 27.552C65.7196 26.688 66.0556 26.0267 66.7276 25.568C67.3996 25.0987 68.4183 24.8427 69.7836 24.8L71.2396 24.752V24.304C71.2396 23.6427 71.0956 23.184 70.8076 22.928C70.5196 22.672 70.1143 22.544 69.5916 22.544C69.165 22.544 68.7436 22.6133 68.3276 22.752C67.9223 22.88 67.5383 23.0293 67.1756 23.2L66.6636 21.968C67.0583 21.7547 67.5223 21.5787 68.0556 21.44C68.589 21.3013 69.1596 21.232 69.7676 21.232ZM70.0716 25.904C69.101 25.936 68.4236 26.0907 68.0396 26.368C67.6663 26.6453 67.4796 27.0347 67.4796 27.536C67.4796 27.984 67.613 28.3147 67.8796 28.528C68.1463 28.7307 68.493 28.832 68.9196 28.832C69.581 28.832 70.1303 28.6507 70.5676 28.288C71.0156 27.9147 71.2396 27.3547 71.2396 26.608V25.856L70.0716 25.904ZM79.7239 21.216C79.8839 21.216 80.0545 21.2267 80.2359 21.248C80.4279 21.2587 80.5879 21.28 80.7159 21.312L80.5239 22.896C80.3852 22.864 80.2359 22.8373 80.0759 22.816C79.9159 22.7947 79.7452 22.784 79.5639 22.784C79.2652 22.784 78.9719 22.848 78.6839 22.976C78.3959 23.0933 78.1399 23.264 77.9159 23.488C77.6919 23.712 77.5105 23.9893 77.3719 24.32C77.2439 24.6507 77.1799 25.0347 77.1799 25.472V30H75.4839V21.376H76.8279L77.0519 22.912H77.1319C77.3025 22.6027 77.5159 22.32 77.7719 22.064C78.0279 21.7973 78.3212 21.5893 78.6519 21.44C78.9825 21.2907 79.3399 21.216 79.7239 21.216ZM85.361 21.216C86.1183 21.216 86.769 21.376 87.313 21.696C87.8677 22.0053 88.289 22.4533 88.577 23.04C88.865 23.6267 89.009 24.32 89.009 25.12V26.064H83.217C83.2383 26.9387 83.473 27.6107 83.921 28.08C84.369 28.5493 84.9983 28.784 85.809 28.784C86.353 28.784 86.8383 28.736 87.265 28.64C87.6917 28.5333 88.1343 28.3787 88.593 28.176V29.584C88.1557 29.776 87.7183 29.92 87.281 30.016C86.8437 30.112 86.3157 30.16 85.697 30.16C84.865 30.16 84.129 30 83.489 29.68C82.8597 29.3493 82.3637 28.8533 82.001 28.192C81.649 27.5307 81.473 26.7147 81.473 25.744C81.473 24.784 81.633 23.968 81.953 23.296C82.273 22.624 82.7263 22.112 83.313 21.76C83.8997 21.3973 84.5823 21.216 85.361 21.216ZM85.377 22.528C84.7583 22.528 84.2677 22.7253 83.905 23.12C83.5423 23.5147 83.3237 24.0747 83.249 24.8H87.313C87.313 24.3413 87.2383 23.9467 87.089 23.616C86.9503 23.2853 86.737 23.024 86.449 22.832C86.1717 22.6293 85.8143 22.528 85.377 22.528ZM95.3645 21.216C95.5245 21.216 95.6952 21.2267 95.8765 21.248C96.0685 21.2587 96.2285 21.28 96.3565 21.312L96.1645 22.896C96.0258 22.864 95.8765 22.8373 95.7165 22.816C95.5565 22.7947 95.3858 22.784 95.2045 22.784C94.9058 22.784 94.6125 22.848 94.3245 22.976C94.0365 23.0933 93.7805 23.264 93.5565 23.488C93.3325 23.712 93.1512 23.9893 93.0125 24.32C92.8845 24.6507 92.8205 25.0347 92.8205 25.472V30H91.1245V21.376H92.4685L92.6925 22.912H92.7725C92.9432 22.6027 93.1565 22.32 93.4125 22.064C93.6685 21.7973 93.9618 21.5893 94.2925 21.44C94.6232 21.2907 94.9805 21.216 95.3645 21.216ZM99.5861 30H97.8901V21.376H99.5861V30ZM101.378 17.904C101.261 18.0533 101.101 18.2347 100.898 18.448C100.695 18.6613 100.477 18.8853 100.242 19.12C100.007 19.344 99.7728 19.5627 99.5381 19.776C99.3035 19.9787 99.0848 20.1547 98.8821 20.304H97.7621V20.112C97.9221 19.9093 98.1035 19.6693 98.3061 19.392C98.5088 19.1147 98.7061 18.832 98.8981 18.544C99.0901 18.2453 99.2501 17.9787 99.3781 17.744H101.378V17.904ZM105.643 21.232C106.699 21.232 107.488 21.472 108.011 21.952C108.533 22.4213 108.795 23.1573 108.795 24.16V30H107.579L107.243 28.8H107.179C106.933 29.1093 106.677 29.3653 106.411 29.568C106.155 29.7707 105.856 29.92 105.515 30.016C105.184 30.112 104.779 30.16 104.299 30.16C103.787 30.16 103.323 30.0693 102.907 29.888C102.501 29.696 102.181 29.408 101.947 29.024C101.712 28.64 101.595 28.1493 101.595 27.552C101.595 26.688 101.931 26.0267 102.603 25.568C103.275 25.0987 104.293 24.8427 105.659 24.8L107.115 24.752V24.304C107.115 23.6427 106.971 23.184 106.683 22.928C106.395 22.672 105.989 22.544 105.467 22.544C105.04 22.544 104.619 22.6133 104.203 22.752C103.797 22.88 103.413 23.0293 103.051 23.2L102.539 21.968C102.933 21.7547 103.397 21.5787 103.931 21.44C104.464 21.3013 105.035 21.232 105.643 21.232ZM105.947 25.904C104.976 25.936 104.299 26.0907 103.915 26.368C103.541 26.6453 103.355 27.0347 103.355 27.536C103.355 27.984 103.488 28.3147 103.755 28.528C104.021 28.7307 104.368 28.832 104.795 28.832C105.456 28.832 106.005 28.6507 106.443 28.288C106.891 27.9147 107.115 27.3547 107.115 26.608V25.856L105.947 25.904Z" fill="#555555"/>
</svg>
