<svg width="20" height="21" viewBox="0 0 20 21" fill="none" xmlns="http://www.w3.org/2000/svg">
<path d="M19.41 9.68907L10.41 0.68907C10.05 0.32907 9.55 0.10907 9 0.10907H2C0.9 0.10907 0 1.00907 0 2.10907V9.10907C0 9.65907 0.22 10.1591 0.59 10.5291L9.59 19.5291C9.95 19.8891 10.45 20.1091 11 20.1091C11.55 20.1091 12.05 19.8891 12.41 19.5191L19.41 12.5191C19.78 12.1591 20 11.6591 20 11.1091C20 10.5591 19.77 10.0491 19.41 9.68907ZM11 18.1191L2 9.10907V2.10907H9V2.09907L18 11.0991L11 18.1191Z" fill="#702B21"/>
</svg>
