<svg width="24" height="25" viewBox="0 0 24 25" fill="none" xmlns="http://www.w3.org/2000/svg">
<path d="M12.7523 24.1091C12.2522 24.1091 11.7521 24.1091 11.252 24.1091C10.9719 24.0791 10.6819 24.0391 10.4018 23.9991C8.17144 23.6791 6.17109 22.8291 4.43078 21.3991C2.14037 19.5091 0.710119 17.0991 0.180025 14.1791C0.10001 13.7391 0.0600107 13.2991 0 12.8591C0 12.3591 0 11.8591 0 11.3591C0.0200036 11.2091 0.0400047 11.0491 0.0600082 10.8991C0.320054 8.52915 1.18022 6.38916 2.70049 4.54917C5.0109 1.76919 7.98142 0.269195 11.6021 0.119196C14.1125 0.0191962 16.4529 0.659194 18.5433 2.06919C22.0239 4.41917 23.8642 7.71916 23.9943 11.9291C24.0643 14.1691 23.4942 16.2791 22.324 18.1991C20.4236 21.3291 17.6631 23.2491 14.0625 23.9291C13.6424 24.0091 13.1923 24.0491 12.7523 24.1091ZM11.9921 22.7091C17.8332 22.7191 22.594 17.9591 22.604 12.1191C22.604 6.28916 17.8732 1.53919 12.0321 1.51919C6.2011 1.49919 1.43026 6.24916 1.41025 12.0991C1.39025 17.9291 6.15108 22.6991 11.9921 22.7091Z" fill="#702B21"/>
</svg>
