<svg width="56" height="57" viewBox="0 0 56 57" fill="none" xmlns="http://www.w3.org/2000/svg">
<path d="M28.0001 51.9424C24.7723 51.9424 21.739 51.3299 18.9001 50.1049C16.0612 48.8799 13.5917 47.2174 11.4917 45.1174C9.39175 43.0174 7.72925 40.548 6.50425 37.7091C5.27925 34.8702 4.66675 31.8369 4.66675 28.6091C4.66675 25.3813 5.27925 22.348 6.50425 19.5091C7.72925 16.6702 9.39175 14.2008 11.4917 12.1008C13.5917 10.0008 16.0612 8.33826 18.9001 7.11326C21.739 5.88826 24.7723 5.27576 28.0001 5.27576C33.9112 5.27576 39.0348 7.18131 43.3709 10.9924C47.707 14.8035 50.2834 19.548 51.1001 25.2258C50.3223 24.8369 49.5154 24.5355 48.6792 24.3216C47.8431 24.1077 46.9779 23.9813 46.0834 23.9424C45.3445 21.1035 44.0126 18.5758 42.0876 16.3591C40.1626 14.1424 37.8001 12.4702 35.0001 11.3424V12.2758C35.0001 13.5591 34.5431 14.6577 33.6292 15.5716C32.7154 16.4855 31.6167 16.9424 30.3334 16.9424H25.6667V21.6091C25.6667 22.2702 25.4431 22.8244 24.9959 23.2716C24.5487 23.7188 23.9945 23.9424 23.3334 23.9424H18.6667V28.6091H32.6667C33.0945 28.6091 33.4931 28.716 33.8626 28.9299C34.232 29.1438 34.514 29.4452 34.7084 29.8341C34.0473 30.8841 33.5417 31.9924 33.1917 33.1591C32.8417 34.3258 32.6667 35.5313 32.6667 36.7758C32.6667 39.2258 33.2987 41.5008 34.5626 43.6008C35.8265 45.7008 37.1195 47.6646 38.4417 49.4924C36.8473 50.2702 35.1751 50.873 33.4251 51.3008C31.6751 51.7285 29.8667 51.9424 28.0001 51.9424ZM25.6667 47.1591V42.6091C24.3834 42.6091 23.2848 42.1521 22.3709 41.2383C21.457 40.3244 21.0001 39.2258 21.0001 37.9424V35.6091L9.80008 24.4091C9.68341 25.1091 9.57647 25.8091 9.47925 26.5091C9.38203 27.2091 9.33341 27.9091 9.33341 28.6091C9.33341 33.3146 10.8792 37.4369 13.9709 40.9758C17.0626 44.5146 20.9612 46.5758 25.6667 47.1591ZM45.5001 51.9424C45.2279 51.9424 44.9945 51.8646 44.8001 51.7091C44.6056 51.5535 44.4695 51.3591 44.3917 51.1258C43.964 49.7646 43.3612 48.5008 42.5834 47.3341C41.8056 46.1674 40.9695 45.0202 40.0751 43.8924C39.2584 42.8813 38.5973 41.773 38.0917 40.5674C37.5862 39.3619 37.3334 38.098 37.3334 36.7758C37.3334 34.5202 38.1306 32.5952 39.7251 31.0008C41.3195 29.4063 43.2445 28.6091 45.5001 28.6091C47.7556 28.6091 49.6806 29.4063 51.2751 31.0008C52.8695 32.5952 53.6667 34.5202 53.6667 36.7758C53.6667 38.098 53.4042 39.3521 52.8792 40.5383C52.3542 41.7244 51.7029 42.8424 50.9251 43.8924C50.0306 45.0202 49.1945 46.1674 48.4167 47.3341C47.639 48.5008 47.0362 49.7646 46.6084 51.1258C46.5306 51.3591 46.3945 51.5535 46.2001 51.7091C46.0056 51.8646 45.7723 51.9424 45.5001 51.9424ZM45.5001 45.3508C45.889 44.6896 46.3167 44.0771 46.7834 43.5133C47.2501 42.9494 47.6973 42.3758 48.1251 41.7924C48.6695 41.0535 49.1459 40.266 49.5542 39.4299C49.9626 38.5938 50.1667 37.7091 50.1667 36.7758C50.1667 35.4924 49.7098 34.3938 48.7959 33.4799C47.882 32.566 46.7834 32.1091 45.5001 32.1091C44.2167 32.1091 43.1181 32.566 42.2042 33.4799C41.2904 34.3938 40.8334 35.4924 40.8334 36.7758C40.8334 37.7091 41.0376 38.5938 41.4459 39.4299C41.8542 40.266 42.3306 41.0535 42.8751 41.7924C43.3417 42.3758 43.7987 42.9494 44.2459 43.5133C44.6931 44.0771 45.1112 44.6896 45.5001 45.3508ZM45.5001 39.6924C44.6834 39.6924 43.9931 39.4105 43.4292 38.8466C42.8654 38.2827 42.5834 37.5924 42.5834 36.7758C42.5834 35.9591 42.8654 35.2688 43.4292 34.7049C43.9931 34.141 44.6834 33.8591 45.5001 33.8591C46.3167 33.8591 47.007 34.141 47.5709 34.7049C48.1348 35.2688 48.4167 35.9591 48.4167 36.7758C48.4167 37.5924 48.1348 38.2827 47.5709 38.8466C47.007 39.4105 46.3167 39.6924 45.5001 39.6924Z" fill="#702B21"/>
</svg>
